<?xml version="1.0" encoding="UTF-8" standalone="no"?>
<!-- Created with Inkscape (http://www.inkscape.org/) -->

<svg
   width="69.999924mm"
   height="36.867729mm"
   viewBox="0 0 69.999924 36.867729"
   version="1.1"
   id="svg11101"
   inkscape:version="1.2.2 (1:1.2.2+202212051552+b0a8486541)"
   sodipodi:docname="logo-with-domain-tagline.svg"
   xmlns:inkscape="http://www.inkscape.org/namespaces/inkscape"
   xmlns:sodipodi="http://sodipodi.sourceforge.net/DTD/sodipodi-0.dtd"
   xmlns:xlink="http://www.w3.org/1999/xlink"
   xmlns="http://www.w3.org/2000/svg"
   xmlns:svg="http://www.w3.org/2000/svg">
  <sodipodi:namedview
     id="namedview11103"
     pagecolor="#ffffff"
     bordercolor="#000000"
     borderopacity="0.25"
     inkscape:showpageshadow="2"
     inkscape:pageopacity="0.0"
     inkscape:pagecheckerboard="0"
     inkscape:deskcolor="#d1d1d1"
     inkscape:document-units="mm"
     showgrid="false"
     inkscape:zoom="0.80265853"
     inkscape:cx="132.06114"
     inkscape:cy="-150.12611"
     inkscape:window-width="1866"
     inkscape:window-height="1016"
     inkscape:window-x="1974"
     inkscape:window-y="27"
     inkscape:window-maximized="1"
     inkscape:current-layer="layer1" />
  <defs
     id="defs11098">
    <linearGradient
       inkscape:collect="always"
       xlink:href="#linearGradient8740"
       id="linearGradient6415"
       x1="-10.987616"
       y1="-43.433163"
       x2="94.845718"
       y2="-43.433163"
       gradientUnits="userSpaceOnUse"
       gradientTransform="matrix(0.66026702,0,0,0.66026702,21.370316,229.71655)" />
    <linearGradient
       id="linearGradient8740">
      <stop
         id="stop8738"
         offset="0"
         style="stop-color:#000000;stop-opacity:1;" />
      <stop
         id="stop8736"
         offset="0.18261695"
         style="stop-color:#3a86ff;stop-opacity:1" />
      <stop
         style="stop-color:#8338ec;stop-opacity:1"
         offset="0.38739288"
         id="stop8734" />
      <stop
         id="stop8732"
         offset="0.59400356"
         style="stop-color:#ff006e;stop-opacity:1" />
      <stop
         style="stop-color:#fb5607;stop-opacity:1"
         offset="0.74514398"
         id="stop8730" />
      <stop
         id="stop8728"
         offset="1"
         style="stop-color:#ffbe0b;stop-opacity:1" />
    </linearGradient>
  </defs>
  <g
     inkscape:label="Layer 1"
     inkscape:groupmode="layer"
     id="layer1"
     transform="translate(-14.115469,-188.5761)">
    <path
       d="m 28.763854,219.91933 c -0.261761,0 -0.498828,-0.0374 -0.7112,-0.11042 -0.210608,-0.0772 -0.392642,-0.18344 -0.541514,-0.32243 -0.147461,-0.14076 -0.26035,-0.30727 -0.339019,-0.49883 -0.07585,-0.19579 -0.1143,-0.41205 -0.1143,-0.65335 0,-0.23706 0.03986,-0.4519 0.118533,-0.6477 0.07867,-0.19402 0.19297,-0.36089 0.343253,-0.49882 0.14993,-0.139 0.331964,-0.24377 0.545747,-0.31821 0.214842,-0.0759 0.456142,-0.1143 0.724606,-0.1143 0.301977,0 0.567972,0.0469 0.795161,0.14041 0.231422,0.0896 0.417689,0.21625 0.555272,0.38029 0.137936,0.16122 0.223308,0.35137 0.253647,0.57185 h -0.684741 c -0.02893,-0.11853 -0.08678,-0.21907 -0.173567,-0.30021 -0.08573,-0.0815 -0.191558,-0.14464 -0.318558,-0.18591 -0.126648,-0.043 -0.269875,-0.0635 -0.427214,-0.0635 -0.223309,0 -0.413456,0.0413 -0.571853,0.12664 -0.155575,0.084 -0.274108,0.20391 -0.3556,0.35984 -0.08255,0.15557 -0.122414,0.33902 -0.122414,0.54962 0,0.16687 0.02328,0.31574 0.07161,0.44521 0.04833,0.12947 0.117122,0.23989 0.208139,0.3309 0.09207,0.0868 0.202494,0.15417 0.329141,0.2025 0.127,0.0455 0.268817,0.0674 0.422981,0.0674 0.215194,0 0.395817,-0.0332 0.543278,-0.10054 0.148519,-0.0688 0.261761,-0.16263 0.338666,-0.28399 0.07585,-0.12382 0.114653,-0.26987 0.114653,-0.43674 v -0.0882 l 0.198261,0.19438 h -1.244247 v -0.43956 h 1.722614 v 0.24095 c 0,0.23706 -0.0441,0.4452 -0.130881,0.62582 -0.08573,0.18168 -0.204258,0.33338 -0.3556,0.45756 -0.153105,0.121 -0.332316,0.21343 -0.537633,0.27552 -0.203905,0.0621 -0.42298,0.0938 -0.657225,0.0938 z"
       style="fill:#1f2937;fill-opacity:1;fill-rule:nonzero;stroke:none;stroke-width:0.352778"
       id="path7665" />
    <path
       d="m 30.777157,219.88053 v -2.26131 h 0.655814 v 2.26131 z m 0,-2.56575 v -0.52106 h 0.655814 v 0.52106 z"
       style="fill:#1f2937;fill-opacity:1;fill-rule:nonzero;stroke:none;stroke-width:0.352778"
       id="path7667" />
    <path
       d="m 32.723079,219.88053 c -0.121356,0 -0.227542,-0.0194 -0.317147,-0.0593 -0.09102,-0.0399 -0.16122,-0.0991 -0.21202,-0.1778 -0.04833,-0.0825 -0.07161,-0.18309 -0.07161,-0.30445 V 218.1152 H 31.68944 v -0.49601 h 0.432858 v -0.58843 l 0.647348,-0.12665 v 0.71508 h 0.567972 v 0.49601 h -0.567972 v 1.01565 c 0,0.073 0.01658,0.12417 0.05115,0.1531 0.03598,0.0247 0.09102,0.037 0.165453,0.037 h 0.351367 v 0.55951 z"
       style="fill:#1f2937;fill-opacity:1;fill-rule:nonzero;stroke:none;stroke-width:0.352778"
       id="path7669" />
    <path
       d="m 34.493671,219.88053 v -2.26131 h 0.592666 l 0.0247,0.36795 h 0.02611 c 0.04833,-0.12418 0.125589,-0.22049 0.233186,-0.2921 0.110067,-0.073 0.240948,-0.10901 0.394053,-0.10901 0.03845,0 0.07444,0.001 0.104775,0.004 0.03422,0.003 0.06174,0.006 0.08537,0.008 v 0.59267 c -0.03175,-0.008 -0.06491,-0.0138 -0.101952,-0.0166 -0.03457,-0.003 -0.06914,-0.004 -0.106187,-0.004 -0.118533,0 -0.221897,0.0208 -0.30868,0.0635 -0.08819,0.0388 -0.156986,0.10337 -0.208139,0.19438 -0.04939,0.0882 -0.07726,0.19967 -0.07973,0.33902 v 1.11337 z"
       style="fill:#1f2937;fill-opacity:1;fill-rule:nonzero;stroke:none;stroke-width:0.352778"
       id="path7671" />
    <path
       d="m 37.361401,219.91933 c -0.270228,0 -0.506942,-0.0469 -0.7112,-0.14075 -0.199672,-0.0924 -0.355247,-0.22613 -0.465667,-0.39829 -0.110066,-0.17216 -0.165452,-0.37747 -0.165452,-0.61736 0,-0.248 0.05539,-0.46038 0.165452,-0.63535 0.112889,-0.1778 0.268817,-0.31257 0.465667,-0.4064 0.201436,-0.0963 0.435681,-0.14464 0.703086,-0.14464 0.285045,0 0.526345,0.0522 0.724606,0.15698 0.200025,0.10478 0.350308,0.25365 0.448028,0.44944 0.09913,0.19403 0.138994,0.42827 0.118533,0.70274 h -1.967795 c 0.0028,0.12135 0.03175,0.22718 0.08819,0.31679 0.05927,0.0882 0.140405,0.15593 0.24518,0.20391 0.104775,0.0455 0.227542,0.0677 0.369359,0.0677 0.16263,0 0.303036,-0.0289 0.418747,-0.084 0.116064,-0.0607 0.189089,-0.13512 0.220486,-0.22472 h 0.621595 c -0.02187,0.14887 -0.09102,0.28116 -0.206728,0.39687 -0.115711,0.11289 -0.265995,0.20109 -0.449086,0.26318 -0.183445,0.0621 -0.391584,0.0938 -0.623006,0.0938 z m -0.702733,-1.36031 -0.0247,-0.0332 h 1.397353 l -0.03457,0.0332 c -0.0028,-0.11006 -0.02893,-0.2039 -0.08008,-0.28398 -0.0508,-0.0783 -0.123825,-0.139 -0.220486,-0.18168 -0.09349,-0.0413 -0.209197,-0.0635 -0.347133,-0.0635 -0.132292,0 -0.248003,0.0222 -0.347133,0.0635 -0.09666,0.0399 -0.17392,0.0991 -0.233187,0.1778 -0.05927,0.0797 -0.0949,0.17497 -0.110066,0.28786 z"
       style="fill:#1f2937;fill-opacity:1;fill-rule:nonzero;stroke:none;stroke-width:0.352778"
       id="path7673" />
    <path
       d="m 38.94749,220.5875 v -2.96828 h 0.623006 l 0.02046,0.37359 h 0.02646 c 0.06738,-0.12276 0.173567,-0.22048 0.316794,-0.29774 0.147462,-0.0758 0.330906,-0.11324 0.549981,-0.11324 0.166511,0 0.318205,0.0279 0.453319,0.0843 0.136525,0.0536 0.253648,0.13088 0.351367,0.23284 0.09913,0.0991 0.174978,0.22048 0.2286,0.36371 0.05398,0.14464 0.08149,0.30586 0.08149,0.48789 0,0.23989 -0.04692,0.44662 -0.140759,0.6216 -0.09207,0.17215 -0.224366,0.30727 -0.394052,0.4064 -0.165453,0.0963 -0.360892,0.14463 -0.5842,0.14463 -0.126648,0 -0.246592,-0.018 -0.359834,-0.0508 -0.110066,-0.0374 -0.206727,-0.0868 -0.2921,-0.14887 -0.08396,-0.0649 -0.14993,-0.14076 -0.198261,-0.22895 h -0.02611 v 1.09291 z m 1.338086,-1.16452 c 0.132292,0 0.246592,-0.0261 0.343253,-0.0797 0.09631,-0.054 0.172155,-0.13088 0.2286,-0.22895 0.05644,-0.10196 0.08431,-0.22331 0.08431,-0.36372 0,-0.14464 -0.02787,-0.26599 -0.08431,-0.36512 -0.05362,-0.0981 -0.12947,-0.17357 -0.2286,-0.22472 -0.09913,-0.0522 -0.213783,-0.0797 -0.343253,-0.0797 -0.140405,0 -0.263172,0.0275 -0.367947,0.0797 -0.101953,0.0536 -0.179211,0.12664 -0.232833,0.21625 -0.05362,0.091 -0.08114,0.19156 -0.08114,0.3048 v 0.12241 c 0,0.0857 0.01623,0.16546 0.04657,0.24271 0.03175,0.073 0.07585,0.13759 0.135114,0.19439 0.05927,0.0564 0.130881,0.10195 0.212372,0.13476 0.08537,0.0318 0.18027,0.0469 0.287867,0.0469 z"
       style="fill:#1f2937;fill-opacity:1;fill-rule:nonzero;stroke:none;stroke-width:0.352778"
       id="path7675" />
    <path
       d="m 43.154718,219.92321 c -0.201084,0 -0.384528,-0.0261 -0.551039,-0.0773 -0.162631,-0.0536 -0.306211,-0.13088 -0.427214,-0.23284 -0.118533,-0.10054 -0.210961,-0.22295 -0.275872,-0.36794 -0.06174,-0.14323 -0.09208,-0.30868 -0.09208,-0.4946 0,-0.24377 0.05644,-0.45191 0.169333,-0.62688 0.112889,-0.17498 0.268817,-0.30869 0.4699,-0.40252 0.202494,-0.0963 0.43815,-0.14464 0.706967,-0.14464 0.202494,0 0.385939,0.0275 0.54998,0.0811 0.166511,0.054 0.310092,0.13088 0.428272,0.23318 0.121356,0.0991 0.212373,0.22155 0.274462,0.3676 0.06456,0.14499 0.09772,0.30762 0.09772,0.49212 0,0.24236 -0.05644,0.45191 -0.169333,0.62971 -0.11042,0.17498 -0.267406,0.31009 -0.4699,0.40252 -0.200025,0.0935 -0.437092,0.1404 -0.7112,0.1404 z m 0,-0.50411 c 0.14605,0 0.271639,-0.0265 0.376061,-0.0801 0.104775,-0.0564 0.183444,-0.13511 0.237066,-0.23283 0.05644,-0.10195 0.08537,-0.22048 0.08537,-0.3556 0,-0.10195 -0.01623,-0.19438 -0.0508,-0.27552 -0.03175,-0.0829 -0.07585,-0.1531 -0.135114,-0.21237 -0.05927,-0.0593 -0.133703,-0.10478 -0.220486,-0.13511 -0.08537,-0.0314 -0.182034,-0.0466 -0.2921,-0.0466 -0.144639,0 -0.268817,0.0289 -0.373592,0.0854 -0.100542,0.0522 -0.180269,0.13088 -0.236714,0.23283 -0.05398,0.0977 -0.08008,0.21485 -0.08008,0.35137 0,0.10054 0.01517,0.19297 0.04692,0.27411 0.03034,0.0829 0.07585,0.15311 0.135114,0.21237 0.05927,0.0564 0.13088,0.10195 0.216253,0.13512 0.08678,0.0318 0.184502,0.0469 0.2921,0.0469 z"
       style="fill:#1f2937;fill-opacity:1;fill-rule:nonzero;stroke:none;stroke-width:0.352778"
       id="path7677" />
    <path
       d="m 45.859818,219.92321 c -0.380295,0 -0.672395,-0.0688 -0.8763,-0.2039 -0.202848,-0.13794 -0.311503,-0.32244 -0.325261,-0.55386 h 0.639233 c 0.01094,0.11571 0.06491,0.2039 0.159808,0.26599 0.09948,0.0617 0.2413,0.0935 0.424392,0.0935 0.164041,0 0.291041,-0.0233 0.380647,-0.0674 0.09349,-0.0455 0.140406,-0.1143 0.140406,-0.20814 0,-0.0702 -0.0194,-0.12277 -0.05503,-0.15699 -0.03457,-0.036 -0.09384,-0.0635 -0.1778,-0.0801 -0.0829,-0.0194 -0.198614,-0.037 -0.347486,-0.0508 -0.195439,-0.0166 -0.360891,-0.0416 -0.499886,-0.0716 -0.137936,-0.0317 -0.250825,-0.072 -0.339019,-0.12277 -0.08678,-0.0511 -0.150284,-0.1143 -0.190148,-0.19015 -0.04022,-0.0772 -0.05927,-0.16968 -0.05927,-0.27975 0,-0.15028 0.04516,-0.27693 0.134761,-0.3817 0.09102,-0.1076 0.220486,-0.19015 0.390172,-0.24942 0.169333,-0.0593 0.372181,-0.0896 0.610306,-0.0896 0.216605,0 0.40393,0.0289 0.562327,0.0854 0.16122,0.0564 0.287867,0.13794 0.381706,0.24518 0.09525,0.1076 0.150283,0.23848 0.165453,0.39441 h -0.618773 c -0.0085,-0.0759 -0.03598,-0.13653 -0.08008,-0.18204 -0.04269,-0.0483 -0.09913,-0.084 -0.169333,-0.10618 -0.07161,-0.0261 -0.153106,-0.0385 -0.246592,-0.0385 -0.14605,0 -0.265994,0.0219 -0.359833,0.0632 -0.08961,0.043 -0.135114,0.11042 -0.135114,0.20426 0,0.0617 0.0194,0.11007 0.05927,0.14323 0.04022,0.0346 0.103364,0.0593 0.190148,0.0772 0.08819,0.0162 0.202847,0.0314 0.343252,0.0455 0.194381,0.0176 0.360892,0.0413 0.500239,0.073 0.140406,0.0275 0.253647,0.0688 0.33902,0.12241 0.08396,0.0511 0.14605,0.11712 0.185914,0.19862 0.03881,0.0825 0.05927,0.18309 0.05927,0.30444 0,0.21484 -0.09772,0.38876 -0.2921,0.52106 -0.192969,0.13088 -0.490714,0.19543 -0.894291,0.19543 z"
       style="fill:#1f2937;fill-opacity:1;fill-rule:nonzero;stroke:none;stroke-width:0.352778"
       id="path7679" />
    <path
       d="m 47.319259,219.88053 v -2.26131 h 0.655814 v 2.26131 z m 0,-2.56575 v -0.52106 h 0.655814 v 0.52106 z"
       style="fill:#1f2937;fill-opacity:1;fill-rule:nonzero;stroke:none;stroke-width:0.352778"
       id="path7681" />
    <path
       d="m 49.264829,219.88053 c -0.121003,0 -0.227189,-0.0194 -0.316795,-0.0593 -0.09102,-0.0399 -0.161219,-0.0991 -0.212372,-0.1778 -0.04798,-0.0825 -0.07161,-0.18309 -0.07161,-0.30445 v -1.22378 h -0.432505 v -0.49601 h 0.432505 v -0.58843 l 0.6477,-0.12665 v 0.71508 h 0.566561 v 0.49601 h -0.566561 v 1.01565 c 0,0.073 0.01658,0.12417 0.05115,0.1531 0.03563,0.0247 0.09066,0.037 0.163689,0.037 h 0.351719 v 0.55951 z"
       style="fill:#1f2937;fill-opacity:1;fill-rule:nonzero;stroke:none;stroke-width:0.352778"
       id="path7683" />
    <path
       d="m 51.369148,219.92321 c -0.201083,0 -0.384528,-0.0261 -0.551039,-0.0773 -0.164042,-0.0536 -0.306211,-0.13088 -0.427214,-0.23284 -0.118533,-0.10054 -0.210961,-0.22295 -0.275872,-0.36794 -0.06174,-0.14323 -0.09208,-0.30868 -0.09208,-0.4946 0,-0.24377 0.05503,-0.45191 0.167922,-0.62688 0.113242,-0.17498 0.270228,-0.30869 0.4699,-0.40252 0.203906,-0.0963 0.439561,-0.14464 0.708378,-0.14464 0.202494,0 0.385939,0.0275 0.549981,0.0811 0.166511,0.054 0.30868,0.13088 0.427213,0.23318 0.121003,0.0991 0.213431,0.22155 0.27552,0.3676 0.06491,0.14499 0.09772,0.30762 0.09772,0.49212 0,0.24236 -0.05644,0.45191 -0.169333,0.62971 -0.110419,0.17498 -0.267406,0.31009 -0.4699,0.40252 -0.201436,0.0935 -0.43815,0.1404 -0.7112,0.1404 z m 0,-0.50411 c 0.14605,0 0.271639,-0.0265 0.376414,-0.0801 0.104422,-0.0564 0.183092,-0.13511 0.236714,-0.23283 0.0568,-0.10195 0.08573,-0.22048 0.08573,-0.3556 0,-0.10195 -0.01799,-0.19438 -0.05115,-0.27552 -0.03175,-0.0829 -0.07726,-0.1531 -0.136525,-0.21237 -0.05927,-0.0593 -0.132292,-0.10478 -0.219075,-0.13511 -0.08537,-0.0314 -0.183092,-0.0466 -0.2921,-0.0466 -0.144639,0 -0.268817,0.0289 -0.373239,0.0854 -0.101953,0.0522 -0.180622,0.13088 -0.237067,0.23283 -0.05398,0.0977 -0.08008,0.21485 -0.08008,0.35137 0,0.10054 0.01517,0.19297 0.04692,0.27411 0.03034,0.0829 0.07585,0.15311 0.135114,0.21237 0.05927,0.0564 0.130881,0.10195 0.216253,0.13512 0.08678,0.0318 0.184503,0.0469 0.2921,0.0469 z"
       style="fill:#1f2937;fill-opacity:1;fill-rule:nonzero;stroke:none;stroke-width:0.352778"
       id="path7685" />
    <path
       d="m 53.02297,219.88053 v -2.26131 h 0.592314 l 0.02505,0.36795 h 0.02611 c 0.04692,-0.12418 0.125236,-0.22049 0.232833,-0.2921 0.109009,-0.073 0.2413,-0.10901 0.392642,-0.10901 0.04022,0 0.07585,0.001 0.106186,0.004 0.03457,0.003 0.06209,0.006 0.08537,0.008 v 0.59267 c -0.03175,-0.008 -0.06456,-0.0138 -0.101953,-0.0166 -0.03422,-0.003 -0.06879,-0.004 -0.106186,-0.004 -0.11818,0 -0.221544,0.0208 -0.30868,0.0635 -0.08819,0.0388 -0.156986,0.10337 -0.207786,0.19438 -0.05115,0.0882 -0.07726,0.19967 -0.08008,0.33902 v 1.11337 z"
       style="fill:#1f2937;fill-opacity:1;fill-rule:nonzero;stroke:none;stroke-width:0.352778"
       id="path7687" />
    <path
       d="m 54.730062,219.88053 v -2.26131 h 0.657578 v 2.26131 z m 0,-2.56575 v -0.52106 h 0.657578 v 0.52106 z"
       style="fill:#1f2937;fill-opacity:1;fill-rule:nonzero;stroke:none;stroke-width:0.352778"
       id="path7689" />
    <path
       d="m 57.037228,219.91933 c -0.271638,0 -0.508705,-0.0469 -0.712611,-0.14075 -0.199672,-0.0924 -0.3556,-0.22613 -0.465666,-0.39829 -0.109009,-0.17216 -0.164042,-0.37747 -0.164042,-0.61736 0,-0.248 0.05503,-0.46038 0.164042,-0.63535 0.112889,-0.1778 0.268464,-0.31257 0.465666,-0.4064 0.201084,-0.0963 0.435328,-0.14464 0.702734,-0.14464 0.285397,0 0.526344,0.0522 0.724958,0.15698 0.199672,0.10478 0.349956,0.25365 0.449086,0.44944 0.09807,0.19403 0.137936,0.42827 0.118533,0.70274 h -1.969205 c 0.0028,0.12135 0.03175,0.22718 0.08819,0.31679 0.05927,0.0882 0.14217,0.15593 0.246592,0.20391 0.103364,0.0455 0.226131,0.0677 0.367947,0.0677 0.164042,0 0.303389,-0.0289 0.4191,-0.084 0.115711,-0.0607 0.188736,-0.13512 0.220486,-0.22472 h 0.623006 c -0.02364,0.14887 -0.09243,0.28116 -0.208139,0.39687 -0.115711,0.11289 -0.265994,0.20109 -0.449439,0.26318 -0.183092,0.0621 -0.389819,0.0938 -0.621242,0.0938 z m -0.703086,-1.36031 -0.02611,-0.0332 h 1.397353 l -0.03457,0.0332 c -0.0025,-0.11006 -0.02893,-0.2039 -0.07973,-0.28398 -0.05115,-0.0783 -0.124178,-0.139 -0.220487,-0.18168 -0.09243,-0.0413 -0.208138,-0.0635 -0.347486,-0.0635 -0.131939,0 -0.248002,0.0222 -0.347133,0.0635 -0.0949,0.0399 -0.173567,0.0991 -0.232833,0.1778 -0.05927,0.0797 -0.09525,0.17497 -0.109009,0.28786 z"
       style="fill:#1f2937;fill-opacity:1;fill-rule:nonzero;stroke:none;stroke-width:0.352778"
       id="path7691" />
    <path
       d="m 59.674595,219.92321 c -0.381705,0 -0.673805,-0.0688 -0.8763,-0.2039 -0.203905,-0.13794 -0.311503,-0.32244 -0.326672,-0.55386 h 0.639233 c 0.0127,0.11571 0.06491,0.2039 0.161572,0.26599 0.09913,0.0617 0.239537,0.0935 0.422981,0.0935 0.164042,0 0.290689,-0.0233 0.381706,-0.0674 0.09208,-0.0455 0.138994,-0.1143 0.138994,-0.20814 0,-0.0702 -0.01799,-0.12277 -0.05503,-0.15699 -0.03316,-0.036 -0.09243,-0.0635 -0.1778,-0.0801 -0.08114,-0.0194 -0.19685,-0.037 -0.347134,-0.0508 -0.19438,-0.0166 -0.361244,-0.0416 -0.498827,-0.0716 -0.139348,-0.0317 -0.252237,-0.072 -0.33902,-0.12277 -0.08819,-0.0511 -0.151694,-0.1143 -0.190147,-0.19015 -0.04022,-0.0772 -0.05927,-0.16968 -0.05927,-0.27975 0,-0.15028 0.0441,-0.27693 0.135114,-0.3817 0.09066,-0.1076 0.220486,-0.19015 0.38982,-0.24942 0.169333,-0.0593 0.37218,-0.0896 0.609247,-0.0896 0.217664,0 0.404989,0.0289 0.563386,0.0854 0.161219,0.0564 0.288219,0.13794 0.380294,0.24518 0.09666,0.1076 0.151695,0.23848 0.165453,0.39441 h -0.617361 c -0.0095,-0.0759 -0.03563,-0.13653 -0.08114,-0.18204 -0.04269,-0.0483 -0.09948,-0.084 -0.169686,-0.10618 -0.0702,-0.0261 -0.151694,-0.0385 -0.245181,-0.0385 -0.14605,0 -0.267405,0.0219 -0.359833,0.0632 -0.09102,0.043 -0.134761,0.11042 -0.134761,0.20426 0,0.0617 0.01905,0.11007 0.05891,0.14323 0.03881,0.0346 0.102305,0.0593 0.1905,0.0772 0.08678,0.0162 0.201083,0.0314 0.3429,0.0455 0.19438,0.0176 0.361244,0.0413 0.498828,0.073 0.142169,0.0275 0.255058,0.0688 0.339019,0.12241 0.08537,0.0511 0.147461,0.11712 0.186267,0.19862 0.03986,0.0825 0.05927,0.18309 0.05927,0.30444 0,0.21484 -0.09666,0.38876 -0.292452,0.52106 -0.191559,0.13088 -0.48895,0.19543 -0.892881,0.19543 z"
       style="fill:#1f2937;fill-opacity:1;fill-rule:nonzero;stroke:none;stroke-width:0.352778"
       id="path7693" />
    <path
       d="m 62.477414,219.88053 -0.663927,-2.26131 h 0.622652 l 0.478367,1.7018 h 0.02469 l 0.445205,-1.7018 h 0.6477 l 0.439561,1.71556 h 0.01799 l 0.482247,-1.71556 h 0.596547 l -0.668161,2.26131 H 64.111827 L 63.69308,218.3523 h -0.02505 l -0.414513,1.52823 z"
       style="fill:#1f2937;fill-opacity:1;fill-rule:nonzero;stroke:none;stroke-width:0.352778"
       id="path7695" />
    <path
       d="m 65.765656,219.88053 v -2.26131 h 0.655814 v 2.26131 z m 0,-2.56575 v -0.52106 h 0.655814 v 0.52106 z"
       style="fill:#1f2937;fill-opacity:1;fill-rule:nonzero;stroke:none;stroke-width:0.352778"
       id="path7697" />
    <path
       d="m 67.711225,219.88053 c -0.121002,0 -0.227188,-0.0194 -0.316794,-0.0593 -0.09102,-0.0399 -0.161219,-0.0991 -0.212372,-0.1778 -0.04798,-0.0825 -0.07161,-0.18309 -0.07161,-0.30445 V 218.1152 H 66.67935 v -0.49601 h 0.431095 v -0.58843 l 0.6477,-0.12665 v 0.71508 h 0.567972 v 0.49601 h -0.567972 v 1.01565 c 0,0.073 0.01658,0.12417 0.05115,0.1531 0.03563,0.0247 0.09102,0.037 0.1651,0.037 h 0.351719 v 0.55951 z"
       style="fill:#1f2937;fill-opacity:1;fill-rule:nonzero;stroke:none;stroke-width:0.352778"
       id="path7699" />
    <path
       d="m 68.591759,219.88053 v -3.08681 h 0.656166 v 1.24037 h 0.03422 c 0.07338,-0.14323 0.187678,-0.25506 0.343253,-0.33373 0.158397,-0.0825 0.329494,-0.12382 0.512586,-0.12382 0.14605,0 0.279753,0.0194 0.398286,0.055 0.121355,0.0374 0.223308,0.0967 0.30868,0.1778 0.08678,0.0825 0.155928,0.19297 0.202495,0.33091 0.04833,0.13476 0.07303,0.30162 0.07303,0.49988 v 1.24037 H 70.46325 v -1.12572 c 0,-0.14746 -0.01799,-0.27022 -0.05503,-0.36935 -0.03316,-0.10055 -0.09102,-0.1778 -0.173567,-0.22896 -0.08149,-0.0494 -0.188736,-0.0755 -0.321028,-0.0755 -0.132292,0 -0.249414,0.03 -0.351719,0.0893 -0.09913,0.0568 -0.176389,0.13512 -0.232834,0.23707 -0.05362,0.0981 -0.07973,0.21378 -0.07973,0.34748 v 1.12572 z"
       style="fill:#1f2937;fill-opacity:1;fill-rule:nonzero;stroke:none;stroke-width:0.352778"
       id="path7701" />
    <path
       d="m 15.647577,224.72699 c -0.143228,0 -0.271287,-0.0162 -0.384175,-0.0494 -0.113242,-0.0346 -0.210961,-0.0829 -0.292453,-0.14464 -0.07973,-0.0621 -0.143228,-0.13229 -0.190147,-0.21237 h -0.02187 l -0.02081,0.37359 h -0.622653 v -3.0868 h 0.655814 v 1.21108 h 0.02611 c 0.0702,-0.1337 0.182034,-0.23706 0.334786,-0.31397 0.154517,-0.0759 0.326672,-0.11465 0.515409,-0.11465 0.169686,0 0.322438,0.0279 0.457552,0.0815 0.139348,0.0536 0.25647,0.13229 0.351367,0.23707 0.09948,0.10477 0.174978,0.2286 0.228953,0.37182 0.05362,0.14217 0.08114,0.30057 0.08114,0.47837 0,0.2413 -0.04692,0.44767 -0.140406,0.623 -0.09243,0.17498 -0.223308,0.30974 -0.388761,0.4064 -0.166511,0.0938 -0.363714,0.139 -0.589844,0.139 z m -0.194028,-0.4946 c 0.132291,0 0.246591,-0.0261 0.3429,-0.0797 0.09913,-0.054 0.174978,-0.13124 0.228953,-0.22896 0.05644,-0.0991 0.08396,-0.22048 0.08396,-0.36512 0,-0.10336 -0.01517,-0.1972 -0.04551,-0.27834 -0.03175,-0.0854 -0.07726,-0.15593 -0.136525,-0.21237 -0.05644,-0.0593 -0.125236,-0.10337 -0.206727,-0.13088 -0.07973,-0.0318 -0.167923,-0.0469 -0.267053,-0.0469 -0.140758,0 -0.263525,0.0279 -0.367947,0.0843 -0.101953,0.0536 -0.179211,0.12806 -0.233186,0.22049 -0.05362,0.0935 -0.08114,0.19826 -0.08114,0.31397 v 0.11853 c 0,0.10901 0.02752,0.21096 0.08114,0.30445 0.05397,0.0896 0.131233,0.16404 0.233186,0.22084 0.104422,0.0536 0.227189,0.0797 0.367947,0.0797 z"
       style="fill:#1f2937;fill-opacity:1;fill-rule:nonzero;stroke:none;stroke-width:0.352778"
       id="path7703" />
    <path
       d="m 17.068565,224.69418 v -2.26166 h 0.657225 v 2.26166 z m 0,-2.5661 v -0.5207 h 0.657225 v 0.5207 z"
       style="fill:#1f2937;fill-opacity:1;fill-rule:nonzero;stroke:none;stroke-width:0.352778"
       id="path7705" />
    <path
       d="m 19.37926,224.73687 c -0.201083,0 -0.384175,-0.0261 -0.551039,-0.0773 -0.164042,-0.0536 -0.305858,-0.13088 -0.427214,-0.23283 -0.118533,-0.10055 -0.210961,-0.22472 -0.275519,-0.36795 -0.06209,-0.14323 -0.09243,-0.30868 -0.09243,-0.49601 0,-0.24271 0.05644,-0.45085 0.168275,-0.62582 0.112889,-0.17498 0.269875,-0.3101 0.471311,-0.40217 0.202494,-0.0967 0.43815,-0.14499 0.706614,-0.14499 0.202847,0 0.385939,0.0279 0.54998,0.0815 0.166864,0.0536 0.308681,0.13088 0.427214,0.23283 0.121356,0.0977 0.213431,0.2219 0.27552,0.36795 0.06491,0.14464 0.09807,0.30727 0.09807,0.49071 0,0.24377 -0.0568,0.45332 -0.169686,0.63112 -0.110067,0.17498 -0.267406,0.31009 -0.4699,0.40217 -0.201083,0.0938 -0.43815,0.14076 -0.7112,0.14076 z m 0,-0.50448 c 0.146403,0 0.271639,-0.0261 0.376414,-0.0797 0.104775,-0.0568 0.183091,-0.13512 0.237066,-0.23319 0.05645,-0.10195 0.08537,-0.22048 0.08537,-0.35666 0,-0.10089 -0.01799,-0.19297 -0.05115,-0.27446 -0.0314,-0.0825 -0.07691,-0.15275 -0.136172,-0.21202 -0.05927,-0.0593 -0.132292,-0.10477 -0.219075,-0.13511 -0.08573,-0.0317 -0.182034,-0.0469 -0.292453,-0.0469 -0.144639,0 -0.268464,0.0289 -0.373239,0.084 -0.101953,0.054 -0.180622,0.13229 -0.237067,0.23319 -0.05362,0.0991 -0.08008,0.21625 -0.08008,0.35136 0,0.10196 0.01517,0.19403 0.04692,0.27552 0.03034,0.0826 0.07585,0.15276 0.135114,0.21202 0.05927,0.0568 0.130881,0.10231 0.216253,0.13512 0.08678,0.0317 0.184855,0.0469 0.2921,0.0469 z"
       style="fill:#1f2937;fill-opacity:1;fill-rule:nonzero;stroke:none;stroke-width:0.352778"
       id="path7707" />
    <path
       d="m 21.033082,224.69418 v -2.26166 h 0.655814 v 2.26166 z m 0,-2.5661 v -0.5207 h 0.655814 v 0.5207 z"
       style="fill:#1f2937;fill-opacity:1;fill-rule:nonzero;stroke:none;stroke-width:0.352778"
       id="path7709" />
    <path
       d="m 22.088593,224.69418 v -2.26166 h 0.635353 l 0.02187,0.41099 h 0.03316 c 0.07585,-0.14358 0.19297,-0.25506 0.351367,-0.33514 0.15875,-0.0783 0.326672,-0.11853 0.504472,-0.11853 0.14605,0 0.279753,0.0194 0.398286,0.0554 0.121356,0.037 0.223309,0.0963 0.308681,0.1778 0.08678,0.0825 0.155575,0.19262 0.202494,0.33056 0.04833,0.13511 0.07303,0.30197 0.07303,0.50023 v 1.24037 h -0.657225 v -1.12607 c 0,-0.14746 -0.01799,-0.26987 -0.05503,-0.36935 -0.03316,-0.10055 -0.09102,-0.1778 -0.17392,-0.2286 -0.08114,-0.0536 -0.188736,-0.0801 -0.321027,-0.0801 -0.132292,0 -0.249414,0.0289 -0.351367,0.0882 -0.09913,0.0568 -0.176389,0.13653 -0.232833,0.23848 -0.05362,0.10054 -0.08008,0.21766 -0.08008,0.35136 v 1.12607 z"
       style="fill:#1f2937;fill-opacity:1;fill-rule:nonzero;stroke:none;stroke-width:0.352778"
       id="path7711" />
    <path
       d="m 25.181043,224.69418 v -1.7653 H 24.77429 v -0.49636 h 0.406753 v -0.17356 c 0,-0.22578 0.06879,-0.39123 0.206728,-0.4946 0.141816,-0.10477 0.344311,-0.15698 0.610305,-0.15698 h 0.392642 v 0.43109 h -0.2921 c -0.08678,0 -0.152753,0.0208 -0.198261,0.0593 -0.04269,0.0402 -0.0635,0.10054 -0.0635,0.18344 v 0.15134 h 0.516819 v 0.49636 h -0.516819 v 1.7653 z"
       style="fill:#1f2937;fill-opacity:1;fill-rule:nonzero;stroke:none;stroke-width:0.352778"
       id="path7713" />
    <path
       d="m 27.749618,224.73687 c -0.199672,0 -0.383117,-0.0261 -0.549981,-0.0773 -0.163688,-0.0536 -0.305858,-0.13088 -0.427213,-0.23283 -0.118181,-0.10055 -0.210609,-0.22472 -0.27552,-0.36795 -0.06209,-0.14323 -0.09349,-0.30868 -0.09349,-0.49601 0,-0.24271 0.05644,-0.45085 0.169333,-0.62582 0.112889,-0.17498 0.270228,-0.3101 0.4699,-0.40217 0.203906,-0.0967 0.439561,-0.14499 0.706967,-0.14499 0.203906,0 0.38735,0.0279 0.551392,0.0815 0.166511,0.0536 0.30868,0.13088 0.426861,0.23283 0.121355,0.0977 0.213783,0.2219 0.275872,0.36795 0.06456,0.14464 0.09631,0.30727 0.09631,0.49071 0,0.24377 -0.05503,0.45332 -0.167922,0.63112 -0.110419,0.17498 -0.267405,0.31009 -0.4699,0.40217 -0.201436,0.0938 -0.438503,0.14076 -0.712611,0.14076 z m 0,-0.50448 c 0.147461,0 0.272697,-0.0261 0.377472,-0.0797 0.104775,-0.0568 0.183445,-0.13512 0.237067,-0.23319 0.05644,-0.10195 0.08396,-0.22048 0.08396,-0.35666 0,-0.10089 -0.01623,-0.19297 -0.0508,-0.27446 -0.03034,-0.0825 -0.07585,-0.15275 -0.135114,-0.21202 -0.05927,-0.0593 -0.132292,-0.10477 -0.220486,-0.13511 -0.08396,-0.0317 -0.181681,-0.0469 -0.2921,-0.0469 -0.143228,0 -0.267406,0.0289 -0.372181,0.084 -0.101952,0.054 -0.180269,0.13229 -0.237066,0.23319 -0.05362,0.0991 -0.07973,0.21625 -0.07973,0.35136 0,0.10196 0.01517,0.19403 0.04551,0.27552 0.03175,0.0826 0.07726,0.15276 0.136525,0.21202 0.05891,0.0568 0.130881,0.10231 0.214842,0.13512 0.08819,0.0317 0.184503,0.0469 0.2921,0.0469 z"
       style="fill:#1f2937;fill-opacity:1;fill-rule:nonzero;stroke:none;stroke-width:0.352778"
       id="path7715" />
    <path
       d="m 29.40344,224.69418 v -2.26166 h 0.592314 l 0.02611,0.36795 h 0.02505 c 0.04798,-0.12382 0.125236,-0.22049 0.232833,-0.2921 0.110067,-0.073 0.2413,-0.10866 0.394053,-0.10866 0.03986,0 0.07444,0.001 0.106186,0.004 0.03316,0.003 0.06209,0.006 0.08396,0.008 v 0.59267 c -0.03034,-0.008 -0.06456,-0.0138 -0.100542,-0.0166 -0.03457,-0.003 -0.0702,-0.004 -0.106186,-0.004 -0.118533,0 -0.221897,0.0208 -0.310091,0.0635 -0.08678,0.0385 -0.155575,0.10337 -0.206728,0.19403 -0.0508,0.0871 -0.07691,0.20003 -0.07973,0.33902 v 1.11372 z"
       style="fill:#1f2937;fill-opacity:1;fill-rule:nonzero;stroke:none;stroke-width:0.352778"
       id="path7717" />
    <path
       d="m 31.111943,224.69418 v -2.26166 h 0.631119 l 0.02505,0.39829 h 0.03422 c 0.07303,-0.14041 0.180622,-0.24941 0.322439,-0.32632 0.140758,-0.0759 0.303389,-0.11465 0.48648,-0.11465 0.197203,0 0.366537,0.0441 0.508706,0.13229 0.140406,0.0868 0.242358,0.21378 0.304447,0.38065 h 0.03704 c 0.08819,-0.1778 0.208139,-0.30763 0.361244,-0.39018 0.151695,-0.0811 0.326673,-0.12276 0.524934,-0.12276 0.19438,0 0.361244,0.0388 0.498827,0.11465 0.14217,0.0769 0.248003,0.19156 0.322439,0.3429 0.07303,0.15311 0.11042,0.3489 0.11042,0.58843 v 1.25836 H 34.62173 v -1.17298 c 0,-0.12665 -0.01482,-0.23672 -0.04516,-0.33056 -0.02893,-0.0963 -0.08008,-0.16968 -0.153105,-0.22048 -0.07303,-0.0536 -0.174978,-0.0801 -0.304447,-0.0801 -0.121356,0 -0.227542,0.0264 -0.318559,0.0801 -0.08678,0.0536 -0.155575,0.12805 -0.206727,0.22048 -0.04798,0.0938 -0.07303,0.20391 -0.07303,0.33056 v 1.17298 h -0.651581 v -1.1564 c 0,-0.13512 -0.01658,-0.25083 -0.05115,-0.34714 -0.03034,-0.0963 -0.08396,-0.16968 -0.159808,-0.22048 -0.07444,-0.0536 -0.170745,-0.0801 -0.2921,-0.0801 -0.126647,0 -0.235656,0.0264 -0.326672,0.0801 -0.08678,0.0536 -0.155575,0.12947 -0.202495,0.22472 -0.04551,0.0935 -0.06879,0.20249 -0.06879,0.32632 v 1.17298 z"
       style="fill:#1f2937;fill-opacity:1;fill-rule:nonzero;stroke:none;stroke-width:0.352778"
       id="path7719" />
    <path
       d="m 36.66149,224.73687 c -0.166864,0 -0.319617,-0.0275 -0.457553,-0.0815 -0.135114,-0.0565 -0.252236,-0.13512 -0.351366,-0.23707 -0.09913,-0.10442 -0.174978,-0.2286 -0.228953,-0.37183 -0.0508,-0.14464 -0.0755,-0.3048 -0.0755,-0.48366 0,-0.23989 0.04516,-0.44661 0.138995,-0.62159 0.09384,-0.17498 0.223308,-0.30868 0.390172,-0.40252 0.169333,-0.0963 0.363714,-0.14464 0.5842,-0.14464 0.148872,0 0.279753,0.0194 0.392642,0.055 0.112889,0.0346 0.20955,0.0829 0.287866,0.145 0.08008,0.0593 0.14217,0.12946 0.187678,0.21201 h 0.0247 l 0.02081,-0.37359 h 0.622653 v 2.26166 H 37.54202 v -0.38594 h -0.02611 c -0.07056,0.12947 -0.183445,0.23425 -0.337609,0.31433 -0.153105,0.0755 -0.325261,0.1143 -0.516819,0.1143 z m 0.198261,-0.50024 c 0.144639,0 0.267406,-0.0275 0.367947,-0.084 0.101953,-0.0568 0.1778,-0.13265 0.228953,-0.22472 0.05362,-0.0938 0.08114,-0.1972 0.08114,-0.31009 v -0.12277 c 0,-0.11289 -0.02752,-0.21343 -0.08114,-0.30445 -0.05115,-0.0896 -0.128411,-0.16263 -0.232833,-0.21625 -0.100895,-0.054 -0.221897,-0.0801 -0.364067,-0.0801 -0.129469,0 -0.243769,0.0261 -0.3429,0.0801 -0.09525,0.0508 -0.172508,0.12665 -0.228953,0.22437 -0.05362,0.0995 -0.07973,0.22048 -0.07973,0.36406 0,0.14182 0.02611,0.26318 0.07973,0.36513 0.05398,0.0977 0.128059,0.17498 0.22472,0.2286 0.09913,0.054 0.214841,0.0801 0.347133,0.0801 z"
       style="fill:#1f2937;fill-opacity:1;fill-rule:nonzero;stroke:none;stroke-width:0.352778"
       id="path7721" />
    <path
       d="m 39.498882,224.69418 c -0.121356,0 -0.227542,-0.0194 -0.318559,-0.0593 -0.0896,-0.0402 -0.159808,-0.0995 -0.210608,-0.1778 -0.04833,-0.0829 -0.07161,-0.18344 -0.07161,-0.30444 v -1.22379 h -0.432858 v -0.49636 h 0.432858 v -0.58808 l 0.6477,-0.127 v 0.71508 h 0.566208 v 0.49636 h -0.566208 v 1.01565 c 0,0.073 0.01623,0.12382 0.0508,0.15275 0.03598,0.025 0.09102,0.0374 0.164042,0.0374 h 0.351366 v 0.5595 z"
       style="fill:#1f2937;fill-opacity:1;fill-rule:nonzero;stroke:none;stroke-width:0.352778"
       id="path7723" />
    <path
       d="m 40.379415,224.69418 v -2.26166 h 0.655814 v 2.26166 z m 0,-2.5661 v -0.5207 h 0.655814 v 0.5207 z"
       style="fill:#1f2937;fill-opacity:1;fill-rule:nonzero;stroke:none;stroke-width:0.352778"
       id="path7725" />
    <path
       d="m 42.65589,224.73263 c -0.203906,0 -0.38735,-0.0275 -0.551392,-0.0811 -0.161219,-0.054 -0.297391,-0.13229 -0.410633,-0.23706 -0.112889,-0.10478 -0.199672,-0.22895 -0.261761,-0.37218 -0.05927,-0.14746 -0.08961,-0.31009 -0.08961,-0.48789 0,-0.23989 0.05539,-0.44521 0.165453,-0.61736 0.112889,-0.17498 0.268817,-0.3101 0.4699,-0.40217 0.202494,-0.0967 0.43815,-0.14499 0.706967,-0.14499 0.242358,0 0.456141,0.0374 0.639233,0.11042 0.183444,0.0744 0.329494,0.17497 0.435681,0.30585 0.107597,0.12665 0.166863,0.27552 0.179211,0.44803 h -0.649111 c -0.0194,-0.0758 -0.05786,-0.14076 -0.1143,-0.19438 -0.0568,-0.0536 -0.127,-0.0953 -0.210962,-0.12276 -0.08255,-0.0289 -0.176388,-0.0427 -0.283986,-0.0427 -0.140405,0 -0.264583,0.0289 -0.367947,0.084 -0.101953,0.0568 -0.179211,0.13511 -0.232833,0.23319 -0.05362,0.0991 -0.08114,0.21484 -0.08114,0.34713 0,0.14464 0.02752,0.26741 0.08114,0.36936 0.05644,0.0977 0.135114,0.17356 0.237066,0.22472 0.100542,0.0494 0.221898,0.0755 0.359834,0.0755 0.104422,0 0.198261,-0.0138 0.283633,-0.0427 0.08431,-0.0303 0.155928,-0.0744 0.215195,-0.13088 0.05927,-0.0564 0.09913,-0.12277 0.118533,-0.19827 h 0.657225 c -0.01517,0.1778 -0.0829,0.33197 -0.203906,0.46426 -0.118533,0.1337 -0.27305,0.23565 -0.466019,0.30586 -0.188736,0.0702 -0.398286,0.10618 -0.625475,0.10618 z"
       style="fill:#1f2937;fill-opacity:1;fill-rule:nonzero;stroke:none;stroke-width:0.352778"
       id="path7727" />
    <path
       d="m 45.316893,224.73687 c -0.381706,0 -0.673806,-0.0692 -0.8763,-0.20391 -0.204259,-0.13793 -0.312914,-0.32244 -0.326673,-0.55421 h 0.639234 c 0.01094,0.11571 0.06491,0.2039 0.161219,0.26599 0.09948,0.0621 0.239889,0.0938 0.423334,0.0938 0.163688,0 0.290688,-0.0236 0.381705,-0.0677 0.09208,-0.0452 0.138994,-0.1143 0.138994,-0.20779 0,-0.0705 -0.01799,-0.12276 -0.05503,-0.15734 -0.03316,-0.0356 -0.09243,-0.0631 -0.1778,-0.0797 -0.08149,-0.0194 -0.197203,-0.0374 -0.347133,-0.0512 -0.194381,-0.0166 -0.361245,-0.0413 -0.499181,-0.0716 -0.138994,-0.0317 -0.251883,-0.0716 -0.338666,-0.12277 -0.08819,-0.0508 -0.151695,-0.1143 -0.191559,-0.19015 -0.03881,-0.0769 -0.05927,-0.16933 -0.05927,-0.27975 0,-0.14993 0.04516,-0.27693 0.136172,-0.3817 0.0896,-0.10725 0.220486,-0.19015 0.388761,-0.24942 0.169333,-0.0593 0.373239,-0.0896 0.610306,-0.0896 0.218016,0 0.405341,0.0289 0.563738,0.0857 0.159809,0.0565 0.287867,0.13759 0.380295,0.24518 0.09666,0.1076 0.151694,0.23848 0.165453,0.39406 H 45.81572 c -0.0081,-0.0773 -0.03457,-0.13794 -0.08008,-0.18204 -0.04269,-0.048 -0.09913,-0.084 -0.169333,-0.10583 -0.0702,-0.0265 -0.153106,-0.0388 -0.245181,-0.0388 -0.147461,0 -0.267406,0.0222 -0.359833,0.0635 -0.09102,0.0427 -0.136525,0.11007 -0.136525,0.20391 0,0.0621 0.02081,0.11042 0.05927,0.14323 0.04022,0.0346 0.103364,0.0593 0.191559,0.0773 0.08678,0.0166 0.201436,0.0317 0.343252,0.0455 0.194381,0.018 0.360892,0.0413 0.498828,0.073 0.140406,0.0275 0.253647,0.0688 0.33902,0.12276 0.08396,0.0508 0.14605,0.11713 0.185913,0.19827 0.04022,0.0829 0.05927,0.18344 0.05927,0.30444 0,0.2152 -0.09772,0.38876 -0.2921,0.52106 -0.191558,0.12946 -0.489303,0.19579 -0.89288,0.19579 z"
       style="fill:#1f2937;fill-opacity:1;fill-rule:nonzero;stroke:none;stroke-width:0.352778"
       id="path7729" />
    <path
       d="m 48.542693,224.69418 c -0.121003,0 -0.227189,-0.0194 -0.316795,-0.0593 -0.09102,-0.0402 -0.161219,-0.0995 -0.212372,-0.1778 -0.04798,-0.0829 -0.07161,-0.18344 -0.07161,-0.30444 v -1.22379 h -0.431094 v -0.49636 h 0.431094 v -0.58808 l 0.6477,-0.127 v 0.71508 h 0.567972 v 0.49636 h -0.567972 v 1.01565 c 0,0.073 0.01658,0.12382 0.05115,0.15275 0.03704,0.025 0.09208,0.0374 0.165453,0.0374 h 0.351366 v 0.5595 z"
       style="fill:#1f2937;fill-opacity:1;fill-rule:nonzero;stroke:none;stroke-width:0.352778"
       id="path7731" />
    <path
       d="m 49.434515,224.69418 v -2.26166 h 0.592314 l 0.02646,0.36795 h 0.02469 c 0.04833,-0.12382 0.125237,-0.22049 0.232834,-0.2921 0.110419,-0.073 0.2413,-0.10866 0.394052,-0.10866 0.04022,0 0.07444,0.001 0.106187,0.004 0.03316,0.003 0.06209,0.006 0.08396,0.008 v 0.59267 c -0.03034,-0.008 -0.06456,-0.0138 -0.101953,-0.0166 -0.03281,-0.003 -0.06879,-0.004 -0.104775,-0.004 -0.118181,0 -0.221544,0.0208 -0.309739,0.0635 -0.08714,0.0385 -0.155928,0.10337 -0.206728,0.19403 -0.05115,0.0871 -0.07867,0.20003 -0.08149,0.33902 v 1.11372 z"
       style="fill:#1f2937;fill-opacity:1;fill-rule:nonzero;stroke:none;stroke-width:0.352778"
       id="path7733" />
    <path
       d="m 52.074704,224.73687 c -0.166864,0 -0.319617,-0.0275 -0.457553,-0.0815 -0.135114,-0.0565 -0.252236,-0.13512 -0.351367,-0.23707 -0.09913,-0.10442 -0.174978,-0.2286 -0.2286,-0.37183 -0.05115,-0.14464 -0.07585,-0.3048 -0.07585,-0.48366 0,-0.23989 0.04692,-0.44661 0.138994,-0.62159 0.09384,-0.17498 0.223309,-0.30868 0.390173,-0.40252 0.169333,-0.0963 0.363713,-0.14464 0.5842,-0.14464 0.148872,0 0.281163,0.0194 0.394052,0.055 0.111831,0.0346 0.208139,0.0829 0.286809,0.145 0.07973,0.0593 0.141816,0.12946 0.187325,0.21201 h 0.02469 l 0.02081,-0.37359 h 0.623006 v 2.26166 h -0.656167 v -0.38594 h -0.02611 c -0.0702,0.12947 -0.183091,0.23425 -0.337608,0.31433 -0.153106,0.0755 -0.325261,0.1143 -0.516819,0.1143 z m 0.198613,-0.50024 c 0.144639,0 0.267053,-0.0275 0.369359,-0.084 0.100541,-0.0568 0.177447,-0.13265 0.227189,-0.22472 0.05362,-0.0938 0.08149,-0.1972 0.08149,-0.31009 v -0.12277 c 0,-0.11289 -0.02787,-0.21343 -0.08149,-0.30445 -0.04974,-0.0896 -0.128059,-0.16263 -0.232834,-0.21625 -0.100541,-0.054 -0.221897,-0.0801 -0.363714,-0.0801 -0.129822,0 -0.244122,0.0261 -0.343252,0.0801 -0.09525,0.0508 -0.172156,0.12665 -0.2286,0.22437 -0.05398,0.0995 -0.08008,0.22048 -0.08008,0.36406 0,0.14182 0.02611,0.26318 0.08008,0.36513 0.05362,0.0977 0.129469,0.17498 0.224366,0.2286 0.09948,0.054 0.215195,0.0801 0.347486,0.0801 z"
       style="fill:#1f2937;fill-opacity:1;fill-rule:nonzero;stroke:none;stroke-width:0.352778"
       id="path7735" />
    <path
       d="m 54.008279,224.69418 v -2.26166 h 0.655813 v 2.26166 z m 0,-2.5661 v -0.5207 h 0.655813 v 0.5207 z"
       style="fill:#1f2937;fill-opacity:1;fill-rule:nonzero;stroke:none;stroke-width:0.352778"
       id="path7737" />
    <path
       d="m 55.06379,224.69418 v -2.26166 h 0.635352 l 0.02187,0.41099 h 0.03316 c 0.07585,-0.14358 0.192969,-0.25506 0.351366,-0.33514 0.158398,-0.0783 0.326673,-0.11853 0.504473,-0.11853 0.14605,0 0.279752,0.0194 0.398286,0.0554 0.121002,0.037 0.222955,0.0963 0.30868,0.1778 0.08678,0.0825 0.155575,0.19262 0.202495,0.33056 0.04798,0.13511 0.07303,0.30197 0.07303,0.50023 v 1.24037 h -0.657578 v -1.12607 c 0,-0.14746 -0.01764,-0.26987 -0.05503,-0.36935 -0.03316,-0.10055 -0.09102,-0.1778 -0.173567,-0.2286 -0.08114,-0.0536 -0.188736,-0.0801 -0.321028,-0.0801 -0.132292,0 -0.249414,0.0289 -0.351367,0.0882 -0.09913,0.0568 -0.176388,0.13653 -0.232833,0.23848 -0.05397,0.10054 -0.08008,0.21766 -0.08008,0.35136 v 1.12607 z"
       style="fill:#1f2937;fill-opacity:1;fill-rule:nonzero;stroke:none;stroke-width:0.352778"
       id="path7739" />
    <path
       d="m 57.987965,224.69418 v -2.26166 h 0.655813 v 2.26166 z m 0,-2.5661 v -0.5207 h 0.655813 v 0.5207 z"
       style="fill:#1f2937;fill-opacity:1;fill-rule:nonzero;stroke:none;stroke-width:0.352778"
       id="path7741" />
    <path
       d="m 59.044887,224.69418 v -2.26166 h 0.635353 l 0.02046,0.41099 h 0.03457 c 0.07585,-0.14358 0.192969,-0.25506 0.351367,-0.33514 0.156986,-0.0783 0.325261,-0.11853 0.503061,-0.11853 0.147461,0 0.279752,0.0194 0.398286,0.0554 0.121355,0.037 0.224719,0.0963 0.30868,0.1778 0.08819,0.0825 0.155575,0.19262 0.203906,0.33056 0.04833,0.13511 0.07161,0.30197 0.07161,0.50023 v 1.24037 h -0.655814 v -1.12607 c 0,-0.14746 -0.0194,-0.26987 -0.05539,-0.36935 -0.03422,-0.10055 -0.09208,-0.1778 -0.173567,-0.2286 -0.08255,-0.0536 -0.188736,-0.0801 -0.322439,-0.0801 -0.132291,0 -0.249414,0.0289 -0.351366,0.0882 -0.09772,0.0568 -0.176389,0.13653 -0.232834,0.23848 -0.05362,0.10054 -0.08008,0.21766 -0.08008,0.35136 v 1.12607 z"
       style="fill:#1f2937;fill-opacity:1;fill-rule:nonzero;stroke:none;stroke-width:0.352778"
       id="path7743" />
    <path
       d="m 63.089484,225.44383 c -0.239889,0 -0.443795,-0.0303 -0.613128,-0.0896 -0.169686,-0.0565 -0.300567,-0.13935 -0.394405,-0.24942 -0.09207,-0.11042 -0.14605,-0.23706 -0.16122,-0.3817 h 0.623006 c 0.01376,0.0593 0.04551,0.11007 0.09384,0.15275 0.04798,0.0455 0.111477,0.0773 0.190147,0.0981 0.07832,0.0219 0.169333,0.0328 0.271286,0.0328 0.129469,0 0.242711,-0.0166 0.337608,-0.0508 0.09666,-0.0303 0.171097,-0.0829 0.22472,-0.15593 0.05362,-0.0716 0.08114,-0.16368 0.08114,-0.27975 v -0.37183 h -0.03034 c -0.06738,0.12665 -0.177448,0.22437 -0.330553,0.29634 -0.148872,0.0702 -0.312914,0.10442 -0.490714,0.10442 -0.161219,0 -0.305858,-0.0247 -0.435328,-0.0755 -0.128058,-0.0512 -0.238478,-0.12417 -0.330905,-0.22048 -0.09349,-0.0952 -0.163689,-0.20814 -0.21202,-0.33761 -0.04833,-0.1337 -0.07161,-0.28116 -0.07161,-0.4452 0,-0.21485 0.04551,-0.40394 0.135114,-0.56762 0.09066,-0.16405 0.214842,-0.28963 0.373239,-0.37642 0.159808,-0.091 0.347486,-0.13652 0.558095,-0.13652 0.187325,0 0.349955,0.0374 0.492125,0.11042 0.143227,0.0702 0.249413,0.16686 0.316794,0.28786 h 0.03457 l 0.0247,-0.3556 h 0.618772 v 2.00801 c 0,0.15981 -0.02752,0.30304 -0.08114,0.42722 -0.05398,0.12382 -0.135114,0.2286 -0.245533,0.31291 -0.107245,0.0882 -0.242359,0.15275 -0.4064,0.19544 -0.16122,0.0441 -0.351367,0.0677 -0.571853,0.0677 z m 0.02611,-1.37265 c 0.12947,0 0.2413,-0.0219 0.334787,-0.0674 0.09243,-0.0483 0.164041,-0.11184 0.215194,-0.19015 0.0508,-0.0829 0.07691,-0.17533 0.07691,-0.27975 v -0.11042 c 0,-0.11007 -0.02611,-0.20532 -0.07691,-0.28787 -0.05115,-0.0843 -0.122767,-0.15028 -0.215194,-0.19861 -0.09102,-0.0483 -0.199673,-0.0716 -0.326673,-0.0716 -0.126647,0 -0.236714,0.0247 -0.330552,0.0759 -0.09243,0.0508 -0.164042,0.12135 -0.214842,0.21096 -0.05115,0.0882 -0.07726,0.19403 -0.07726,0.31821 0,0.12382 0.02611,0.23142 0.07726,0.32102 0.0508,0.091 0.122414,0.15981 0.214842,0.20814 0.09384,0.0483 0.201083,0.0716 0.322438,0.0716 z"
       style="fill:#1f2937;fill-opacity:1;fill-rule:nonzero;stroke:none;stroke-width:0.352778"
       id="path7745" />
    <path
       d="m 65.668995,224.69418 v -2.26166 h 0.631119 l 0.02505,0.39829 h 0.03422 c 0.07303,-0.14041 0.180622,-0.24941 0.321381,-0.32632 0.141816,-0.0759 0.303036,-0.11465 0.487538,-0.11465 0.197203,0 0.366537,0.0441 0.507295,0.13229 0.141817,0.0868 0.242358,0.21378 0.305858,0.38065 h 0.03704 c 0.08819,-0.1778 0.208139,-0.30763 0.359833,-0.39018 0.153106,-0.0811 0.328084,-0.12276 0.524934,-0.12276 0.195791,0 0.362655,0.0388 0.500238,0.11465 0.140759,0.0769 0.248003,0.19156 0.321028,0.3429 0.07444,0.15311 0.11042,0.3489 0.11042,0.58843 v 1.25836 h -0.655814 v -1.17298 c 0,-0.12665 -0.01517,-0.23672 -0.04692,-0.33056 -0.02752,-0.0963 -0.07867,-0.16968 -0.151694,-0.22048 -0.07444,-0.0536 -0.174978,-0.0801 -0.305858,-0.0801 -0.121356,0 -0.226131,0.0264 -0.317148,0.0801 -0.08819,0.0536 -0.156986,0.12805 -0.207786,0.22048 -0.04692,0.0938 -0.07197,0.20391 -0.07197,0.33056 v 1.17298 h -0.651581 v -1.1564 c 0,-0.13512 -0.01658,-0.25083 -0.05115,-0.34714 -0.03034,-0.0963 -0.08396,-0.16968 -0.161219,-0.22048 -0.07303,-0.0536 -0.170745,-0.0801 -0.2921,-0.0801 -0.126647,0 -0.235656,0.0264 -0.325261,0.0801 -0.08819,0.0536 -0.155575,0.12947 -0.203906,0.22472 -0.0441,0.0935 -0.06738,0.20249 -0.06738,0.32632 v 1.17298 z"
       style="fill:#1f2937;fill-opacity:1;fill-rule:nonzero;stroke:none;stroke-width:0.352778"
       id="path7747" />
    <path
       d="m 71.217131,224.73687 c -0.165453,0 -0.318206,-0.0275 -0.456142,-0.0815 -0.136525,-0.0565 -0.253647,-0.13512 -0.351366,-0.23707 -0.09913,-0.10442 -0.174978,-0.2286 -0.228953,-0.37183 -0.0508,-0.14464 -0.07691,-0.3048 -0.07691,-0.48366 0,-0.23989 0.04657,-0.44661 0.140406,-0.62159 0.09243,-0.17498 0.223308,-0.30868 0.388761,-0.40252 0.169333,-0.0963 0.365125,-0.14464 0.5842,-0.14464 0.150283,0 0.281164,0.0194 0.394053,0.055 0.112889,0.0346 0.20955,0.0829 0.287866,0.145 0.07867,0.0593 0.140759,0.12946 0.186267,0.21201 h 0.02611 l 0.02081,-0.37359 h 0.622653 v 2.26166 h -0.657225 v -0.38594 h -0.02469 c -0.07056,0.12947 -0.183445,0.23425 -0.33902,0.31433 -0.151694,0.0755 -0.32385,0.1143 -0.516819,0.1143 z m 0.199672,-0.50024 c 0.143581,0 0.265995,-0.0275 0.367947,-0.084 0.101953,-0.0568 0.1778,-0.13265 0.228953,-0.22472 0.05362,-0.0938 0.07973,-0.1972 0.07973,-0.31009 v -0.12277 c 0,-0.11289 -0.02611,-0.21343 -0.07973,-0.30445 -0.05115,-0.0896 -0.128411,-0.16263 -0.232833,-0.21625 -0.102306,-0.054 -0.223309,-0.0801 -0.364067,-0.0801 -0.129469,0 -0.243769,0.0261 -0.3429,0.0801 -0.09666,0.0508 -0.172508,0.12665 -0.228953,0.22437 -0.05362,0.0995 -0.07973,0.22048 -0.07973,0.36406 0,0.14182 0.0261,0.26318 0.07973,0.36513 0.05398,0.0977 0.128059,0.17498 0.22472,0.2286 0.09913,0.054 0.214841,0.0801 0.347133,0.0801 z"
       style="fill:#1f2937;fill-opacity:1;fill-rule:nonzero;stroke:none;stroke-width:0.352778"
       id="path7749" />
    <path
       d="m 74.055934,224.69418 c -0.122767,0 -0.227542,-0.0194 -0.318559,-0.0593 -0.08925,-0.0402 -0.161219,-0.0995 -0.212019,-0.1778 -0.04692,-0.0829 -0.07161,-0.18344 -0.07161,-0.30444 v -1.22379 h -0.431447 v -0.49636 h 0.431447 v -0.58808 l 0.6477,-0.127 v 0.71508 h 0.567619 v 0.49636 h -0.567619 v 1.01565 c 0,0.073 0.01764,0.12382 0.0508,0.15275 0.03739,0.025 0.09243,0.0374 0.165453,0.0374 h 0.351366 v 0.5595 z"
       style="fill:#1f2937;fill-opacity:1;fill-rule:nonzero;stroke:none;stroke-width:0.352778"
       id="path7751" />
    <path
       d="m 76.154609,224.73263 c -0.271639,0 -0.508353,-0.0469 -0.7112,-0.1404 -0.201084,-0.0924 -0.355248,-0.22613 -0.465667,-0.39829 -0.110067,-0.17251 -0.165453,-0.37782 -0.165453,-0.61736 0,-0.24941 0.05539,-0.46037 0.165453,-0.63535 0.112889,-0.1778 0.268817,-0.31433 0.465667,-0.4064 0.200025,-0.0967 0.434269,-0.14499 0.703086,-0.14499 0.285044,0 0.526344,0.0526 0.723194,0.15734 0.201436,0.10477 0.349956,0.25329 0.449439,0.44908 0.09913,0.19438 0.137583,0.42863 0.118533,0.70274 h -1.969205 c 0.0025,0.12135 0.03281,0.22754 0.0896,0.31714 0.05927,0.0882 0.140406,0.15558 0.245181,0.20391 0.104775,0.0455 0.227189,0.0674 0.367947,0.0674 0.164042,0 0.304447,-0.0289 0.420158,-0.0854 0.115712,-0.0593 0.188737,-0.13371 0.219075,-0.22331 h 0.623006 c -0.02223,0.14887 -0.09243,0.28116 -0.208139,0.39687 -0.115711,0.11324 -0.264583,0.20144 -0.447675,0.26317 -0.183444,0.0621 -0.391583,0.0938 -0.623005,0.0938 z m -0.702734,-1.35995 -0.02505,-0.0332 h 1.397353 l -0.03422,0.0332 c -0.0028,-0.11042 -0.03034,-0.20426 -0.08008,-0.28399 -0.0508,-0.0787 -0.125236,-0.13935 -0.220486,-0.18203 -0.09349,-0.0413 -0.20955,-0.0631 -0.347134,-0.0631 -0.132291,0 -0.248002,0.0219 -0.347486,0.0631 -0.09631,0.0402 -0.173566,0.0995 -0.232833,0.1778 -0.05927,0.0801 -0.09631,0.17497 -0.110067,0.28822 z"
       style="fill:#1f2937;fill-opacity:1;fill-rule:nonzero;stroke:none;stroke-width:0.352778"
       id="path7753" />
    <path
       d="m 77.740697,224.69418 v -2.26166 h 0.592667 l 0.02611,0.36795 h 0.02469 c 0.04833,-0.12382 0.125589,-0.22049 0.232833,-0.2921 0.11042,-0.073 0.2413,-0.10866 0.394406,-0.10866 0.03845,0 0.07444,0.001 0.104775,0.004 0.03422,0.003 0.06315,0.006 0.08537,0.008 v 0.59267 c -0.03175,-0.008 -0.06491,-0.0138 -0.101953,-0.0166 -0.03316,-0.003 -0.06914,-0.004 -0.106186,-0.004 -0.118533,0 -0.220486,0.0208 -0.30868,0.0635 -0.08678,0.0385 -0.156986,0.10337 -0.206728,0.19403 -0.05115,0.0871 -0.07867,0.20003 -0.08149,0.33902 v 1.11372 z"
       style="fill:#1f2937;fill-opacity:1;fill-rule:nonzero;stroke:none;stroke-width:0.352778"
       id="path7755" />
    <path
       d="m 79.449553,224.69418 v -2.26166 h 0.655814 v 2.26166 z m 0,-2.5661 v -0.5207 h 0.655814 v 0.5207 z"
       style="fill:#1f2937;fill-opacity:1;fill-rule:nonzero;stroke:none;stroke-width:0.352778"
       id="path7757" />
    <path
       d="m 81.526356,224.73687 c -0.166864,0 -0.318559,-0.0275 -0.457553,-0.0815 -0.135114,-0.0565 -0.252236,-0.13512 -0.351367,-0.23707 -0.09948,-0.10442 -0.17533,-0.2286 -0.228952,-0.37183 -0.0508,-0.14464 -0.07585,-0.3048 -0.07585,-0.48366 0,-0.23989 0.04692,-0.44661 0.139348,-0.62159 0.09349,-0.17498 0.223308,-0.30868 0.389819,-0.40252 0.169686,-0.0963 0.364067,-0.14464 0.584553,-0.14464 0.14993,0 0.280811,0.0194 0.394052,0.055 0.112889,0.0346 0.208139,0.0829 0.287867,0.145 0.07867,0.0593 0.140758,0.12946 0.185914,0.21201 h 0.02505 l 0.02187,-0.37359 h 0.621595 v 2.26166 h -0.655814 v -0.38594 h -0.02505 c -0.0702,0.12947 -0.183092,0.23425 -0.33902,0.31433 -0.152752,0.0755 -0.325261,0.1143 -0.516466,0.1143 z m 0.198261,-0.50024 c 0.144639,0 0.267405,-0.0275 0.369358,-0.084 0.100542,-0.0568 0.1778,-0.13265 0.2286,-0.22472 0.05397,-0.0938 0.08008,-0.1972 0.08008,-0.31009 v -0.12277 c 0,-0.11289 -0.02611,-0.21343 -0.08008,-0.30445 -0.0508,-0.0896 -0.129469,-0.16263 -0.232833,-0.21625 -0.101953,-0.054 -0.223309,-0.0801 -0.365125,-0.0801 -0.12947,0 -0.24377,0.0261 -0.341842,0.0801 -0.09631,0.0508 -0.172155,0.12665 -0.2286,0.22437 -0.05397,0.0995 -0.08149,0.22048 -0.08149,0.36406 0,0.14182 0.02752,0.26318 0.08149,0.36513 0.05362,0.0977 0.128058,0.17498 0.223308,0.2286 0.09913,0.054 0.214842,0.0801 0.347134,0.0801 z"
       style="fill:#1f2937;fill-opacity:1;fill-rule:nonzero;stroke:none;stroke-width:0.352778"
       id="path7759" />
    <path
       d="m 83.459578,221.60738 h 0.655814 v 3.0868 h -0.655814 z"
       style="fill:#1f2937;fill-opacity:1;fill-rule:nonzero;stroke:none;stroke-width:0.352778"
       id="path7761" />
    <path
       id="path6394"
       style="font-size:12.165px;font-family:'Fredoka One';-inkscape-font-specification:'Fredoka One, Normal';letter-spacing:-0.446111px;fill:url(#linearGradient6415);fill-opacity:1;stroke-width:0.588493;stroke-linejoin:bevel"
       d="m 41.912644,188.57614 c -0.190765,0 -0.368752,0.12061 -0.445615,0.29446 -0.43912,0.88745 -0.878293,1.77499 -1.318059,2.66309 -0.994505,0.14388 -1.98966,0.2833 -2.984161,0.4306 -0.226734,0.036 -0.405508,0.25161 -0.397158,0.48178 -0.0018,0.15971 0.09102,0.30118 0.208132,0.40159 0.693473,0.67827 1.386713,1.35632 2.079971,2.03459 -0.169781,0.99086 -0.344413,1.98199 -0.512487,2.97392 -0.03597,0.2293 0.119429,0.46768 0.343591,0.52784 0.140451,0.0452 0.286703,0.0136 0.413879,-0.0635 0.867117,-0.45412 1.733659,-0.90934 2.600988,-1.36345 0.895802,0.47081 1.788135,0.94604 2.684582,1.41429 0.233367,0.11047 0.538667,-0.01 0.63566,-0.2484 0.08521,-0.17727 0.01023,-0.37204 -0.0133,-0.55446 -0.151373,-0.89237 -0.303798,-1.78538 -0.455168,-2.67775 0.720246,-0.70269 1.443892,-1.40104 2.162204,-2.10522 0.161434,-0.16229 0.178152,-0.44165 0.03683,-0.62235 -0.09378,-0.13211 -0.254981,-0.19124 -0.41149,-0.20302 -0.956815,-0.14045 -1.913368,-0.28106 -2.87019,-0.42173 -0.444905,-0.90158 -0.885094,-1.8045 -1.331718,-2.70437 -0.08199,-0.15736 -0.250077,-0.25624 -0.426498,-0.25795 z m -7.06e-4,1.575 c 0.01326,0.0285 0.02769,0.057 0.04095,0.0853 0.323719,0.65579 0.643745,1.31466 0.97004,1.96874 0.07943,0.15629 0.246814,0.24928 0.418313,0.2617 0.729231,0.10705 1.458514,0.21402 2.187106,0.32107 -0.54617,0.53375 -1.096719,1.06328 -1.641186,1.59853 -0.122893,0.12461 -0.158824,0.31184 -0.117714,0.47905 0.122893,0.72688 0.246457,1.45294 0.370208,2.1796 -0.676561,-0.35541 -1.350349,-0.71615 -2.027763,-1.06899 -0.158224,-0.0803 -0.350517,-0.0516 -0.497819,0.0403 -0.649795,0.34043 -1.299658,0.68149 -1.950314,1.02191 0.129529,-0.75278 0.262653,-1.5053 0.388973,-2.25808 0.02674,-0.17321 -0.05455,-0.34519 -0.184934,-0.45653 -0.526905,-0.51512 -1.053884,-1.0303 -1.58079,-1.54564 0.755354,-0.10941 1.511304,-0.21485 2.265585,-0.3279 0.172353,-0.0276 0.312067,-0.15795 0.377373,-0.31595 0.326927,-0.66072 0.654185,-1.32235 0.981975,-1.98307 z m -8.351954,2.54639 -7.05e-4,0.002 c -0.536113,0 -0.986046,0.0547 -1.369932,0.18766 -0.384739,0.13296 -0.721779,0.36691 -0.902479,0.71482 l -0.0082,0.0167 c -0.122904,0.26441 -0.210238,0.51709 -0.251128,0.76395 v 0.0174 l -0.0048,0.0167 c -0.01838,0.20319 -0.02628,0.47832 -0.02628,0.8455 v 11.18325 c 0,1.7171 0.210954,3.00523 0.724376,3.90745 0.467596,0.83222 1.42948,1.27621 2.714949,1.44364 h 0.0041 c 0.784472,0.0961 1.434362,0.13883 1.963621,0.11293 0.530334,-0.0259 0.948669,-0.0952 1.293163,-0.3337 v -0.005 c 0.299523,-0.20918 0.450646,-0.53241 0.54592,-0.89703 0.09463,-0.36482 0.134775,-0.79455 0.134775,-1.31396 0,-0.48259 -0.03779,-0.88571 -0.134775,-1.23107 -0.09699,-0.34384 -0.260745,-0.65254 -0.555138,-0.84651 -0.182203,-0.12718 -0.359466,-0.22318 -0.581064,-0.26 -0.220098,-0.0561 -0.424229,-0.0611 -0.750309,-0.0611 -0.104697,0 -0.156633,-0.008 -0.182541,-0.0126 -0.01182,-0.0811 -0.0778,-0.37051 -0.0778,-0.78544 v -10.87999 c 0,-0.35798 -0.01168,-0.6297 -0.04675,-0.86222 0,-0.004 -0.0041,-0.007 -0.0041,-0.009 -0.02526,-0.27684 -0.119528,-0.54748 -0.265116,-0.82025 l -0.0041,-0.004 c -0.186553,-0.33635 -0.512166,-0.5694 -0.888563,-0.70321 -0.376174,-0.13382 -0.813001,-0.18699 -1.327273,-0.18699 z m -10.118042,0.47018 c -2.497285,0 -4.708384,0.89671 -6.543239,2.64978 -1.844059,1.74536 -2.783188,3.97988 -2.783188,6.58657 0,2.60433 0.91809,4.88203 2.722113,6.73465 1.801454,1.834 3.981751,2.77978 6.439858,2.77978 2.717166,0 4.844724,-0.71329 6.274711,-2.19359 0.501855,-0.52027 0.797392,-1.13348 0.797392,-1.77835 v -5.16921 c 0,-0.61727 -0.07388,-1.1147 -0.286269,-1.5262 -0.152226,-0.32715 -0.438042,-0.56822 -0.775897,-0.71209 -0.339562,-0.14367 -0.735117,-0.21225 -1.196936,-0.22895 h -4.154164 c -0.519411,0 -0.968654,0.0745 -1.349117,0.26443 -0.320295,0.16058 -0.543621,0.4701 -0.650671,0.81138 l -0.0037,0.0123 -0.0044,0.0133 c -0.07858,0.3143 -0.108845,0.68429 -0.108845,1.13176 0,0.43313 0.03113,0.79458 0.108845,1.10652 v 0.01 c 0.09121,0.34192 0.31872,0.64657 0.619962,0.8322 0.352842,0.21753 0.7642,0.25999 1.292819,0.25999 h 1.361398 v 1.67019 c -0.554528,0.18734 -1.138109,0.3296 -1.829871,0.3296 -1.058733,0 -1.979506,-0.39905 -2.844265,-1.26211 l -0.0044,-0.005 c -0.855552,-0.87225 -1.266202,-1.87505 -1.266202,-3.10528 0,-1.25122 0.398363,-2.18191 1.222869,-2.92206 h 0.0041 c 0.846347,-0.7744 1.76645,-1.14064 2.840171,-1.14064 0.829005,0 1.502095,0.19118 2.072464,0.57186 l 0.0044,0.005 h 0.0041 c 0.686622,0.44148 1.168167,0.71516 1.700211,0.71516 0.773548,0 1.419211,-0.56626 2.068368,-1.44773 v -0.005 c 0.394803,-0.54874 0.632932,-1.07062 0.632932,-1.60501 0,-0.56887 -0.33034,-1.08035 -0.832195,-1.45182 -1.716239,-1.27455 -3.576172,-1.93018 -5.53328,-1.93018 z m 10.116314,0.52204 h 0.0011 c 0.441692,0 0.778648,0.0515 0.997677,0.13034 0.219241,0.0769 0.30693,0.15993 0.355533,0.24771 0.101056,0.19077 0.143827,0.34215 0.152174,0.43742 l 0.0041,0.0167 v 0.0218 c 0.02247,0.13789 0.04368,0.39609 0.04368,0.74144 v 10.88026 c 0,0.59135 -0.02117,0.95416 0.208132,1.33547 l 0.0085,0.008 0.0041,0.009 c 0.234231,0.35219 0.635614,0.434 1.022925,0.434 0.313659,0 0.536219,0.03 0.521018,0.0259 l 0.03415,0.009 0.03104,0.004 c -0.01669,-0.002 0.06444,0.0195 0.185614,0.10474 l 0.0082,0.004 0.0092,0.005 c 0.01584,0.0101 0.084,0.08 0.143309,0.29003 0.05952,0.21067 0.09929,0.54115 0.09929,0.96764 0,0.4676 -0.0374,0.82831 -0.09929,1.0666 -0.06102,0.23423 -0.139746,0.32196 -0.155593,0.33438 0,0 -0.0043,-0.001 -0.0052,0 -0.06509,0.0435 -0.332677,0.13892 -0.7718,0.15968 -0.440838,0.0218 -1.045535,-0.0117 -1.795748,-0.10372 v 0.005 c -1.126607,-0.14731 -1.727867,-0.50281 -1.981363,-0.95434 -0.362052,-0.63332 -0.593689,-1.7882 -0.593689,-3.42159 v -11.1833 c 0,-0.34128 0.0094,-0.58374 0.02184,-0.72847 0.02187,-0.12289 0.0719,-0.28931 0.159681,-0.48178 l 0.0041,-0.005 c 0.03918,-0.0736 0.115341,-0.1531 0.337789,-0.22996 0.226733,-0.0788 0.583011,-0.13034 1.049538,-0.13034 z m -10.116314,0.46505 v 7.1e-4 c 1.739582,0 3.369822,0.56545 4.943686,1.73467 0.343846,0.25499 0.438443,0.44476 0.438443,0.65886 0,0.21817 -0.125672,0.57372 -0.451752,1.02804 -0.56951,0.77098 -1.037968,1.04033 -1.266201,1.04033 -0.06273,0 -0.535306,-0.1532 -1.157702,-0.55036 l -0.0092,-0.005 c -0.743363,-0.49346 -1.628828,-0.7366 -2.613269,-0.7366 -1.30538,0 -2.50335,0.48099 -3.504492,1.39585 -1.024478,0.92 -1.548718,2.18112 -1.548718,3.65565 0,1.46189 0.531887,2.76494 1.553153,3.8027 1.013561,1.01377 2.22622,1.55656 3.5468,1.55656 0.915714,0 1.754702,-0.14966 2.51091,-0.45925 l 0.308446,-0.12557 v -3.38716 H 23.84119 c -0.443405,0 -0.722066,-0.0836 -0.776237,-0.11703 -0.102124,-0.0627 -0.144705,-0.11869 -0.178106,-0.23816 v -0.005 c -0.04689,-0.18885 -0.07779,-0.48279 -0.07779,-0.86325 0,-0.39224 0.03261,-0.68733 0.07779,-0.87553 0.04667,-0.13702 0.08706,-0.18137 0.13887,-0.20813 0.183913,-0.0912 0.489958,-0.16071 0.91067,-0.16071 h 4.115925 c 0.383885,0.0142 0.671976,0.0726 0.849252,0.14706 0.177277,0.0754 0.236994,0.14816 0.272963,0.22588 l 0.0048,0.009 0.0044,0.0133 c 0.09527,0.18071 0.178106,0.54875 0.178106,1.08401 v 5.16853 c 0,0.35798 -0.140577,0.70419 -0.515898,1.09321 -1.201968,1.24436 -3.021896,1.89094 -5.568423,1.89094 -2.210391,0 -4.087384,-0.80642 -5.732544,-2.48156 -1.64259,-1.68691 -2.445398,-3.66731 -2.445398,-6.04406 0,-2.37439 0.814575,-4.2955 2.47986,-5.87108 1.673421,-1.59912 3.596913,-2.37595 5.862543,-2.37681 z m 34.626251,0.1631 c -0.532684,0.001 -0.976161,0.0516 -1.356617,0.17367 -0.379603,0.12226 -0.717695,0.33228 -0.905895,0.66842 v 0.004 l -0.0048,0.005 c -0.128034,0.23766 -0.216874,0.46816 -0.260336,0.70731 l -0.0048,0.0218 v 0.0218 c -0.01845,0.20318 -0.02494,0.47835 -0.02494,0.84618 v 1.8476 l -1.432024,-0.0174 h -0.0041 c -0.503566,0 -1.04792,0.0126 -1.595805,0.0218 v -1.73466 c 0,-0.57209 -0.03009,-0.99625 -0.138871,-1.34503 l -0.0102,-0.0167 c -0.146445,-0.41728 -0.475664,-0.7484 -0.887811,-0.9366 -0.412358,-0.18819 -0.901552,-0.26511 -1.478774,-0.26511 -0.533541,0 -0.97941,0.0511 -1.357302,0.17401 -0.374678,0.12204 -0.701138,0.33875 -0.880985,0.6766 -0.140447,0.23252 -0.249798,0.4632 -0.294114,0.70663 v 0.0218 l -0.0052,0.0215 c -0.01845,0.20405 -0.0266,0.47853 -0.0266,0.8455 v 1.86126 c -1.420139,-0.0552 -1.83582,0.6679 -2.022306,1.28088 -0.103836,0.37467 -0.134771,0.85341 -0.134771,1.51391 0,0.6984 0.09955,1.25632 0.442535,1.6736 l 0.0048,0.008 0.0044,0.005 c 0.310226,0.3522 0.756655,0.56811 1.219112,0.56811 0.169785,0 0.325497,-0.0245 0.489285,-0.0352 v 2.94868 c 0,1.68776 0.479534,3.05687 1.474678,3.98115 0.98444,0.914 2.350209,1.35218 4.002645,1.35218 0.352199,0 0.617029,-0.007 0.81957,-0.0259 h 0.01672 l 0.01775,-0.005 c 0.246645,-0.0411 0.498387,-0.12824 0.762589,-0.25113 l 0.0082,-0.005 h 0.0052 c 0.351123,-0.17557 0.598255,-0.50581 0.736999,-0.88884 0.139802,-0.38303 0.195506,-0.83213 0.195506,-1.3614 0,-0.45839 -0.0482,-0.84918 -0.164462,-1.18874 -0.116254,-0.33871 -0.321296,-0.64039 -0.629175,-0.81446 -0.260989,-0.14879 -0.534572,-0.24326 -0.815471,-0.26852 -0.237659,-0.0383 -0.524401,-0.0566 -0.906579,-0.0566 -0.264202,0 -0.323621,-0.0505 -0.346318,-0.0781 -0.03172,-0.0542 -0.100313,-0.26077 -0.100313,-0.62475 v -2.72791 l 1.635041,0.0693 h 0.0085 c 0.37725,0 0.887229,-0.0356 1.388011,-0.0693 v 2.96232 c 0,1.68777 0.479534,3.05692 1.474678,3.98013 0.984441,0.91486 2.346071,1.35287 3.997872,1.35287 0.352196,0 0.617241,-0.006 0.81957,-0.0256 h 0.02184 l 0.01743,-0.005 c 0.246644,-0.0411 0.498383,-0.12789 0.762585,-0.25079 l 0.0052,-0.005 h 0.0041 c 0.352195,-0.17663 0.598046,-0.50614 0.736995,-0.88917 0.139597,-0.38217 0.195513,-0.83111 0.195513,-1.36037 0,-0.46011 -0.04686,-0.85669 -0.168893,-1.19797 -0.122258,-0.33956 -0.339587,-0.63562 -0.650677,-0.80626 -0.246003,-0.14794 -0.514421,-0.24326 -0.789542,-0.26852 -0.237437,-0.0383 -0.525092,-0.0566 -0.905548,-0.0566 -0.267632,0 -0.325381,-0.0511 -0.347007,-0.0785 -0.03189,-0.0544 -0.09963,-0.26098 -0.09963,-0.62474 V 203.635 l 1.01849,0.0611 h 0.017 c 0.367831,0 0.637706,-0.004 0.841746,-0.0218 l 0.01672,-0.005 h 0.02184 c 0.247502,-0.042 0.495103,-0.12805 0.75952,-0.25181 l 0.0085,-0.005 0.0133,-0.005 c 0.34556,-0.17899 0.577088,-0.5128 0.71004,-0.89327 0.133819,-0.38131 0.187325,-0.82783 0.187325,-1.3573 0,-0.53526 -0.05351,-0.98366 -0.187325,-1.36584 -0.13213,-0.37783 -0.367274,-0.70721 -0.715194,-0.87956 -0.255848,-0.14388 -0.517804,-0.24178 -0.788857,-0.26511 h -0.0048 c -0.224166,-0.0368 -0.486851,-0.0519 -0.841407,-0.0519 -0.248356,0 -0.671827,0.0365 -1.058069,0.0642 v -1.77698 c 0,-0.56951 -0.03334,-0.99438 -0.1648,-1.35321 0,-0.002 -0.0028,-0.002 -0.0048,-0.004 -0.137242,-0.4175 -0.459261,-0.75267 -0.86734,-0.94172 -0.40979,-0.18905 -0.900737,-0.26443 -1.477751,-0.26443 z m -8.106628,0.99256 c 0.487507,0 0.848716,0.0721 1.071375,0.17401 0.219029,0.10042 0.302895,0.19991 0.359632,0.35963 0.04774,0.15458 0.09519,0.52006 0.09519,1.04032 v 2.73645 l 0.503615,-0.008 c 0.730941,-0.0158 1.424185,-0.0259 2.076556,-0.0259 l 2.424588,0.03 v -2.84869 c 0,-0.337 0.0092,-0.5752 0.02184,-0.71993 0.01926,-0.10449 0.06423,-0.23982 0.151148,-0.40297 l 0.0052,-0.005 c 0.03253,-0.0561 0.1102,-0.13534 0.337788,-0.20813 0.230805,-0.0736 0.589654,-0.12147 1.058749,-0.12147 h 0.0011 c 0.488368,0 0.846345,0.0736 1.062168,0.17401 0.216669,0.0996 0.300305,0.19565 0.352118,0.35452 v 0.009 l 0.0041,0.0119 c 0.05267,0.13959 0.112932,0.50355 0.112932,1.0236 v 2.84495 l 0.537739,-0.0525 c 0.6817,-0.0619 1.190064,-0.0911 1.504364,-0.0911 0.346202,0 0.598064,0.0184 0.711747,0.0386 l 0.02184,0.005 0.02522,0.005 c 0.09614,0.008 0.234016,0.0477 0.408083,0.14706 l 0.0133,0.009 0.01672,0.009 c 0.06852,0.0325 0.144067,0.0996 0.22178,0.32142 0.07708,0.22074 0.133753,0.57358 0.133753,1.04033 0,0.45753 -0.05582,0.80542 -0.133753,1.02701 -0.07686,0.21903 -0.153913,0.29823 -0.230991,0.33848 0,0 -0.0025,0.004 -0.0041,0.005 -0.192476,0.0886 -0.357854,0.13976 -0.480751,0.16138 -0.138095,0.0109 -0.374047,0.021 -0.694345,0.0218 L 59.598621,202.588 v 3.76829 c 0,0.47188 0.04966,0.85736 0.269547,1.18772 l 0.0082,0.0133 0.0092,0.009 c 0.261842,0.34877 0.697434,0.48178 1.144047,0.48178 0.362045,0 0.632524,0.0161 0.76805,0.0386 l 0.01743,0.005 h 0.02148 c 0.116258,0.008 0.241836,0.0509 0.389992,0.14296 l 0.0133,0.004 0.01365,0.009 c 0.06188,0.0336 0.125307,0.0945 0.190394,0.27671 0.06616,0.18327 0.112258,0.47765 0.112258,0.86324 0,0.45732 -0.05346,0.80373 -0.133749,1.02361 -0.08029,0.21988 -0.164885,0.29944 -0.251813,0.34291 -0.194832,0.0895 -0.360623,0.13874 -0.485866,0.16036 -0.144738,0.0118 -0.378993,0.0218 -0.701862,0.0218 -1.481155,0 -2.561033,-0.37386 -3.331157,-1.0881 -0.759414,-0.70504 -1.157355,-1.74937 -1.157355,-3.25644 v -4.01627 l -0.53364,0.0437 c -0.734374,0.061 -1.338262,0.0943 -1.816562,0.0952 l -2.653876,-0.11703 v 3.75937 c 0,0.47166 0.05287,0.85805 0.272961,1.18841 l 0.0048,0.0133 0.0092,0.009 c 0.26185,0.34942 0.702727,0.48178 1.14849,0.48178 0.36226,0 0.627228,0.0157 0.763608,0.0382 l 0.02148,0.005 h 0.02113 c 0.117976,0.008 0.260131,0.0552 0.42992,0.15218 0.05267,0.0291 0.118611,0.0919 0.182199,0.27773 0.06359,0.18478 0.108504,0.47849 0.108504,0.86666 0,0.45646 -0.05415,0.80351 -0.134433,1.02361 -0.08029,0.22073 -0.16467,0.2991 -0.251806,0.34257 -0.193125,0.0886 -0.356962,0.13805 -0.481782,0.15968 -0.143661,0.0126 -0.379694,0.0229 -0.706631,0.0229 -1.481155,0 -2.559967,-0.373 -3.329457,-1.0881 -0.759418,-0.70503 -1.158377,-1.74971 -1.158377,-3.25678 v -4.05052 l -0.568445,0.0829 c -0.286897,0.0426 -0.588194,0.0641 -0.909984,0.0641 -0.192482,0 -0.312822,-0.0519 -0.468474,-0.22485 -0.09442,-0.11882 -0.216666,-0.46006 -0.216666,-1.04134 0,-0.62218 0.04697,-1.06351 0.09963,-1.25256 l 0.0052,-0.005 v -0.005 c 0.06273,-0.23744 0.141298,-0.35115 0.172984,-0.38113 0.153938,-0.12225 0.333746,-0.19073 0.611435,-0.19073 l 1.274392,0.16036 v -2.97903 c 0,-0.33699 0.01027,-0.57524 0.02184,-0.72062 0.0176,-0.0912 0.06524,-0.22258 0.164796,-0.38487 l 0.0092,-0.0137 0.0082,-0.0174 c 0.02508,-0.0484 0.09148,-0.12613 0.316297,-0.19892 0.225019,-0.0737 0.584535,-0.12147 1.053634,-0.12147 z m 21.833208,3.12712 c -0.481729,0 -0.978295,0.16808 -1.509476,0.45926 -0.399729,0.21903 -0.629525,0.38948 -0.853691,0.57253 -0.0285,-0.0492 -0.02018,-0.10938 -0.05187,-0.15627 -0.401444,-0.60634 -1.169427,-0.75917 -2.168003,-0.75917 -0.536106,0 -0.986081,0.049 -1.370612,0.1822 -0.383882,0.13296 -0.721826,0.3669 -0.901453,0.71482 v 0.0102 c -0.127177,0.2535 -0.219273,0.50109 -0.261021,0.7503 v 0.0174 l -0.0044,0.0167 c -0.01926,0.2034 -0.0266,0.47866 -0.0266,0.84585 v 8.94632 l 0.0052,0.0164 c 0.03683,0.53932 0.218987,1.02454 0.589594,1.34911 l 0.0082,0.005 0.0052,0.008 c 0.471671,0.38217 1.12322,0.50771 1.933596,0.50771 0.526905,0 0.971889,-0.0509 1.35321,-0.1781 0.380456,-0.12718 0.714311,-0.34714 0.906571,-0.6807 l 0.0044,-0.009 0.0048,-0.005 c 0.143873,-0.26849 0.239208,-0.52273 0.265116,-0.78886 0.03683,-0.23402 0.05186,-0.5116 0.05186,-0.87621 v -4.93447 c 0,-0.27941 0.09198,-0.47259 0.355537,-0.69333 0.303593,-0.24022 0.583522,-0.34291 0.888834,-0.34291 0.374674,0 0.638168,0.0625 0.789541,0.13785 h 0.0052 l 0.0082,0.005 c 0.326933,0.15394 0.677587,0.23407 1.03214,0.23407 0.737796,0 1.380973,-0.45914 1.734668,-1.16589 0.322869,-0.64466 0.499184,-1.26617 0.499184,-1.86501 0,-0.55945 -0.114572,-1.04045 -0.434008,-1.39586 -0.246006,-0.30189 -0.569811,-0.53271 -0.945134,-0.65068 -0.310448,-0.0978 -0.602093,-0.16209 -0.880643,-0.19892 -0.29439,-0.0552 -0.635624,-0.0788 -1.032136,-0.0788 z m -27.368874,0.34393 c -0.250077,0.003 -0.479403,0.24466 -0.508737,0.49816 -0.0158,0.33528 -0.04416,0.6886 -0.243275,0.97379 -0.434841,0.6438 -1.122225,1.04608 -1.763671,1.45352 -0.670782,-0.42906 -1.409315,-0.84982 -1.823388,-1.55656 -0.169566,-0.2777 -0.153896,-0.60898 -0.194141,-0.9175 -0.05931,-0.24343 -0.272319,-0.47986 -0.542519,-0.44731 -0.377243,0.0552 -0.520287,0.49585 -0.466767,0.82877 0.04861,1.00029 0.647224,1.89738 1.431688,2.48874 0.137242,0.11133 0.281785,0.21163 0.42309,0.31868 -0.702465,0.47103 -1.380765,1.06315 -1.678372,1.87866 -0.372321,0.94419 -0.154537,2.06219 0.492697,2.83403 0.321155,0.40572 0.751692,0.72616 1.185675,1.02975 -0.589417,0.41642 -1.158169,0.90234 -1.490024,1.5378 -0.263563,0.50271 -0.426794,1.08801 -0.343933,1.65688 0.06016,0.31344 0.436802,0.57783 0.731192,0.37123 0.268485,-0.16808 0.288339,-0.50351 0.294118,-0.78784 0.07023,-0.65066 0.605518,-1.11038 1.0956,-1.48014 0.283687,-0.21153 0.58577,-0.3956 0.885084,-0.5838 0.670783,0.42907 1.408967,0.85051 1.82304,1.55725 0.169784,0.2777 0.153895,0.60898 0.194147,0.9175 0.05695,0.31623 0.434753,0.58277 0.730857,0.37873 0.34877,-0.23251 0.302052,-0.70167 0.245322,-1.06114 -0.104694,-0.65665 -0.433338,-1.25552 -0.88167,-1.72205 -0.281756,-0.29696 -0.609649,-0.54441 -0.940011,-0.78442 0.399729,-0.2794 0.801066,-0.57879 1.100374,-0.92671 0.675068,-0.74443 0.948605,-1.8458 0.623383,-2.80605 -0.265275,-0.8564 -0.951167,-1.4913 -1.676333,-1.97624 -0.09014,-0.0878 0.206646,-0.17955 0.270235,-0.26819 0.765196,-0.5603 1.393588,-1.38026 1.513917,-2.34201 0.05437,-0.34706 0.07017,-0.80114 -0.277738,-1.00518 -0.06873,-0.0409 -0.140473,-0.0592 -0.20984,-0.0583 z m 27.368874,0.64044 c 0.355406,0 0.643325,0.0259 0.849937,0.0645 h 0.0133 l 0.0133,0.005 c 0.214104,0.0267 0.462728,0.0832 0.736992,0.16923 0.214104,0.0677 0.361297,0.16869 0.489969,0.32927 l 0.0266,0.0269 c 0.07622,0.0812 0.173333,0.31099 0.173333,0.74519 0,0.40379 -0.122008,0.87715 -0.394775,1.42246 -0.24172,0.48345 -0.459194,0.62066 -0.84993,0.62066 -0.205543,0 -0.400579,-0.0412 -0.602908,-0.13478 -0.349631,-0.17578 -0.75939,-0.23918 -1.231057,-0.23918 -0.539323,0 -1.057744,0.19833 -1.504361,0.55138 l -0.0102,0.01 c -0.448328,0.3706 -0.71925,0.89832 -0.71925,1.46205 v 4.93446 c 0,0.34621 -0.01591,0.60356 -0.03924,0.74144 l -0.0041,0.0167 v 0.0177 c -0.0067,0.0713 -0.05195,0.22177 -0.148086,0.4074 h -0.0044 c -0.04347,0.0737 -0.132076,0.16317 -0.360306,0.23918 -0.229087,0.0762 -0.581116,0.12522 -1.041012,0.12522 -0.68919,0 -1.11247,-0.14135 -1.300663,-0.29036 -0.126961,-0.1154 -0.225859,-0.29642 -0.251121,-0.65955 v -8.89375 c 0,-0.34021 0.0092,-0.58374 0.02184,-0.72847 0.02187,-0.12375 0.07053,-0.27498 0.16002,-0.45483 0.0394,-0.0754 0.11618,-0.15561 0.342914,-0.2344 0.226515,-0.0786 0.582626,-0.13444 1.048515,-0.13444 0.877387,0 1.278883,0.20839 1.349114,0.3163 l 0.0052,0.005 0.0052,0.008 c 0.125459,0.18327 0.106162,0.34731 0.168893,0.4944 v 1.53985 l 0.897367,-1.25358 c 0.05866,-0.082 0.154499,-0.20055 0.277393,-0.33779 l 0.0052,-0.005 c 0.07601,-0.0769 0.378075,-0.29007 0.844814,-0.54592 0.440627,-0.24172 0.793503,-0.33779 1.031798,-0.33779 z m -31.559863,0.0109 c 0.02335,0.22909 0.04256,0.41298 0.119422,0.54423 h 3.113811 c 0.07365,-0.14881 0.105622,-0.33441 0.121465,-0.54423 z m 0.465056,0.99256 c 0.193122,0.19827 0.421605,0.37564 0.667393,0.54457 h 1.086389 c 0.244288,-0.16893 0.473241,-0.34545 0.668077,-0.54457 z m 1.21025,2.71973 c 0.02353,0.0152 0.04746,0.0304 0.07165,0.0454 0.647446,0.40894 1.362374,0.80183 1.771523,1.47604 0.275978,0.50764 0.16891,1.1807 -0.242595,1.58557 -0.446617,0.501 -1.038564,0.83569 -1.600578,1.18875 -0.663934,-0.42243 -1.402005,-0.81638 -1.831918,-1.50129 -0.290964,-0.50935 -0.186164,-1.1971 0.231334,-1.60774 0.447259,-0.49929 1.037706,-0.83451 1.600584,-1.18671 z m -0.58039,0.74723 c -0.248359,0.16722 -0.480903,0.34357 -0.680014,0.54354 h 2.519087 c -0.195689,-0.19912 -0.43011,-0.37547 -0.681037,-0.54354 z m -1.056361,1.12802 c -0.04689,0.17899 -0.05029,0.36985 -0.0052,0.54456 h 3.279295 c 0.04668,-0.17899 0.05013,-0.36964 0.0041,-0.54456 z m 0.378735,1.12904 c 0.196543,0.1989 0.430795,0.37525 0.681722,0.54353 h 1.157358 c 0.249217,-0.16742 0.481073,-0.34378 0.681041,-0.54353 z m 33.721724,1.20001 c -0.578312,0 -1.092436,0.20877 -1.542239,0.62645 -0.449795,0.41766 -0.674553,0.94777 -0.674553,1.59034 0,0.42838 0.112543,0.81397 0.337446,1.15668 0.230255,0.33734 0.511119,0.59441 0.843111,0.77111 0.331992,0.17135 0.674969,0.25693 1.028386,0.25693 0.353416,0 0.693215,-0.0803 1.019852,-0.24089 0.331996,-0.166 0.613202,-0.42056 0.843453,-0.76327 0.230261,-0.34806 0.345295,-0.74431 0.345295,-1.18875 0,-0.64257 -0.22226,-1.16983 -0.666707,-1.58215 -0.444444,-0.41768 -0.955739,-0.62645 -1.534044,-0.62645 z m 4.701423,0.0559 c -0.123154,0 -0.267666,0.0458 -0.433662,0.13682 -0.166,0.091 -0.275714,0.16312 -0.329265,0.21667 -0.04819,0.0536 -0.08582,0.099 -0.112596,0.13648 0,-0.091 -0.02949,-0.1791 -0.08837,-0.26477 -0.08032,-0.12316 -0.280935,-0.18494 -0.602224,-0.18494 -0.342702,0 -0.551479,0.0724 -0.626441,0.21701 -0.03749,0.075 -0.06163,0.14456 -0.07234,0.20882 -0.0054,0.0589 -0.0082,0.1498 -0.0082,0.27296 v 2.81936 0.23303 c 0.01072,0.1553 0.059,0.27034 0.144667,0.3453 0.112452,0.091 0.297089,0.13648 0.554119,0.13648 0.337351,0 0.546128,-0.0696 0.626449,-0.20881 0.04283,-0.0803 0.06698,-0.14992 0.07233,-0.20882 0.01073,-0.0643 0.01602,-0.15799 0.01602,-0.28115 v -1.68691 c 0,-0.14458 0.06177,-0.26744 0.184937,-0.36918 0.12851,-0.10173 0.264862,-0.15286 0.409444,-0.15286 0.144572,0 0.259955,0.0217 0.345638,0.0645 0.09103,0.0428 0.184418,0.0641 0.280808,0.0641 0.192771,0 0.34012,-0.1019 0.441861,-0.30538 0.101737,-0.20348 0.152513,-0.39061 0.152513,-0.56196 0,-0.17135 -0.03482,-0.29455 -0.104408,-0.36952 -0.06426,-0.0803 -0.146999,-0.13676 -0.248737,-0.1689 -0.101741,-0.0321 -0.195478,-0.0534 -0.28115,-0.0641 -0.08568,-0.0161 -0.192899,-0.0242 -0.321416,-0.0242 z m 4.171206,0.0242 c -0.208834,0 -0.361167,0.0401 -0.457556,0.12044 -0.09103,0.075 -0.144639,0.18752 -0.160705,0.33745 -0.03214,-0.0482 -0.07758,-0.099 -0.136482,-0.15252 -0.05354,-0.0589 -0.155438,-0.12067 -0.305375,-0.18493 -0.149931,-0.0696 -0.315751,-0.10441 -0.497812,-0.10441 -0.465868,0 -0.894412,0.20629 -1.285314,0.6186 -0.390892,0.41232 -0.586183,0.89164 -0.586183,1.43783 0,0.54619 0.192797,1.02517 0.578334,1.43748 0.390902,0.40696 0.808453,0.61042 1.252897,0.61042 0.444447,0 0.768265,-0.13386 0.971747,-0.4016 v 0.24123 c 0,0.2249 -0.06426,0.41769 -0.192779,0.57834 -0.128513,0.16065 -0.294333,0.24089 -0.497818,0.24089 -0.299861,0 -0.578231,-0.0991 -0.835262,-0.29719 -0.08032,-0.0643 -0.158072,-0.0965 -0.233041,-0.0965 -0.07496,0 -0.142064,0.0216 -0.200971,0.0645 -0.05354,0.0428 -0.130954,0.12025 -0.232695,0.2327 -0.160641,0.16064 -0.241233,0.34562 -0.241233,0.55446 0,0.16064 0.184975,0.33994 0.554453,0.53807 0.369479,0.19813 0.757566,0.29719 1.164527,0.29719 0.535478,0 1.017295,-0.1903 1.445673,-0.57049 0.428381,-0.37483 0.642828,-0.87014 0.642828,-1.48594 v -3.32501 c 0,-0.12317 -0.0054,-0.21441 -0.01602,-0.27331 -0.0054,-0.0589 -0.02949,-0.12566 -0.07233,-0.20063 -0.03748,-0.0803 -0.104588,-0.13676 -0.200974,-0.16889 -0.09638,-0.0321 -0.249061,-0.0481 -0.457892,-0.0481 z m -8.880478,1.33342 c 0.192772,0 0.372081,0.0643 0.538078,0.19277 0.165996,0.12852 0.249075,0.32381 0.249075,0.58619 0,0.26238 -0.08841,0.46051 -0.265113,0.59437 -0.17671,0.13387 -0.353518,0.20098 -0.530232,0.20098 -0.176703,0 -0.350689,-0.0643 -0.52204,-0.19278 -0.171348,-0.13387 -0.256925,-0.32951 -0.256925,-0.58654 0,-0.26237 0.08274,-0.46049 0.24874,-0.59437 0.165996,-0.13386 0.345648,-0.20062 0.538417,-0.20062 z m 7.523173,0.0481 c 0.208837,0 0.374999,0.0749 0.49815,0.22485 0.123169,0.14458 0.184595,0.30258 0.184595,0.47393 0,0.16601 -0.06426,0.32117 -0.192776,0.46574 -0.128517,0.13923 -0.291842,0.20916 -0.489969,0.20916 -0.192769,0 -0.358592,-0.0699 -0.497816,-0.20916 -0.133865,-0.13922 -0.20097,-0.29439 -0.20097,-0.46574 0,-0.1767 0.06427,-0.3372 0.192782,-0.48177 0.128517,-0.14458 0.29717,-0.21701 0.506004,-0.21701 z m -40.621542,0.86767 c -0.01757,0.0126 -0.035,0.0249 -0.05255,0.0375 -0.209819,0.15887 -0.412493,0.32616 -0.577999,0.50601 h 2.543327 c -0.182414,-0.19912 -0.400572,-0.37632 -0.637367,-0.54354 z m 29.941195,0.506 c -0.303947,0.005 -0.494722,0.0853 -0.572534,0.24089 -0.04284,0.0803 -0.06947,0.15241 -0.08019,0.21667 -0.0054,0.0643 -0.0082,0.15799 -0.0082,0.28115 v 0.0321 c 0,0.28381 0.05078,0.4766 0.152513,0.57834 0.107097,0.10175 0.321547,0.15286 0.642828,0.15286 0.326637,0 0.530088,-0.0778 0.610412,-0.23304 0.04819,-0.0857 0.07483,-0.15811 0.08019,-0.21701 0.01073,-0.0643 0.01602,-0.16048 0.01602,-0.289 v -0.0321 c 0,-0.2838 -0.04545,-0.47127 -0.136479,-0.5623 -0.123162,-0.11245 -0.34792,-0.16856 -0.674557,-0.16856 -0.01002,0 -0.02018,-1.5e-4 -0.03002,0 z m -30.906459,0.55617 c -0.02762,0.0751 -0.04726,0.15292 -0.05561,0.23406 -0.0025,0.0927 -0.006,0.19814 -0.02184,0.30947 h 3.375519 c -0.02441,-0.21667 -0.036,-0.40051 -0.07882,-0.54353 z" />
    <path
       d="m 80.247416,195.04207 c -0.562021,0 -1.021912,0.45989 -1.021912,1.0219 v 1.49636 l 1.132392,-0.45175 c 0.0084,-0.21239 0.155434,-0.38881 0.352841,-0.44062 l 0.261846,-1.62589 z m 1.117399,0 -0.27105,1.6869 c 0.129745,0.0852 0.215816,0.23166 0.215816,0.39802 0,0.009 -0.0011,0.0184 -0.0018,0.0276 l 1.459537,0.81787 c 0.08093,-0.0634 0.182202,-0.10191 0.293536,-0.10191 0.263345,0 0.476588,0.21324 0.476588,0.47573 0,0.26356 -0.213243,0.47681 -0.476588,0.47681 -0.262703,0 -0.475954,-0.21325 -0.475954,-0.47681 0,-0.01 0.0011,-0.0208 0.0018,-0.0308 l -1.456105,-0.81637 c -0.08115,0.0653 -0.184774,0.10469 -0.297818,0.10469 -0.128676,0 -0.245787,-0.0518 -0.331862,-0.13552 l -1.276261,0.50935 v 0.93412 c 0,0.56203 0.459891,1.02127 1.021912,1.02127 h 2.846913 c 0.562878,0 1.021913,-0.45924 1.021913,-1.02127 v -2.84777 c 0,-0.56202 -0.459035,-1.02191 -1.021913,-1.02191 z"
       style="fill:#e30613;fill-opacity:1;fill-rule:nonzero;stroke:none;stroke-width:0.214102"
       id="path6384" />
    <path
       d="m 80.972583,195.04292 -0.261846,1.62504 c -0.197407,0.0527 -0.344495,0.22823 -0.352841,0.44062 l -1.132392,0.4524 h -0.0011 v 0.41664 l 1.276273,-0.50935 c 0.08607,0.0837 0.203186,0.13552 0.331861,0.13552 0.113045,0 0.216669,-0.0394 0.297815,-0.10469 l 1.456108,0.81637 c -0.0011,0.0109 -0.0018,0.021 -0.0018,0.0317 0,0.2627 0.213248,0.47594 0.476804,0.47594 0.262488,0 0.475735,-0.21324 0.475735,-0.47594 0,-0.26335 -0.213247,-0.4766 -0.475735,-0.4766 -0.111333,0 -0.213455,0.0385 -0.294389,0.10191 l -1.458683,-0.81786 c 0,-0.009 0.0011,-0.0176 0.0011,-0.0268 0,-0.16721 -0.08607,-0.31366 -0.215815,-0.39887 l 0.271053,-1.68605 z"
       style="fill:#ffffff;fill-opacity:1;fill-rule:nonzero;stroke:none;stroke-width:0.214102"
       id="path6386" />
  </g>
</svg>
