<?xml version="1.0" encoding="UTF-8" standalone="no"?>
<!-- Created with Inkscape (http://www.inkscape.org/) -->

<svg
   width="110.86711mm"
   height="58.941383mm"
   viewBox="0 0 110.86711 58.941383"
   version="1.1"
   id="svg21582"
   inkscape:version="1.2.2 (1:1.2.2+202212051552+b0a8486541)"
   sodipodi:docname="logo-vertical.svg"
   xmlns:inkscape="http://www.inkscape.org/namespaces/inkscape"
   xmlns:sodipodi="http://sodipodi.sourceforge.net/DTD/sodipodi-0.dtd"
   xmlns:xlink="http://www.w3.org/1999/xlink"
   xmlns="http://www.w3.org/2000/svg"
   xmlns:svg="http://www.w3.org/2000/svg">
  <sodipodi:namedview
     id="namedview21584"
     pagecolor="#ffffff"
     bordercolor="#000000"
     borderopacity="0.25"
     inkscape:showpageshadow="2"
     inkscape:pageopacity="0.0"
     inkscape:pagecheckerboard="0"
     inkscape:deskcolor="#d1d1d1"
     inkscape:document-units="mm"
     showgrid="false"
     inkscape:zoom="1.6053171"
     inkscape:cx="-9.9668784"
     inkscape:cy="170.37133"
     inkscape:window-width="2506"
     inkscape:window-height="1376"
     inkscape:window-x="54"
     inkscape:window-y="27"
     inkscape:window-maximized="1"
     inkscape:current-layer="layer1" />
  <defs
     id="defs21579">
    <linearGradient
       id="linearGradient8740">
      <stop
         id="stop8738"
         offset="0"
         style="stop-color:#000000;stop-opacity:1;" />
      <stop
         id="stop8736"
         offset="0.18261695"
         style="stop-color:#3a86ff;stop-opacity:1" />
      <stop
         style="stop-color:#8338ec;stop-opacity:1"
         offset="0.38739288"
         id="stop8734" />
      <stop
         id="stop8732"
         offset="0.59400356"
         style="stop-color:#ff006e;stop-opacity:1" />
      <stop
         style="stop-color:#fb5607;stop-opacity:1"
         offset="0.74514398"
         id="stop8730" />
      <stop
         id="stop8728"
         offset="1"
         style="stop-color:#ffbe0b;stop-opacity:1" />
    </linearGradient>
    <radialGradient
       fx="0"
       fy="0"
       cx="0"
       cy="0"
       r="1"
       gradientUnits="userSpaceOnUse"
       gradientTransform="matrix(136.52995,0,0,136.53076,86.62188,160.54361)"
       spreadMethod="pad"
       id="radialGradient4071-7">
      <stop
         style="stop-opacity:1;stop-color:#ffffff"
         offset="0"
         id="stop4061-0" />
      <stop
         style="stop-opacity:1;stop-color:#ffffff"
         offset="0.00205545"
         id="stop4063-9" />
      <stop
         style="stop-opacity:1;stop-color:#ffffff"
         offset="0.032588"
         id="stop4065-3" />
      <stop
         style="stop-opacity:1;stop-color:#ffffff"
         offset="0.08358642"
         id="stop4067-6" />
      <stop
         style="stop-opacity:1;stop-color:#ff0000"
         offset="1"
         id="stop4069-0" />
    </radialGradient>
    <radialGradient
       fx="0"
       fy="0"
       cx="0"
       cy="0"
       r="1"
       gradientUnits="userSpaceOnUse"
       gradientTransform="matrix(139.52888,0,0,139.52971,98.042976,160.53586)"
       spreadMethod="pad"
       id="radialGradient4045-6">
      <stop
         style="stop-opacity:1;stop-color:#ffffff"
         offset="0"
         id="stop4037-2" />
      <stop
         style="stop-opacity:1;stop-color:#ff0000"
         offset="0.96810947"
         id="stop4039-9" />
      <stop
         style="stop-opacity:1;stop-color:#ff0000"
         offset="0.999999"
         id="stop4041-1" />
      <stop
         style="stop-opacity:1;stop-color:#ff0000"
         offset="1"
         id="stop4043-2" />
    </radialGradient>
    <linearGradient
       inkscape:collect="always"
       xlink:href="#linearGradient8740"
       id="linearGradient1967"
       gradientUnits="userSpaceOnUse"
       gradientTransform="matrix(0.14945655,0,0,0.14945655,419.84172,164.48616)"
       x1="-2747.7346"
       y1="-584.57153"
       x2="-2075.5229"
       y2="-584.57153" />
    <radialGradient
       inkscape:collect="always"
       xlink:href="#radialGradient4071-7-6"
       id="radialGradient1969"
       gradientUnits="userSpaceOnUse"
       gradientTransform="matrix(4.312769,0,0,-4.3127945,114.27186,70.778859)"
       cx="0"
       cy="0"
       fx="0"
       fy="0"
       r="1"
       spreadMethod="pad" />
    <radialGradient
       fx="0"
       fy="0"
       cx="0"
       cy="0"
       r="1"
       gradientUnits="userSpaceOnUse"
       gradientTransform="matrix(136.52995,0,0,136.53076,86.62188,160.54361)"
       spreadMethod="pad"
       id="radialGradient4071-7-6">
      <stop
         style="stop-opacity:1;stop-color:#ffffff"
         offset="0"
         id="stop4061-0-2" />
      <stop
         style="stop-opacity:1;stop-color:#ffffff"
         offset="0.00205545"
         id="stop4063-9-9" />
      <stop
         style="stop-opacity:1;stop-color:#ffffff"
         offset="0.032588"
         id="stop4065-3-1" />
      <stop
         style="stop-opacity:1;stop-color:#ffffff"
         offset="0.08358642"
         id="stop4067-6-2" />
      <stop
         style="stop-opacity:1;stop-color:#ff0000"
         offset="1"
         id="stop4069-0-7" />
    </radialGradient>
    <radialGradient
       inkscape:collect="always"
       xlink:href="#radialGradient4045-6-0"
       id="radialGradient9497"
       gradientUnits="userSpaceOnUse"
       gradientTransform="matrix(4.4075005,0,0,-4.4075267,114.63263,70.779105)"
       cx="0"
       cy="0"
       fx="0"
       fy="0"
       r="1"
       spreadMethod="pad" />
    <radialGradient
       fx="0"
       fy="0"
       cx="0"
       cy="0"
       r="1"
       gradientUnits="userSpaceOnUse"
       gradientTransform="matrix(139.52888,0,0,139.52971,98.042976,160.53586)"
       spreadMethod="pad"
       id="radialGradient4045-6-0">
      <stop
         style="stop-opacity:1;stop-color:#ffffff"
         offset="0"
         id="stop4037-2-9" />
      <stop
         style="stop-opacity:1;stop-color:#ff0000"
         offset="0.96810947"
         id="stop4039-9-3" />
      <stop
         style="stop-opacity:1;stop-color:#ff0000"
         offset="0.999999"
         id="stop4041-1-6" />
      <stop
         style="stop-opacity:1;stop-color:#ff0000"
         offset="1"
         id="stop4043-2-0" />
    </radialGradient>
  </defs>
  <g
     inkscape:label="Layer 1"
     inkscape:groupmode="layer"
     id="layer1"
     transform="translate(-9.174657,-57.882249)">
    <path
       style="font-variation-settings:'wdth' 75, 'wght' 400;opacity:0.429776;fill:#ffffff;stroke-width:1.04023;stroke-linejoin:bevel"
       d="m 114.53881,68.250265 -0.3824,2.376599 c -0.2892,0.07671 -0.50405,0.334016 -0.51625,0.644405 l -1.65675,0.661459 h -0.001 v 0.609781 h 5.2e-4 l 1.86654,-0.744657 c 0.12552,0.122271 0.29622,0.197921 0.48525,0.197921 0.16482,0 0.31636,-0.05779 0.43563,-0.153479 l 2.12855,1.194242 c -10e-4,0.01517 -0.002,0.03057 -0.002,0.04599 0,0.384581 0.31199,0.696082 0.6966,0.696082 0.38463,0 0.6966,-0.311501 0.6966,-0.696082 0,-0.384575 -0.31197,-0.696598 -0.6966,-0.696598 -0.16256,0 -0.31191,0.05595 -0.43047,0.149345 l -2.1332,-1.19631 c 10e-4,-0.01315 0.002,-0.02642 0.002,-0.03979 0,-0.244089 -0.12572,-0.458596 -0.31575,-0.582911 l 0.39636,-2.465999 z"
       id="path3263" />
    <path
       id="path9387"
       style="font-weight:normal;font-size:5.95012px;line-height:1.05;font-family:'Mona Sans';-inkscape-font-specification:'Mona Sans, @wght=648,wdth=125.0';font-variation-settings:'wdth' 125, 'wght' 648;text-align:center;letter-spacing:-0.0503356px;text-anchor:middle;fill:#1f2937;stroke:none;stroke-width:6.14623;stroke-linecap:round;stroke-linejoin:round;stroke-miterlimit:10;paint-order:fill markers stroke"
       d="M 32.415616 103.06399 C 31.990899 103.06399 31.608689 103.12415 31.268916 103.24485 C 30.929141 103.36109 30.640799 103.52912 30.403852 103.74818 C 30.166905 103.96725 29.985913 104.23088 29.860733 104.53935 C 29.735554 104.84783 29.673147 105.18959 29.673147 105.56513 C 29.673147 105.94514 29.733306 106.28966 29.854015 106.59814 C 29.979195 106.90214 30.15794 107.16577 30.390416 107.3893 C 30.627363 107.60837 30.913459 107.77813 31.248762 107.89883 C 31.584065 108.01507 31.960049 108.0735 32.375825 108.0735 C 32.746893 108.0735 33.093147 108.02407 33.415038 107.92571 C 33.7414 107.82735 34.025248 107.68231 34.266665 107.49007 C 34.508084 107.29336 34.695818 107.05169 34.829939 106.76557 C 34.968531 106.47944 35.037678 106.14892 35.037678 105.77338 L 35.037678 105.39098 L 32.308645 105.39098 L 32.308645 106.08861 L 33.95609 106.08861 C 33.935508 106.28343 33.878394 106.45776 33.784008 106.61157 C 33.663298 106.80381 33.484553 106.95335 33.247606 107.06064 C 33.015129 107.16794 32.729034 107.22187 32.389261 107.22187 C 32.143372 107.22187 31.919682 107.18592 31.718501 107.11439 C 31.517319 107.03839 31.343069 106.93104 31.195535 106.79244 C 31.052473 106.64938 30.942875 106.47513 30.866873 106.26948 C 30.790871 106.06382 30.752668 105.8289 30.752668 105.56513 C 30.752668 105.22983 30.817321 104.93924 30.946971 104.69335 C 31.076622 104.44746 31.264872 104.25747 31.510761 104.12335 C 31.761121 103.98923 32.062431 103.92233 32.415616 103.92233 C 32.665975 103.92233 32.891912 103.95604 33.093094 104.0231 C 33.294275 104.09016 33.461784 104.18853 33.595905 104.31817 C 33.734497 104.44783 33.826117 104.60635 33.870824 104.79411 L 34.957579 104.79411 C 34.908401 104.4454 34.774084 104.14358 34.55502 103.88874 C 34.335955 103.62944 34.043118 103.42822 33.676521 103.28516 C 33.314393 103.13763 32.893981 103.06399 32.415616 103.06399 z M 35.564261 103.12445 L 35.564261 103.9492 L 36.603474 103.9492 L 36.603474 103.12445 L 35.564261 103.12445 z M 61.763178 103.12445 L 61.763178 103.9492 L 62.802391 103.9492 L 62.802391 103.12445 L 61.763178 103.12445 z M 73.501997 103.12445 L 73.501997 103.9492 L 74.54121 103.9492 L 74.54121 103.12445 L 73.501997 103.12445 z M 90.979483 103.12445 L 90.979483 103.9492 L 92.018696 103.9492 L 92.018696 103.12445 L 90.979483 103.12445 z M 95.455695 103.12445 L 95.455695 108.01304 L 96.495425 108.01304 L 96.495425 106.22917 C 96.495425 106.01905 96.537607 105.83581 96.622549 105.67933 C 96.711962 105.51839 96.83504 105.39306 96.991519 105.30364 C 97.152461 105.20976 97.337948 105.16308 97.548074 105.16308 C 97.758193 105.16308 97.927948 105.20353 98.057604 105.28401 C 98.187252 105.36447 98.278876 105.4848 98.332522 105.64574 C 98.390602 105.80222 98.419856 105.9967 98.419856 106.22917 L 98.419856 108.01304 L 99.459069 108.01304 L 99.459069 106.0483 C 99.459069 105.73535 99.421381 105.47173 99.34538 105.25714 C 99.269381 105.03807 99.162033 104.8633 99.023436 104.73365 C 98.889318 104.60401 98.725788 104.51015 98.533544 104.45202 C 98.345778 104.39388 98.136087 104.3652 97.903608 104.3652 C 97.613018 104.3652 97.342133 104.42986 97.091771 104.5595 C 96.84588 104.68468 96.664889 104.86118 96.548652 105.08919 L 96.494908 105.08919 L 96.494908 103.12445 L 95.455695 103.12445 z M 38.719624 103.2986 L 37.69333 103.50014 L 37.69333 104.43186 L 37.00965 104.43186 L 37.00965 105.21683 L 37.69333 105.21683 L 37.69333 107.15469 C 37.69333 107.34693 37.731533 107.5077 37.807535 107.63735 C 37.888007 107.76252 37.999852 107.85639 38.142915 107.91899 C 38.285977 107.98159 38.453486 108.01304 38.645726 108.01304 L 39.618277 108.01304 L 39.618277 107.12782 L 39.061722 107.12782 C 38.945485 107.12782 38.858359 107.10763 38.800239 107.06736 C 38.746592 107.02265 38.719624 106.94227 38.719624 106.82603 L 38.719624 105.21683 L 39.618277 105.21683 L 39.618277 104.43186 L 38.719624 104.43186 L 38.719624 103.2986 z M 64.918541 103.2986 L 63.892247 103.50014 L 63.892247 104.43186 L 63.208568 104.43186 L 63.208568 105.21683 L 63.892247 105.21683 L 63.892247 107.15469 C 63.892247 107.34693 63.930444 107.5077 64.006452 107.63735 C 64.086923 107.76252 64.198772 107.85639 64.341832 107.91899 C 64.484899 107.98159 64.652408 108.01304 64.844644 108.01304 L 65.817194 108.01304 L 65.817194 107.12782 L 65.260639 107.12782 C 65.144431 107.12782 65.05731 107.10763 64.999157 107.06736 C 64.94551 107.02265 64.918541 106.94227 64.918541 106.82603 L 64.918541 105.21683 L 65.817194 105.21683 L 65.817194 104.43186 L 64.918541 104.43186 L 64.918541 103.2986 z M 94.134846 103.2986 L 93.108552 103.50014 L 93.108552 104.43186 L 92.424873 104.43186 L 92.424873 105.21683 L 93.108552 105.21683 L 93.108552 107.15469 C 93.108552 107.34693 93.146756 107.5077 93.222757 107.63735 C 93.303235 107.76252 93.415077 107.85639 93.558137 107.91899 C 93.701196 107.98159 93.868704 108.01304 94.060949 108.01304 L 95.033499 108.01304 L 95.033499 107.12782 L 94.476944 107.12782 C 94.360662 107.12782 94.273541 107.10763 94.215461 107.06736 C 94.161814 107.02265 94.134846 106.94227 94.134846 106.82603 L 94.134846 105.21683 L 95.033499 105.21683 L 95.033499 104.43186 L 94.134846 104.43186 L 94.134846 103.2986 z M 45.979129 104.3652 C 45.554412 104.3652 45.183438 104.44109 44.866018 104.59309 C 44.553069 104.74063 44.306908 104.95533 44.128079 105.23698 C 43.953721 105.51417 43.866596 105.84919 43.866596 106.2426 C 43.866596 106.62262 43.953721 106.94916 44.128079 107.22187 C 44.302436 107.49459 44.548597 107.70479 44.866018 107.85233 C 45.18791 107.99986 45.563378 108.0735 45.992565 108.0735 C 46.359163 108.0735 46.687955 108.02407 46.978551 107.92571 C 47.269147 107.82735 47.505804 107.68905 47.689102 107.51023 C 47.8724 107.32693 47.981997 107.11672 48.017764 106.87978 L 47.031778 106.87978 C 46.982599 107.02283 46.866777 107.14142 46.683479 107.23531 C 46.50018 107.32472 46.278738 107.36915 46.019436 107.36915 C 45.795901 107.36915 45.601426 107.33371 45.43601 107.26218 C 45.270594 107.18617 45.140771 107.07883 45.046886 106.94024 C 44.957468 106.79718 44.910793 106.62966 44.906326 106.43742 L 48.024482 106.43742 C 48.055777 106.00377 47.993371 105.63228 47.836897 105.3238 C 47.680422 105.01532 47.443249 104.77867 47.125829 104.61325 C 46.81288 104.44783 46.43067 104.3652 45.979129 104.3652 z M 55.166682 104.3652 C 54.741964 104.3652 54.368744 104.44109 54.046853 104.59309 C 53.729433 104.74063 53.481541 104.95308 53.302713 105.23026 C 53.123884 105.50744 53.034512 105.83796 53.034512 106.22245 C 53.034512 106.51752 53.083434 106.77941 53.18179 107.00742 C 53.284617 107.23542 53.43017 107.4299 53.617939 107.59084 C 53.81018 107.75179 54.035599 107.87435 54.2949 107.9593 C 54.558672 108.03977 54.849261 108.08022 55.166682 108.08022 C 55.600339 108.08022 55.976324 108.00658 56.293745 107.85904 C 56.615635 107.71151 56.863528 107.49906 57.037885 107.22187 C 57.216714 106.94022 57.306086 106.60693 57.306086 106.22245 C 57.306086 105.93185 57.254917 105.67273 57.15209 105.44472 C 57.053735 105.21225 56.908182 105.01777 56.715941 104.86129 C 56.528171 104.70035 56.302751 104.57727 56.03898 104.49232 C 55.779679 104.40738 55.488572 104.3652 55.166682 104.3652 z M 59.466161 104.3652 C 59.090627 104.3652 58.768571 104.41187 58.500328 104.50576 C 58.232085 104.59964 58.026374 104.73171 57.883312 104.9016 C 57.740249 105.06702 57.668855 105.26824 57.668855 105.50518 C 57.668855 105.67954 57.699802 105.82683 57.762389 105.94753 C 57.824979 106.06824 57.925587 106.16885 58.064179 106.24932 C 58.20277 106.32978 58.382033 106.39443 58.601097 106.44363 C 58.820162 106.49283 59.083787 106.53103 59.392264 106.55783 C 59.629214 106.58023 59.812453 106.60718 59.942101 106.63845 C 60.076227 106.66526 60.170091 106.70744 60.223737 106.76557 C 60.281817 106.81922 60.311071 106.90237 60.311071 107.01413 C 60.311071 107.16167 60.236909 107.27075 60.089379 107.34228 C 59.946311 107.41381 59.745094 107.44977 59.485798 107.44977 C 59.1952 107.44977 58.972031 107.40085 58.815555 107.30249 C 58.663548 107.20414 58.57867 107.06307 58.56079 106.87978 L 57.547932 106.87978 C 57.570285 107.24637 57.742288 107.53921 58.064179 107.75827 C 58.38607 107.97287 58.849183 108.08022 59.452725 108.08022 C 60.092038 108.08022 60.563616 107.97736 60.867626 107.77171 C 61.176105 107.56158 61.33013 107.28673 61.33013 106.94695 C 61.33013 106.75471 61.299182 106.59395 61.236595 106.4643 C 61.174 106.33465 61.075642 106.22954 60.941523 106.14907 C 60.807405 106.06415 60.628143 105.99898 60.404605 105.95425 C 60.185545 105.90505 59.921919 105.86736 59.613439 105.84056 C 59.3899 105.81816 59.208908 105.79346 59.070319 105.76666 C 58.931722 105.73986 58.831116 105.69941 58.768529 105.64574 C 58.705942 105.59209 58.674478 105.5162 58.674478 105.41785 C 58.674478 105.27032 58.746389 105.16296 58.889452 105.0959 C 59.036985 105.02884 59.226971 104.99514 59.459443 104.99514 C 59.606981 104.99514 59.736284 105.0154 59.84805 105.0556 C 59.959785 105.09136 60.049154 105.14754 60.11625 105.22355 C 60.187819 105.29507 60.230518 105.39119 60.243891 105.5119 L 61.22316 105.5119 C 61.200806 105.26601 61.113685 105.05805 60.961677 104.88817 C 60.814146 104.71828 60.612929 104.58846 60.358096 104.49904 C 60.107734 104.40963 59.810406 104.3652 59.466161 104.3652 z M 68.17674 104.3652 C 67.752024 104.3652 67.378804 104.44109 67.056912 104.59309 C 66.739491 104.74063 66.491087 104.95308 66.312255 105.23026 C 66.13343 105.50744 66.044054 105.83796 66.044054 106.22245 C 66.044054 106.51752 66.093495 106.77941 66.191849 107.00742 C 66.294672 107.23542 66.439708 107.4299 66.627481 107.59084 C 66.819717 107.75179 67.045655 107.87435 67.304959 107.9593 C 67.568733 108.03977 67.859319 108.08022 68.17674 108.08022 C 68.610397 108.08022 68.985865 108.00658 69.303287 107.85904 C 69.625178 107.71151 69.873073 107.49906 70.047427 107.22187 C 70.226252 106.94022 70.316145 106.60693 70.316145 106.22245 C 70.316145 105.93185 70.264456 105.67273 70.161632 105.44472 C 70.063279 105.21225 69.918244 105.01777 69.726 104.86129 C 69.538234 104.70035 69.312295 104.57727 69.048522 104.49232 C 68.789226 104.40738 68.498632 104.3652 68.17674 104.3652 z M 77.140018 104.3652 C 76.715301 104.3652 76.344328 104.44109 76.026907 104.59309 C 75.713957 104.74063 75.46831 104.95533 75.289484 105.23698 C 75.115123 105.51417 75.027485 105.84919 75.027485 106.2426 C 75.027485 106.62262 75.115123 106.94916 75.289484 107.22187 C 75.463839 107.49459 75.709486 107.70479 76.026907 107.85233 C 76.348799 107.99986 76.724266 108.0735 77.153453 108.0735 C 77.520051 108.0735 77.848842 108.02407 78.13944 107.92571 C 78.430037 107.82735 78.666696 107.68905 78.849991 107.51023 C 79.033292 107.32693 79.142886 107.11672 79.178653 106.87978 L 78.193183 106.87978 C 78.144007 107.02283 78.02767 107.14142 77.844367 107.23531 C 77.661072 107.32472 77.439629 107.36915 77.180325 107.36915 C 76.956787 107.36915 76.762311 107.33371 76.596898 107.26218 C 76.431486 107.18617 76.301665 107.07883 76.207775 106.94024 C 76.118425 106.79718 76.071748 106.62966 76.067215 106.43742 L 79.185371 106.43742 C 79.216665 106.00377 79.154264 105.63228 78.997785 105.3238 C 78.841314 105.01532 78.604139 104.77867 78.286718 104.61325 C 77.973767 104.44783 77.591557 104.3652 77.140018 104.3652 z M 81.345446 104.3652 C 80.969907 104.3652 80.647857 104.41187 80.379613 104.50576 C 80.111369 104.59964 79.905656 104.73171 79.762596 104.9016 C 79.619537 105.06702 79.548139 105.26824 79.548139 105.50518 C 79.548139 105.67954 79.579087 105.82683 79.641674 105.94753 C 79.704262 106.06824 79.804875 106.16885 79.943464 106.24932 C 80.08206 106.32978 80.260805 106.39443 80.479865 106.44363 C 80.698932 106.49283 80.963068 106.53103 81.271548 106.55783 C 81.508491 106.58023 81.69173 106.60718 81.821386 106.63845 C 81.955505 106.66526 82.049375 106.70744 82.103022 106.76557 C 82.161175 106.81922 82.190355 106.90237 82.190355 107.01413 C 82.190355 107.16167 82.116194 107.27075 81.968663 107.34228 C 81.825603 107.41381 81.624902 107.44977 81.365599 107.44977 C 81.075002 107.44977 80.85131 107.40085 80.694839 107.30249 C 80.542828 107.20414 80.457954 107.06307 80.440074 106.87978 L 79.427216 106.87978 C 79.449577 107.24637 79.62158 107.53921 79.943464 107.75827 C 80.265356 107.97287 80.728461 108.08022 81.33201 108.08022 C 81.971323 108.08022 82.442909 107.97736 82.74691 107.77171 C 83.05539 107.56158 83.209414 107.28673 83.209414 106.94695 C 83.209414 106.75471 83.17795 106.59395 83.115363 106.4643 C 83.052775 106.33465 82.954409 106.22954 82.820291 106.14907 C 82.686165 106.06415 82.50742 105.99898 82.28389 105.95425 C 82.064822 105.90505 81.801204 105.86736 81.492723 105.84056 C 81.269193 105.81816 81.088201 105.79346 80.949604 105.76666 C 80.811013 105.73986 80.7104 105.69941 80.647814 105.64574 C 80.585227 105.59209 80.553763 105.5162 80.553763 105.41785 C 80.553763 105.27032 80.62516 105.16296 80.76822 105.0959 C 80.91575 105.02884 81.106248 104.99514 81.338728 104.99514 C 81.486258 104.99514 81.615562 105.0154 81.727334 105.0556 C 81.839062 105.09136 81.928438 105.14754 81.995535 105.22355 C 82.06703 105.29507 82.109729 105.39119 82.123176 105.5119 L 83.101928 105.5119 C 83.079575 105.26601 82.992446 105.05805 82.840445 104.88817 C 82.692907 104.71828 82.491689 104.58846 82.236864 104.49904 C 81.986502 104.40963 81.689691 104.3652 81.345446 104.3652 z M 50.938516 104.37192 C 50.589801 104.37192 50.299211 104.43207 50.066735 104.55279 C 49.838728 104.67349 49.671219 104.82977 49.563923 105.02201 L 49.523615 105.02201 L 49.490026 104.43186 L 48.504039 104.43186 L 48.504039 109.13287 L 49.543769 109.13287 L 49.543769 107.40274 L 49.584077 107.40274 C 49.660079 107.54133 49.765182 107.66217 49.899303 107.76499 C 50.033424 107.86333 50.187449 107.94147 50.361807 107.9996 C 50.540636 108.05327 50.730616 108.08022 50.931798 108.08022 C 51.284984 108.08022 51.593551 108.00433 51.857323 107.85233 C 52.125565 107.69585 52.333524 107.48115 52.481058 107.20844 C 52.628591 106.93125 52.702233 106.60246 52.702233 106.22245 C 52.702233 105.93632 52.659536 105.67944 52.574592 105.45144 C 52.489649 105.22343 52.369331 105.0312 52.212857 104.87473 C 52.056382 104.71378 51.870895 104.59071 51.656302 104.50576 C 51.441707 104.41635 51.202287 104.37192 50.938516 104.37192 z M 43.461453 104.37864 C 43.220035 104.37864 43.012076 104.43655 42.837719 104.55279 C 42.667833 104.66455 42.544751 104.81858 42.468749 105.01529 L 42.428441 105.01529 L 42.388134 104.43186 L 41.44969 104.43186 L 41.44969 108.01304 L 42.488903 108.01304 L 42.488903 106.24932 C 42.493373 106.03026 42.536071 105.85151 42.616543 105.71292 C 42.697016 105.56987 42.806097 105.46701 42.944689 105.40441 C 43.083281 105.33736 43.246812 105.30364 43.434581 105.30364 C 43.492703 105.30364 43.548366 105.30621 43.602013 105.31088 C 43.66013 105.31535 43.714063 105.32435 43.763243 105.33775 L 43.763243 104.39879 C 43.727475 104.39452 43.682531 104.39002 43.628885 104.38535 C 43.579703 104.38069 43.52404 104.37864 43.461453 104.37864 z M 72.807465 104.37864 C 72.566052 104.37864 72.358092 104.43655 72.183731 104.55279 C 72.013847 104.66455 71.890769 104.81858 71.814761 105.01529 L 71.77497 105.01529 L 71.734663 104.43186 L 70.795702 104.43186 L 70.795702 108.01304 L 71.834915 108.01304 L 71.834915 106.24932 C 71.839386 106.03026 71.882077 105.85151 71.962556 105.71292 C 72.043027 105.56987 72.152629 105.46701 72.291218 105.40441 C 72.429814 105.33736 72.592828 105.30364 72.780594 105.30364 C 72.838712 105.30364 72.894895 105.30621 72.948542 105.31088 C 73.006705 105.31535 73.060116 105.32435 73.109256 105.33775 L 73.109256 104.39879 C 73.07349 104.39452 73.028544 104.39002 72.974897 104.38535 C 72.92571 104.38069 72.870052 104.37864 72.807465 104.37864 z M 35.564261 104.43186 L 35.564261 108.01304 L 36.603474 108.01304 L 36.603474 104.43186 L 35.564261 104.43186 z M 61.763178 104.43186 L 61.763178 108.01304 L 62.802391 108.01304 L 62.802391 104.43186 L 61.763178 104.43186 z M 73.501997 104.43186 L 73.501997 108.01304 L 74.54121 108.01304 L 74.54121 104.43186 L 73.501997 104.43186 z M 84.718883 104.43186 L 85.771532 108.01304 L 86.998847 108.01304 L 87.656171 105.592 L 87.696479 105.592 L 88.360521 108.01304 L 89.607474 108.01304 L 90.667357 104.43186 L 89.721678 104.43186 L 88.957384 107.14798 L 88.930512 107.14798 L 88.23288 104.43186 L 87.207103 104.43186 L 86.502754 107.12782 L 86.462446 107.12782 L 85.704869 104.43186 L 84.718883 104.43186 z M 90.979483 104.43186 L 90.979483 108.01304 L 92.018696 108.01304 L 92.018696 104.43186 L 90.979483 104.43186 z M 45.972411 105.08247 C 46.191475 105.08247 46.374715 105.11618 46.522248 105.18324 C 46.674252 105.2503 46.790591 105.34641 46.871064 105.47159 C 46.943243 105.58377 46.984575 105.71576 46.995604 105.86743 L 44.887206 105.86743 C 44.913802 105.71158 44.969217 105.57739 45.053604 105.46487 C 45.147489 105.33971 45.27057 105.24584 45.422574 105.18324 C 45.579048 105.11618 45.762287 105.08247 45.972411 105.08247 z M 77.1333 105.08247 C 77.352367 105.08247 77.535607 105.11618 77.683137 105.18324 C 77.835138 105.2503 77.951474 105.34641 78.031953 105.47159 C 78.104011 105.58377 78.145369 105.71576 78.156493 105.86743 L 76.048094 105.86743 C 76.074691 105.71158 76.130107 105.57739 76.214493 105.46487 C 76.308383 105.33971 76.431462 105.24584 76.583462 105.18324 C 76.739934 105.11618 76.923173 105.08247 77.1333 105.08247 z M 50.62329 105.16308 C 50.828942 105.16308 51.009935 105.20527 51.166409 105.29021 C 51.322884 105.37068 51.443717 105.48927 51.528661 105.64574 C 51.618075 105.80222 51.66302 105.99444 51.66302 106.22245 C 51.66302 106.44598 51.618075 106.63821 51.528661 106.79916 C 51.439246 106.95563 51.318413 107.07647 51.166409 107.16141 C 51.014405 107.24635 50.833413 107.28905 50.62329 107.28905 C 50.453403 107.28905 50.301625 107.26436 50.167504 107.21516 C 50.037853 107.16151 49.926008 107.09011 49.832124 107.0007 C 49.738241 106.91128 49.666846 106.80843 49.617666 106.69219 C 49.568486 106.57148 49.543769 106.4439 49.543769 106.30978 L 49.543769 106.11548 C 49.543769 105.93665 49.58595 105.77537 49.670893 105.63231 C 49.755837 105.48925 49.878918 105.37515 50.039863 105.29021 C 50.205279 105.20527 50.399755 105.16308 50.62329 105.16308 z M 55.167199 105.16308 C 55.341556 105.16308 55.495581 105.18778 55.629703 105.23698 C 55.768294 105.28616 55.884634 105.35755 55.978518 105.45144 C 56.072401 105.54533 56.143796 105.65717 56.192976 105.78682 C 56.246622 105.91647 56.273591 106.0615 56.273591 106.22245 C 56.273591 106.43704 56.228646 106.62478 56.139232 106.78572 C 56.054289 106.9422 55.928961 107.06528 55.763545 107.15469 C 55.598252 107.23957 55.399452 107.28227 55.167199 107.28233 L 55.166682 107.28233 C 54.997001 107.28228 54.842628 107.25759 54.704178 107.20844 C 54.570057 107.15479 54.455965 107.0834 54.36208 106.99398 C 54.268197 106.9001 54.196802 106.78825 54.147622 106.6586 C 54.098443 106.52895 54.073725 106.38339 54.073725 106.22245 C 54.073725 106.00786 54.116423 105.82238 54.201366 105.6659 C 54.290781 105.50496 54.416108 105.38187 54.577054 105.29693 C 54.742469 105.20751 54.939192 105.16308 55.167199 105.16308 z M 68.17674 105.16308 C 68.351095 105.16308 68.505127 105.18778 68.639244 105.23698 C 68.777841 105.28616 68.894177 105.35755 68.98806 105.45144 C 69.08198 105.54533 69.153378 105.65717 69.202518 105.78682 C 69.256164 105.91647 69.283133 106.0615 69.283133 106.22245 C 69.283133 106.43704 69.238711 106.62478 69.149291 106.78572 C 69.064349 106.9422 68.939016 107.06528 68.773603 107.15469 C 68.608183 107.23963 68.409212 107.28233 68.17674 107.28233 C 68.006849 107.28233 67.852309 107.25764 67.713719 107.20844 C 67.579594 107.15479 67.466021 107.0834 67.372138 106.99398 C 67.278218 106.9001 67.206304 106.78825 67.157164 106.6586 C 67.108024 106.52895 67.083784 106.38339 67.083784 106.22245 C 67.083784 106.00786 67.125966 105.82238 67.210908 105.6659 C 67.30032 105.50496 67.425646 105.38187 67.586595 105.29693 C 67.752009 105.20751 67.948732 105.16308 68.17674 105.16308 z M 9.174657 110.74776 L 9.174657 115.63686 L 10.160643 115.63686 L 10.194233 115.04672 L 10.227306 115.04672 C 10.303308 115.1719 10.403916 115.28323 10.529096 115.38158 C 10.658747 115.47992 10.813289 115.55632 10.992117 115.60999 C 11.170946 115.66366 11.37441 115.69009 11.602416 115.69009 C 11.960072 115.69009 12.270371 115.61645 12.534142 115.46891 C 12.797914 115.31691 13.003625 115.10221 13.151158 114.82503 C 13.298692 114.54784 13.37285 114.21957 13.37285 113.83956 C 13.37285 113.5579 13.330153 113.305 13.24521 113.08146 C 13.160266 112.85346 13.039432 112.65673 12.882958 112.49132 C 12.730954 112.3259 12.545467 112.20109 12.326403 112.11615 C 12.111809 112.0312 11.870658 111.98851 11.602416 111.98851 C 11.302879 111.98851 11.02975 112.04867 10.783861 112.16937 C 10.542443 112.29009 10.365946 112.45587 10.254178 112.66599 L 10.21387 112.66599 L 10.21387 110.74776 L 9.174657 110.74776 z M 13.852408 110.74776 L 13.852408 111.57303 L 14.891621 111.57303 L 14.891621 110.74776 L 13.852408 110.74776 z M 20.130061 110.74776 L 20.130061 111.57303 L 21.169274 111.57303 L 21.169274 110.74776 L 20.130061 110.74776 z M 27.993663 110.74776 C 27.573417 110.74776 27.251883 110.83039 27.028348 110.9958 C 26.809283 111.16122 26.699685 111.42311 26.699685 111.78077 L 26.699685 112.05569 L 26.055797 112.05569 L 26.055797 112.84013 L 26.699685 112.84013 L 26.699685 115.63686 L 27.738899 115.63686 L 27.738899 112.84013 L 28.556936 112.84013 L 28.556936 112.05569 L 27.738899 112.05569 L 27.738899 111.81436 C 27.738899 111.68472 27.772608 111.5886 27.839668 111.526 C 27.911199 111.4634 28.016301 111.43195 28.154894 111.43195 L 28.617398 111.43195 L 28.617398 110.74776 L 27.993663 110.74776 z M 50.771601 110.74776 L 50.771601 111.57303 L 51.810814 111.57303 L 51.810814 110.74776 L 50.771601 110.74776 z M 72.35633 110.74776 L 72.35633 111.57303 L 73.395543 111.57303 L 73.395543 110.74776 L 72.35633 110.74776 z M 78.660338 110.74776 L 78.660338 111.57303 L 79.700068 111.57303 L 79.700068 110.74776 L 78.660338 110.74776 z M 112.65103 110.74776 L 112.65103 111.57303 L 113.69076 111.57303 L 113.69076 110.74776 L 112.65103 110.74776 z M 119.00206 110.74776 L 119.00206 115.63686 L 120.04179 115.63686 L 120.04179 110.74776 L 119.00206 110.74776 z M 49.450235 110.92242 L 48.424458 111.12344 L 48.424458 112.05569 L 47.740262 112.05569 L 47.740262 112.84013 L 48.424458 112.84013 L 48.424458 114.77852 C 48.424458 114.97076 48.462661 115.13153 48.538663 115.26118 C 48.619135 115.38635 48.730463 115.48021 48.873526 115.54281 C 49.016588 115.60541 49.184614 115.63686 49.376854 115.63686 L 50.348888 115.63686 L 50.348888 114.75165 L 49.792333 114.75165 C 49.676096 114.75165 49.58897 114.73145 49.53085 114.69118 C 49.477203 114.64648 49.450235 114.56609 49.450235 114.44986 L 49.450235 112.84013 L 50.348888 112.84013 L 50.348888 112.05569 L 49.450235 112.05569 L 49.450235 110.92242 z M 63.775459 110.92242 L 62.749681 111.12344 L 62.749681 112.05569 L 62.065485 112.05569 L 62.065485 112.84013 L 62.749681 112.84013 L 62.749681 114.77852 C 62.749681 114.97076 62.78737 115.13153 62.86337 115.26118 C 62.943841 115.38635 63.055682 115.48021 63.19875 115.54281 C 63.341809 115.60541 63.509317 115.63686 63.701561 115.63686 L 64.674112 115.63635 L 64.674112 114.75165 L 64.117557 114.75165 C 64.001283 114.75165 63.914154 114.73138 63.856074 114.69118 C 63.802427 114.64648 63.775459 114.5661 63.775459 114.44986 L 63.775459 112.84013 L 64.674112 112.84013 L 64.674112 112.05569 L 63.775459 112.05569 L 63.775459 110.92242 z M 104.18178 110.92242 L 103.156 111.12344 L 103.156 112.05569 L 102.4718 112.05569 L 102.4718 112.84013 L 103.156 112.84013 L 103.156 114.77852 C 103.156 114.97076 103.19369 115.13153 103.26969 115.26118 C 103.35016 115.38635 103.462 115.48021 103.60507 115.54281 C 103.74813 115.60541 103.91563 115.63686 104.10788 115.63686 L 105.08043 115.63635 L 105.08043 114.75165 L 104.52388 114.75165 C 104.40758 114.75165 104.32046 114.73138 104.26239 114.69118 C 104.20873 114.64648 104.18178 114.5661 104.18178 114.44986 L 104.18178 112.84013 L 105.08043 112.84013 L 105.08043 112.05569 L 104.18178 112.05569 L 104.18178 110.92242 z M 17.510582 111.98851 C 17.085865 111.98851 16.712644 112.06439 16.390754 112.2164 C 16.073334 112.36393 15.825442 112.57639 15.646613 112.85357 C 15.467785 113.13076 15.378413 113.4618 15.378413 113.84627 C 15.378413 114.14134 15.427335 114.40272 15.525691 114.63072 C 15.628517 114.85873 15.77407 115.0532 15.96184 115.21415 C 16.15408 115.3751 16.3795 115.49818 16.638801 115.58312 C 16.902573 115.66359 17.193162 115.70353 17.510582 115.70353 C 17.94424 115.70353 18.320225 115.62988 18.637645 115.48235 C 18.959536 115.33482 19.207428 115.12237 19.381786 114.84518 C 19.560614 114.56353 19.649987 114.23075 19.649987 113.84627 C 19.649987 113.55568 19.598817 113.29603 19.495991 113.06803 C 19.397635 112.83555 19.252082 112.64107 19.059842 112.4846 C 18.872072 112.32365 18.646135 112.20109 18.382364 112.11615 C 18.123063 112.0312 17.832473 111.98851 17.510582 111.98851 z M 24.250739 111.98851 C 23.969086 111.98851 23.703215 112.05091 23.452855 112.17609 C 23.202495 112.30127 23.017009 112.47829 22.8963 112.70629 L 22.842557 112.70629 L 22.808967 112.05569 L 21.803344 112.05569 L 21.803344 115.63686 L 22.842557 115.63686 L 22.842557 113.85299 C 22.842557 113.64287 22.885254 113.45738 22.970197 113.29644 C 23.059612 113.13549 23.182693 113.01016 23.339167 112.92075 C 23.500112 112.82686 23.685598 112.77967 23.895722 112.77967 C 24.105845 112.77967 24.275602 112.82237 24.405252 112.90731 C 24.534904 112.98779 24.626524 113.10862 24.680171 113.26957 C 24.73829 113.42604 24.767504 113.62052 24.767504 113.85299 L 24.767504 115.63686 L 25.806717 115.63686 L 25.806717 113.67161 C 25.806717 113.35866 25.768514 113.09504 25.692512 112.88044 C 25.61651 112.66138 25.509677 112.48713 25.371084 112.35748 C 25.236964 112.22784 25.073432 112.13397 24.881192 112.07584 C 24.693423 112.01771 24.483217 111.98851 24.250739 111.98851 z M 30.769205 111.98851 C 30.344488 111.98851 29.971267 112.06439 29.649376 112.2164 C 29.331956 112.36393 29.083547 112.57639 28.904719 112.85357 C 28.72589 113.13076 28.636518 113.4618 28.636518 113.84627 C 28.636518 114.14134 28.685957 114.40272 28.784313 114.63072 C 28.887139 114.85873 29.032175 115.0532 29.219945 115.21415 C 29.412186 115.3751 29.638122 115.49818 29.897423 115.58312 C 30.161194 115.66359 30.451785 115.70353 30.769205 115.70353 C 31.202863 115.70353 31.57833 115.62988 31.895751 115.48235 C 32.217641 115.33482 32.46605 115.12237 32.640408 114.84518 C 32.819237 114.56353 32.908609 114.23075 32.908609 113.84627 C 32.908609 113.55568 32.856923 113.29603 32.754096 113.06803 C 32.65574 112.83555 32.510704 112.64107 32.318464 112.4846 C 32.130694 112.32365 31.904758 112.20109 31.640986 112.11615 C 31.381685 112.0312 31.091096 111.98851 30.769205 111.98851 z M 38.468476 111.98851 C 38.17788 111.98851 37.920482 112.04867 37.696947 112.16937 C 37.473412 112.29009 37.303656 112.46261 37.187417 112.68614 L 37.133674 112.68614 L 37.093366 112.05569 L 36.094461 112.05569 L 36.094461 115.63686 L 37.133674 115.63686 L 37.133674 113.7791 C 37.133674 113.58238 37.169631 113.41038 37.241161 113.26285 C 37.317163 113.11085 37.424513 112.99226 37.563105 112.90731 C 37.706168 112.82237 37.878171 112.77967 38.079353 112.77967 C 38.271593 112.77967 38.425618 112.82237 38.541857 112.90731 C 38.662563 112.98779 38.747958 113.10412 38.797138 113.25613 C 38.850785 113.40813 38.877237 113.59137 38.877237 113.80597 L 38.877237 115.63686 L 39.910249 115.63686 L 39.910249 113.7791 C 39.910249 113.57792 39.947935 113.40366 40.023937 113.25613 C 40.104409 113.1086 40.214007 112.99226 40.352599 112.90731 C 40.495662 112.82237 40.663688 112.77967 40.855927 112.77967 C 41.06158 112.77967 41.222347 112.82237 41.338585 112.90731 C 41.454824 112.98779 41.535208 113.10412 41.579914 113.25613 C 41.629094 113.40366 41.653811 113.57792 41.653811 113.7791 L 41.653811 115.63686 L 42.693025 115.63686 L 42.693025 113.64474 C 42.693025 113.26472 42.635113 112.95442 42.518875 112.71301 C 42.402637 112.47159 42.232881 112.29009 42.009345 112.16937 C 41.790281 112.04867 41.526141 111.98851 41.217662 111.98851 C 40.904713 111.98851 40.627606 112.05316 40.386189 112.18281 C 40.14477 112.31246 39.954789 112.51817 39.816198 112.79983 L 39.755736 112.79983 C 39.65738 112.53605 39.496613 112.33484 39.273078 112.19625 C 39.049543 112.05765 38.781426 111.98851 38.468476 111.98851 z M 54.423058 111.98851 C 53.998342 111.98851 53.625121 112.06439 53.30323 112.2164 C 52.985809 112.36393 52.737917 112.57639 52.559089 112.85357 C 52.384731 113.12628 52.297089 113.45283 52.297089 113.83284 C 52.297089 114.11449 52.344281 114.37137 52.438166 114.60385 C 52.536521 114.83186 52.674816 115.02858 52.853645 115.194 C 53.032473 115.35941 53.249421 115.48474 53.504251 115.56968 C 53.763552 115.65462 54.054142 115.69681 54.376032 115.69681 C 54.738159 115.69681 55.069199 115.64115 55.368737 115.52938 C 55.672744 115.41761 55.91839 115.25632 56.106159 115.0462 C 56.2984 114.83608 56.40575 114.59043 56.428103 114.30878 L 55.38889 114.30878 C 55.357596 114.42949 55.294673 114.53459 55.200788 114.62401 C 55.106904 114.71339 54.993328 114.78254 54.859207 114.83174 C 54.725085 114.87648 54.575038 114.89892 54.409622 114.89892 C 54.190558 114.89892 54.000576 114.85847 53.839631 114.778 C 53.678685 114.69753 53.553357 114.57946 53.463943 114.42298 C 53.379 114.26204 53.336819 114.06756 53.336819 113.83956 C 53.336819 113.62943 53.379 113.44619 53.463943 113.28972 C 53.548887 113.13325 53.671967 113.01016 53.832913 112.92075 C 53.998329 112.83133 54.192805 112.78639 54.41634 112.78639 C 54.586227 112.78639 54.736274 112.80884 54.865925 112.85357 C 55.000046 112.89828 55.111374 112.96293 55.200788 113.04787 C 55.290203 113.13281 55.350879 113.23567 55.382172 113.35638 L 56.40795 113.35638 C 56.390066 113.08367 56.2962 112.84701 56.126313 112.64583 C 55.956426 112.44018 55.726512 112.27941 55.435916 112.16317 C 55.14532 112.04693 54.807539 111.98851 54.423058 111.98851 z M 58.604715 111.98851 C 58.229175 111.98851 57.907125 112.0357 57.638882 112.12958 C 57.370641 112.22347 57.164929 112.35502 57.021866 112.52491 C 56.878803 112.69032 56.807408 112.89154 56.807408 113.12849 C 56.807408 113.30284 56.838873 113.45064 56.90146 113.57136 C 56.96405 113.69206 57.064658 113.79267 57.20325 113.87315 C 57.341842 113.9536 57.520587 114.01825 57.739651 114.06745 C 57.958716 114.11665 58.222339 114.15485 58.530817 114.18165 C 58.767765 114.20405 58.951007 114.23049 59.080655 114.26175 C 59.214781 114.28856 59.308645 114.33126 59.362291 114.38939 C 59.420371 114.44305 59.449624 114.52567 59.449624 114.63744 C 59.449624 114.78497 59.37598 114.89457 59.228449 114.9661 C 59.085382 115.03763 58.884168 115.07359 58.624869 115.07359 C 58.334272 115.07359 58.110583 115.02415 57.954108 114.9258 C 57.802101 114.82744 57.717224 114.68638 57.699344 114.50308 L 56.686486 114.50308 C 56.708839 114.86968 56.88136 115.16252 57.20325 115.38158 C 57.525141 115.59617 57.987734 115.70353 58.591279 115.70353 C 59.230589 115.70353 59.70217 115.60119 60.00618 115.39553 C 60.314659 115.18541 60.4692 114.91003 60.4692 114.57026 C 60.4692 114.37802 60.437736 114.21726 60.375149 114.0876 C 60.312553 113.95796 60.214195 113.85285 60.080077 113.77238 C 59.945958 113.68746 59.767214 113.62281 59.543676 113.57807 C 59.324616 113.52887 59.060475 113.49067 58.751993 113.46387 C 58.528458 113.44147 58.347466 113.41677 58.208873 113.38997 C 58.070279 113.36317 57.96967 113.32323 57.907083 113.26957 C 57.844496 113.21592 57.813549 113.14003 57.813549 113.04167 C 57.813549 112.89413 57.884943 112.78678 58.028006 112.71973 C 58.175539 112.65267 58.36552 112.61896 58.597997 112.61896 C 58.745531 112.61896 58.875355 112.63922 58.98712 112.67942 C 59.098856 112.71519 59.188224 112.77085 59.255321 112.84685 C 59.32689 112.91839 59.369072 113.0145 59.382445 113.13521 L 60.361713 113.13521 C 60.339361 112.88932 60.252239 112.68136 60.100231 112.51147 C 59.9527 112.34159 59.751482 112.21228 59.49665 112.12287 C 59.246288 112.03345 58.948954 111.98851 58.604715 111.98851 z M 76.477526 111.98851 C 76.195869 111.98851 75.929487 112.05091 75.679125 112.17609 C 75.42877 112.30127 75.243284 112.47829 75.12257 112.70629 L 75.069343 112.70629 L 75.035753 112.05569 L 74.029613 112.05569 L 74.029613 115.63686 L 75.069343 115.63686 L 75.069343 113.85299 C 75.069343 113.64287 75.111525 113.45738 75.196467 113.29644 C 75.285887 113.13549 75.408965 113.01016 75.565437 112.92075 C 75.726386 112.82686 75.911873 112.77967 76.121992 112.77967 C 76.332118 112.77967 76.501874 112.82237 76.631521 112.90731 C 76.761177 112.98779 76.852793 113.10862 76.90644 113.26957 C 76.96452 113.42604 76.993773 113.62052 76.993773 113.85299 L 76.993773 115.63686 L 78.032986 115.63686 L 78.032986 113.67161 C 78.032986 113.35866 77.995306 113.09504 77.919298 112.88044 C 77.843298 112.66138 77.735942 112.48713 77.597354 112.35748 C 77.463228 112.22784 77.300215 112.13397 77.107978 112.07584 C 76.920204 112.01771 76.709997 111.98851 76.477526 111.98851 z M 82.781534 111.98851 C 82.499885 111.98851 82.234011 112.05091 81.98365 112.17609 C 81.733287 112.30127 81.547801 112.47829 81.427094 112.70629 L 81.373351 112.70629 L 81.339761 112.05569 L 80.333621 112.05569 L 80.333621 115.63686 L 81.373351 115.63686 L 81.373351 113.85299 C 81.373351 113.64287 81.415534 113.45738 81.500475 113.29644 C 81.589887 113.13549 81.712965 113.01016 81.869445 112.92075 C 82.030386 112.82686 82.215873 112.77967 82.426 112.77967 C 82.636119 112.77967 82.805874 112.82237 82.935529 112.90731 C 83.065178 112.98779 83.156801 113.10862 83.210448 113.26957 C 83.268601 113.42604 83.297781 113.62052 83.297781 113.85299 L 83.297781 115.63686 L 84.337511 115.63686 L 84.337511 113.67161 C 84.337511 113.35866 84.299307 113.09504 84.223306 112.88044 C 84.147306 112.66138 84.039958 112.48713 83.901362 112.35748 C 83.767243 112.22784 83.604231 112.13397 83.411986 112.07584 C 83.22422 112.01771 83.014013 111.98851 82.781534 111.98851 z M 86.452627 111.98851 C 86.117324 111.98851 85.822243 112.0599 85.56741 112.20296 C 85.317056 112.34156 85.120332 112.54052 84.977265 112.79983 C 84.834205 113.05913 84.762808 113.35871 84.762808 113.69848 C 84.762808 113.95778 84.801012 114.19271 84.877013 114.40283 C 84.953014 114.60848 85.064855 114.78722 85.212393 114.93923 C 85.359923 115.09124 85.534173 115.20758 85.735358 115.28805 C 85.941006 115.36852 86.170923 115.40845 86.425756 115.40845 C 86.707411 115.40845 86.96706 115.35279 87.204003 115.24102 C 87.445423 115.12926 87.619674 114.97246 87.726968 114.77128 L 87.773994 114.77128 L 87.773994 115.36143 C 87.773994 115.54473 87.731294 115.69253 87.646353 115.80429 C 87.561411 115.92051 87.443344 116.00314 87.291336 116.05234 C 87.139335 116.10601 86.960066 116.13296 86.754418 116.13296 C 86.593468 116.13296 86.450681 116.11495 86.325503 116.07921 C 86.200319 116.04792 86.099714 115.99675 86.023713 115.92522 C 85.947752 115.85816 85.898312 115.77726 85.875918 115.68337 L 84.890449 115.68337 C 84.912802 115.91138 84.997676 116.11259 85.145214 116.28695 C 85.292743 116.46131 85.500703 116.59338 85.768948 116.68279 C 86.037185 116.77667 86.360972 116.82387 86.740982 116.82387 L 86.740982 116.82335 C 87.089698 116.82335 87.391521 116.78791 87.646353 116.71638 C 87.905656 116.64932 88.120357 116.54647 88.290241 116.40788 C 88.464602 116.27375 88.594423 116.10849 88.679365 115.91178 C 88.764307 115.71507 88.806489 115.48913 88.806489 115.2343 L 88.806489 112.05569 L 87.827737 112.05569 L 87.78743 112.61896 L 87.733686 112.61896 C 87.626392 112.42672 87.458884 112.27442 87.230874 112.16266 C 87.007344 112.04642 86.747696 111.98851 86.452627 111.98851 z M 93.199502 111.98851 C 92.908905 111.98851 92.652028 112.04867 92.42849 112.16937 C 92.20496 112.29009 92.035197 112.46261 91.91896 112.68614 L 91.865217 112.68614 L 91.824909 112.05569 L 90.825487 112.05569 L 90.825487 115.63686 L 91.865217 115.63686 L 91.865217 113.7791 C 91.865217 113.58238 91.901175 113.41038 91.972704 113.26285 C 92.048704 113.11085 92.155542 112.99226 92.294131 112.90731 C 92.437198 112.82237 92.609718 112.77967 92.810896 112.77967 C 93.003139 112.77967 93.157164 112.82237 93.2734 112.90731 C 93.394144 112.98779 93.479025 113.10412 93.528164 113.25613 C 93.581811 113.40813 93.60878 113.59137 93.60878 113.80597 L 93.60878 115.63686 L 94.641275 115.63686 L 94.641275 113.7791 C 94.641275 113.57792 94.679472 113.40366 94.75548 113.25613 C 94.835951 113.1086 94.945553 112.99226 95.084142 112.90731 C 95.227209 112.82237 95.394717 112.77967 95.586954 112.77967 C 95.792609 112.77967 95.953892 112.82237 96.070128 112.90731 C 96.186363 112.98779 96.266751 113.10412 96.311457 113.25613 C 96.36067 113.40366 96.385354 113.57792 96.385354 113.7791 L 96.385354 115.63686 L 97.424567 115.63686 L 97.424567 113.64474 C 97.424567 113.26472 97.366654 112.95442 97.250418 112.71301 C 97.134182 112.47159 96.96391 112.29009 96.740372 112.16937 C 96.521312 112.04867 96.257686 111.98851 95.949205 111.98851 C 95.636255 111.98851 95.359152 112.05316 95.117732 112.18281 C 94.876318 112.31246 94.686337 112.51817 94.54774 112.79983 L 94.487279 112.79983 C 94.388925 112.53605 94.22816 112.33484 94.004621 112.19625 C 93.781091 112.05765 93.512453 111.98851 93.199502 111.98851 z M 107.41982 111.98851 C 106.9951 111.98851 106.62413 112.06439 106.30671 112.2164 C 105.99377 112.36393 105.7476 112.57864 105.56877 112.86029 C 105.39441 113.13747 105.30729 113.47301 105.30729 113.86643 C 105.30729 114.24643 105.39441 114.57247 105.56877 114.84518 C 105.74313 115.11789 105.9893 115.3281 106.30671 115.47563 C 106.62861 115.62317 107.00407 115.69681 107.43326 115.69681 C 107.79985 115.69681 108.12865 115.64788 108.41925 115.54953 C 108.70984 115.45118 108.9465 115.31237 109.1298 115.13353 C 109.31312 114.95023 109.42272 114.74003 109.45846 114.50308 L 108.47247 114.50308 C 108.42329 114.64615 108.30747 114.76474 108.12417 114.85862 C 107.94087 114.94804 107.71943 114.99297 107.46013 114.99297 C 107.2366 114.99297 107.04212 114.95702 106.8767 114.88549 C 106.71128 114.80949 106.58147 114.70214 106.48758 114.56354 C 106.39837 114.42048 106.35169 114.25298 106.34702 114.06073 L 109.46518 114.06073 C 109.49647 113.62708 109.43406 113.2561 109.27759 112.94762 C 109.12111 112.63914 108.88394 112.40197 108.56652 112.23655 C 108.25358 112.07114 107.87137 111.98851 107.41982 111.98851 z M 44.882555 111.99523 C 44.533839 111.99523 44.225272 112.07112 43.95703 112.22312 C 43.693258 112.37065 43.487547 112.5831 43.340013 112.86029 C 43.19248 113.13747 43.118838 113.46627 43.118838 113.84627 C 43.118838 114.12793 43.158772 114.38256 43.239244 114.61057 C 43.324188 114.83858 43.445022 115.03529 43.601496 115.20071 C 43.757971 115.36165 43.943457 115.48698 44.158051 115.5764 C 44.377116 115.66134 44.618783 115.70353 44.882555 115.70353 C 45.186563 115.70353 45.459175 115.64337 45.700593 115.52266 C 45.946482 115.39748 46.125227 115.23221 46.236994 115.02656 L 46.277302 115.02656 L 46.277302 115.63686 L 47.316515 115.63686 L 47.316515 112.05569 L 46.331045 112.05569 L 46.297456 112.64583 L 46.257148 112.64583 C 46.185617 112.51618 46.087255 112.40434 45.962076 112.31045 C 45.836896 112.21211 45.685118 112.13622 45.506289 112.08256 C 45.327462 112.02442 45.119502 111.99523 44.882555 111.99523 z M 69.294502 111.99523 C 68.945786 111.99523 68.637221 112.07112 68.368977 112.22312 C 68.105203 112.37065 67.899491 112.5831 67.75196 112.86029 C 67.60443 113.13747 67.530785 113.46627 67.530785 113.84627 C 67.530785 114.12793 67.571237 114.38256 67.651708 114.61057 C 67.73665 114.83858 67.857488 115.03529 68.01396 115.20071 C 68.170439 115.36165 68.355925 115.48698 68.570515 115.5764 C 68.789583 115.66134 69.030728 115.70353 69.294502 115.70353 C 69.598511 115.70353 69.871126 115.64337 70.112539 115.52266 C 70.358431 115.39748 70.537175 115.23221 70.648941 115.02656 L 70.689248 115.02656 L 70.689248 115.63686 L 71.728978 115.63686 L 71.728978 112.05569 L 70.742992 112.05569 L 70.709402 112.64583 L 70.669095 112.64583 C 70.597565 112.51618 70.499199 112.40434 70.374022 112.31045 C 70.248838 112.21211 70.097061 112.13622 69.918236 112.08256 C 69.739404 112.02442 69.531444 111.99523 69.294502 111.99523 z M 99.613581 111.99523 C 99.264866 111.99523 98.956817 112.07112 98.688573 112.22312 C 98.424799 112.37065 98.219087 112.5831 98.071556 112.86029 C 97.924019 113.13747 97.849865 113.46627 97.849865 113.84627 C 97.849865 114.12793 97.890309 114.38256 97.970787 114.61057 C 98.055729 114.83858 98.176568 115.03529 98.333039 115.20071 C 98.489518 115.36165 98.675005 115.48698 98.889594 115.5764 C 99.108661 115.66134 99.349807 115.70353 99.613581 115.70353 C 99.917584 115.70353 100.19072 115.64337 100.43214 115.52266 C 100.67803 115.39748 100.85677 115.23221 100.96854 115.02656 L 101.00884 115.02656 L 101.00884 115.63686 L 102.04806 115.63686 L 102.04806 112.05569 L 101.06207 112.05569 L 101.02848 112.64583 L 100.98869 112.64583 C 100.91716 112.51618 100.81879 112.40434 100.69362 112.31045 C 100.56843 112.21211 100.41614 112.13622 100.23732 112.08256 C 100.05849 112.02442 99.850524 111.99523 99.613581 111.99523 z M 115.94075 111.99523 C 115.59204 111.99523 115.28346 112.07112 115.01523 112.22312 C 114.75145 112.37065 114.54574 112.5831 114.39821 112.86029 C 114.25068 113.13747 114.17703 113.46627 114.17703 113.84627 C 114.17703 114.12793 114.21748 114.38256 114.29796 114.61057 C 114.3829 114.83858 114.50321 115.03529 114.65969 115.20071 C 114.81616 115.36165 115.00165 115.48698 115.21625 115.5764 C 115.43531 115.66134 115.67698 115.70353 115.94075 115.70353 C 116.24476 115.70353 116.51737 115.64337 116.75879 115.52266 C 117.00467 115.39748 117.18342 115.23221 117.29519 115.02656 L 117.3355 115.02656 L 117.3355 115.63686 L 118.37523 115.63686 L 118.37523 112.05569 L 117.38924 112.05569 L 117.35565 112.64583 L 117.31534 112.64583 C 117.24381 112.51618 117.14545 112.40434 117.02027 112.31045 C 116.8951 112.21211 116.74332 112.13622 116.56448 112.08256 C 116.38566 112.02442 116.1777 111.99523 115.94075 111.99523 z M 35.39993 112.00194 C 35.158512 112.00194 34.950552 112.05985 34.776195 112.17609 C 34.606308 112.28786 34.483744 112.4424 34.407742 112.63911 L 34.367435 112.63911 L 34.327127 112.05569 L 33.388166 112.05569 L 33.388166 115.63686 L 34.427896 115.63686 L 34.427896 113.87315 C 34.432367 113.65408 34.474547 113.47482 34.55502 113.33623 C 34.635493 113.19318 34.74509 113.09084 34.883682 113.02824 C 35.022274 112.96118 35.185288 112.92747 35.373058 112.92747 C 35.431178 112.92747 35.48736 112.92952 35.541006 112.93419 C 35.599124 112.93865 35.65254 112.94766 35.70172 112.96106 L 35.70172 112.02261 C 35.665952 112.01835 35.621525 112.01384 35.567878 112.00918 C 35.518697 112.00451 35.462516 112.00194 35.39993 112.00194 z M 67.125642 112.00194 C 66.884221 112.00194 66.676268 112.05985 66.501907 112.17609 C 66.332023 112.28786 66.208937 112.4424 66.132937 112.63911 L 66.09263 112.63911 L 66.052322 112.05569 L 65.113878 112.05569 L 65.113878 115.63686 L 66.153091 115.63686 L 66.153091 113.87315 C 66.157562 113.65408 66.200261 113.47482 66.280732 113.33623 C 66.361203 113.19318 66.470281 113.09084 66.608877 113.02824 C 66.747467 112.96118 66.910997 112.92747 67.09877 112.92747 C 67.156889 112.92747 67.212555 112.92952 67.266202 112.93419 C 67.324357 112.93865 67.378292 112.94766 67.427432 112.96106 L 67.427432 112.02261 C 67.391666 112.01835 67.34672 112.01384 67.293073 112.00918 C 67.243895 112.00451 67.188228 112.00194 67.125642 112.00194 z M 111.9565 112.00194 C 111.71508 112.00194 111.50764 112.05985 111.33328 112.17609 C 111.1634 112.28786 111.04031 112.4424 110.96431 112.63911 L 110.924 112.63911 L 110.88369 112.05569 L 109.94473 112.05569 L 109.94473 115.63686 L 110.98446 115.63686 L 110.98446 113.87315 C 110.98894 113.65408 111.03111 113.47482 111.11159 113.33623 C 111.19205 113.19318 111.30165 113.09084 111.44025 113.02824 C 111.57884 112.96118 111.74238 112.92747 111.93014 112.92747 C 111.98825 112.92747 112.04391 112.92952 112.09757 112.93419 C 112.15573 112.93865 112.20915 112.94766 112.25829 112.96106 L 112.25829 112.02261 C 112.22254 112.01835 112.17811 112.01384 112.12445 112.00918 C 112.07527 112.00451 112.0191 112.00194 111.9565 112.00194 z M 13.852408 112.05569 L 13.852408 115.63686 L 14.891621 115.63686 L 14.891621 112.05569 L 13.852408 112.05569 z M 20.130061 112.05569 L 20.130061 115.63686 L 21.169274 115.63686 L 21.169274 112.05569 L 20.130061 112.05569 z M 50.771601 112.05569 L 50.771601 115.63686 L 51.810814 115.63686 L 51.810814 112.05569 L 50.771601 112.05569 z M 72.35633 112.05569 L 72.35633 115.63686 L 73.395543 115.63686 L 73.395543 112.05569 L 72.35633 112.05569 z M 78.660338 112.05569 L 78.660338 115.63686 L 79.700068 115.63686 L 79.700068 112.05569 L 78.660338 112.05569 z M 112.65103 112.05569 L 112.65103 115.63686 L 113.69076 115.63686 L 113.69076 112.05569 L 112.65103 112.05569 z M 107.37383 112.70629 C 107.38675 112.70603 107.39997 112.70629 107.41311 112.70629 C 107.63217 112.70629 107.81541 112.73949 107.96294 112.80655 C 108.11495 112.8736 108.23128 112.96972 108.31176 113.0949 C 108.38369 113.20708 108.42508 113.33907 108.4363 113.49074 L 106.3279 113.49074 C 106.35451 113.33496 106.40994 113.20065 106.4943 113.08818 C 106.58818 112.96301 106.71127 112.86914 106.86327 112.80655 C 107.00997 112.74368 107.17999 112.71022 107.37383 112.70629 z M 86.757518 112.73988 C 86.769883 112.73957 86.782151 112.73988 86.794725 112.73988 C 86.995903 112.73988 87.167906 112.77757 87.310973 112.85357 C 87.458503 112.92958 87.5726 113.03468 87.653071 113.1688 C 87.733542 113.29845 87.773994 113.45023 87.773994 113.62458 L 87.773994 113.79925 C 87.773994 113.96467 87.733542 114.11195 87.653071 114.2416 C 87.5726 114.36678 87.458503 114.46739 87.310973 114.54339 C 87.163435 114.61492 86.986938 114.65088 86.781289 114.65088 C 86.589046 114.65088 86.41929 114.61267 86.27176 114.53667 C 86.124222 114.46067 86.010132 114.35159 85.929662 114.20853 C 85.849191 114.06547 85.809256 113.89519 85.809256 113.69848 C 85.809256 113.50177 85.849191 113.33426 85.929662 113.19567 C 86.010132 113.0526 86.124222 112.94076 86.27176 112.86029 C 86.41007 112.78484 86.572051 112.7446 86.757518 112.73988 z M 11.293907 112.77967 C 11.450382 112.77967 11.590925 112.80437 11.716104 112.85357 C 11.845755 112.89828 11.955353 112.96742 12.044766 113.06131 C 12.138656 113.15072 12.21005 113.26257 12.259223 113.39669 C 12.308397 113.52634 12.333121 113.67414 12.333121 113.83956 C 12.333121 114.06756 12.288692 114.25979 12.199279 114.41627 C 12.114335 114.57274 11.993502 114.69358 11.837027 114.77852 C 11.685023 114.86346 11.50403 114.90564 11.293907 114.90564 C 11.070372 114.90564 10.875897 114.86295 10.710481 114.778 C 10.549535 114.68859 10.426453 114.57276 10.341511 114.4297 C 10.256567 114.28217 10.21387 114.12089 10.21387 113.94653 L 10.21387 113.75894 C 10.21387 113.57564 10.256567 113.41038 10.341511 113.26285 C 10.426453 113.11531 10.549535 112.99897 10.710481 112.91403 C 10.875897 112.82462 11.070372 112.77967 11.293907 112.77967 z M 17.510582 112.78639 C 17.684939 112.78639 17.839482 112.81109 17.973603 112.86029 C 18.112195 112.90947 18.228534 112.98087 18.322419 113.07475 C 18.416308 113.16863 18.487703 113.28047 18.536876 113.41013 C 18.590523 113.53977 18.617491 113.68533 18.617491 113.84627 C 18.617491 114.06087 18.572547 114.2486 18.483133 114.40955 C 18.39819 114.56602 18.272862 114.6891 18.107445 114.77852 C 17.942029 114.86346 17.743059 114.90564 17.510582 114.90564 C 17.340695 114.90564 17.186671 114.88094 17.048078 114.83174 C 16.913958 114.7781 16.799865 114.7067 16.70598 114.61729 C 16.612098 114.5234 16.540703 114.41155 16.491523 114.28191 C 16.44235 114.15225 16.417626 114.00722 16.417626 113.84627 C 16.417626 113.63168 16.460323 113.44619 16.545267 113.28972 C 16.634681 113.12877 16.760009 113.00569 16.920954 112.92075 C 17.08637 112.83133 17.282576 112.78639 17.510582 112.78639 z M 30.769205 112.78639 C 30.943562 112.78639 31.097587 112.81109 31.231709 112.86029 C 31.3703 112.90947 31.486639 112.98087 31.580525 113.07475 C 31.674407 113.16863 31.746319 113.28047 31.795498 113.41013 C 31.849145 113.53977 31.875597 113.68533 31.875597 113.84627 C 31.875597 114.06087 31.831169 114.2486 31.741755 114.40955 C 31.656811 114.56602 31.531483 114.6891 31.366067 114.77852 C 31.200652 114.86346 31.001682 114.90564 30.769205 114.90564 C 30.599318 114.90564 30.445292 114.88094 30.3067 114.83174 C 30.17258 114.7781 30.058488 114.7067 29.964602 114.61729 C 29.870713 114.5234 29.799319 114.41155 29.750145 114.28191 C 29.700965 114.15225 29.676248 114.00722 29.676248 113.84627 C 29.676248 113.63168 29.718429 113.44619 29.803372 113.28972 C 29.892787 113.12877 30.018114 113.00569 30.17906 112.92075 C 30.344476 112.83133 30.541199 112.78639 30.769205 112.78639 z M 45.197781 112.78639 C 45.421316 112.78639 45.613544 112.82909 45.77449 112.91403 C 45.939906 112.99897 46.062471 113.11306 46.142943 113.25613 C 46.227887 113.39919 46.270584 113.55996 46.270584 113.73879 L 46.270584 113.93309 C 46.270584 114.11192 46.227887 114.27545 46.142943 114.42298 C 46.062471 114.57052 45.942153 114.6891 45.781208 114.77852 C 45.620263 114.86793 45.425788 114.91236 45.197781 114.91236 C 44.987659 114.91236 44.804418 114.87018 44.647944 114.78524 C 44.495939 114.70029 44.377354 114.57946 44.29241 114.42298 C 44.207467 114.26204 44.164769 114.06981 44.164769 113.84627 C 44.164769 113.61827 44.207467 113.42604 44.29241 113.26957 C 44.381825 113.11309 44.502141 112.99451 44.654145 112.91403 C 44.81062 112.82909 44.992129 112.78639 45.197781 112.78639 z M 69.609728 112.78639 C 69.833266 112.78639 70.025494 112.82909 70.186437 112.91403 C 70.351857 112.99897 70.474935 113.11306 70.555407 113.25613 C 70.640348 113.39919 70.682531 113.55996 70.682531 113.73879 L 70.682531 113.93309 C 70.682531 114.11192 70.640348 114.27545 70.555407 114.42298 C 70.474935 114.57052 70.354105 114.6891 70.193155 114.77852 C 70.032213 114.86793 69.837737 114.91236 69.609728 114.91236 C 69.399609 114.91236 69.21637 114.87018 69.059891 114.78524 C 68.907889 114.70029 68.789298 114.57946 68.704357 114.42298 C 68.619407 114.26204 68.577233 114.06981 68.577233 113.84627 C 68.577233 113.61827 68.619407 113.42604 68.704357 113.26957 C 68.793769 113.11309 68.914607 112.99451 69.066608 112.91403 C 69.223088 112.82909 69.40408 112.78639 69.609728 112.78639 z M 99.928807 112.78639 C 100.15235 112.78639 100.34458 112.82909 100.50552 112.91403 C 100.67094 112.99897 100.79401 113.11306 100.87449 113.25613 C 100.95943 113.39919 101.00213 113.55996 101.00213 113.73879 L 101.00213 113.93309 C 101.00213 114.11192 100.95943 114.27545 100.87449 114.42298 C 100.79401 114.57052 100.67318 114.6891 100.51223 114.77852 C 100.35129 114.86793 100.15682 114.91236 99.928807 114.91236 C 99.718689 114.91236 99.535449 114.87018 99.37897 114.78524 C 99.226969 114.70029 99.108378 114.57946 99.023436 114.42298 C 98.938487 114.26204 98.896312 114.06981 98.896312 113.84627 C 98.896312 113.61827 98.938487 113.42604 99.023436 113.26957 C 99.112848 113.11309 99.233687 112.99451 99.385688 112.91403 C 99.542167 112.82909 99.72316 112.78639 99.928807 112.78639 z M 116.25598 112.78639 C 116.47951 112.78639 116.67173 112.82909 116.83269 112.91403 C 116.9981 112.99897 117.12119 113.11306 117.20165 113.25613 C 117.28661 113.39919 117.32878 113.55996 117.32878 113.73879 L 117.32878 113.93309 C 117.32878 114.11192 117.28661 114.27545 117.20165 114.42298 C 117.12119 114.57052 117.00035 114.6891 116.8394 114.77852 C 116.67846 114.86793 116.48398 114.91236 116.25598 114.91236 C 116.04585 114.91236 115.86261 114.87018 115.70614 114.78524 C 115.55413 114.70029 115.43554 114.57946 115.35061 114.42298 C 115.26567 114.26204 115.22296 114.06981 115.22296 113.84627 C 115.22296 113.61827 115.26567 113.42604 115.35061 113.26957 C 115.44002 113.11309 115.56085 112.99451 115.71286 112.91403 C 115.86933 112.82909 116.05032 112.78639 116.25598 112.78639 z " />
    <path
       id="path9385"
       style="color:#000000;fill:url(#linearGradient1967);fill-opacity:1;stroke-width:0.149456;stroke-linecap:round;-inkscape-stroke:none;paint-order:stroke fill markers"
       d="m 54.977197,57.882249 c -0.31393,9.9e-5 -0.60818,0.199137 -0.73395,0.48526 -0.7239,1.462507 -1.447986,2.924933 -2.171803,4.387423 -1.638942,0.237411 -3.279229,0.468084 -4.91732,0.71001 -0.373403,0.05971 -0.668222,0.415657 -0.654401,0.79404 -0.0031,0.262805 0.149441,0.496091 0.343386,0.66197 1.142432,1.117278 2.284845,2.234607 3.427323,3.351794 -0.280768,1.633589 -0.568623,3.266303 -0.84479,4.900486 -0.0592,0.37826 0.197035,0.770303 0.566203,0.870346 0.230599,0.07439 0.472257,0.02113 0.681603,-0.105189 1.428767,-0.748852 2.857274,-1.498011 4.286169,-2.246577 1.475041,0.775753 2.94612,1.559535 4.42323,2.331147 0.384511,0.180784 0.887795,-0.01658 1.047205,-0.409804 0.1399,-0.292827 0.0168,-0.612628 -0.0218,-0.913288 -0.24996,-1.471189 -0.49979,-2.942383 -0.749854,-4.413527 1.186574,-1.156703 2.378794,-2.308077 3.562104,-3.467797 0.26565,-0.267961 0.29415,-0.728046 0.0612,-1.025435 -0.15436,-0.21816 -0.4206,-0.314791 -0.67857,-0.335117 -1.57661,-0.231374 -3.153154,-0.463032 -4.729734,-0.694254 -0.73207,-1.485269 -1.45768,-2.974196 -2.19406,-4.457089 -0.13434,-0.258832 -0.41161,-0.421308 -0.70189,-0.424399 z m -0.002,2.59583 c 0.0228,0.0465 0.0457,0.09313 0.0685,0.139637 0.53352,1.081209 1.06053,2.16612 1.598201,3.244981 0.131479,0.256525 0.406149,0.409744 0.68862,0.431042 1.20153,0.176404 2.403049,0.352799 3.604524,0.529128 -0.90018,0.878742 -1.806585,1.751706 -2.703665,2.633365 -0.20379,0.204487 -0.262,0.514273 -0.19555,0.789404 0.20361,1.196864 0.4069,2.393741 0.61067,3.590602 -1.1144,-0.585479 -2.22513,-1.178517 -3.341279,-1.760159 -0.26109,-0.132284 -0.576791,-0.08547 -0.81952,0.0655 -1.071212,0.561315 -2.142262,1.122935 -3.213531,1.684083 0.212569,-1.240338 0.432682,-2.479693 0.64055,-3.720661 0.04355,-0.28467 -0.08998,-0.569194 -0.305384,-0.75241 -0.867968,-0.848825 -1.736045,-1.697504 -2.604001,-2.546401 1.244076,-0.180888 2.489481,-0.354889 3.732637,-0.540483 0.284293,-0.04539 0.514494,-0.259685 0.621962,-0.521172 0.539101,-1.088807 1.077936,-2.177749 1.617256,-3.266451 z m -13.760042,4.195881 -0.0015,0.0028 c -0.883137,0 -1.624448,0.08891 -2.257787,0.308008 -0.633306,0.219187 -1.188939,0.604938 -1.486278,1.178281 l -0.0073,0.01405 -0.0067,0.01413 c -0.203212,0.435558 -0.346218,0.850832 -0.414086,1.258216 v 0.02818 l -0.0073,0.02812 c -0.03073,0.335291 -0.04326,0.787478 -0.04326,1.392833 v 18.427218 c 0,2.829653 0.346698,4.952033 1.19394,6.438063 0.769446,1.37153 2.354594,2.10366 4.472614,2.37864 h 0.0067 c 1.29336,0.1585 2.363298,0.22839 3.236419,0.18622 0.873063,-0.0422 1.562597,-0.1573 2.129558,-0.54983 v -0.008 c 0.493018,-0.34507 0.743534,-0.87757 0.899689,-1.47895 0.156203,-0.60135 0.221831,-1.30917 0.221831,-2.16525 0,-0.7953 -0.06139,-1.45929 -0.221831,-2.02871 -0.159455,-0.56612 -0.429926,-1.0749 -0.914348,-1.39376 -0.300503,-0.20915 -0.593426,-0.36814 -0.957632,-0.42887 -0.362356,-0.0927 -0.699252,-0.0999 -1.236122,-0.0999 -0.172034,0 -0.258216,-0.014 -0.300681,-0.0213 -0.01924,-0.13369 -0.1282,-0.610852 -0.1282,-1.293977 v -17.92678 c 0,-0.590499 -0.01885,-1.038165 -0.07778,-1.421178 0,-0.006 -0.0064,-0.01023 -0.0067,-0.01405 -0.04095,-0.455361 -0.196541,-0.901524 -0.43612,-1.35074 l -0.0067,-0.008 c -0.307165,-0.553087 -0.844291,-0.93816 -1.464075,-1.158372 -0.61977,-0.220187 -1.338917,-0.306986 -2.186112,-0.307003 z M 24.54311,65.448847 c -4.114182,0 -7.757692,1.476521 -10.781372,4.365255 -3.038292,2.875594 -4.587081,6.557949 -4.587081,10.852898 0,4.291527 1.513953,8.043389 4.486212,11.096719 2.967842,3.02179 6.561333,4.57966 10.610993,4.57966 4.476703,0 7.982551,-1.17432 10.338892,-3.61478 0.826569,-0.85608 1.313825,-1.86624 1.313825,-2.92947 v -8.51727 c 0,-1.016628 -0.12075,-1.836587 -0.470809,-2.515275 -0.252019,-0.538 -0.722887,-0.935804 -1.279549,-1.172025 -0.559946,-0.237536 -1.210986,-0.350273 -1.97188,-0.378446 h -0.02224 -6.822823 c -0.855658,0 -1.595789,0.123039 -2.222097,0.43622 -0.528065,0.264045 -0.896407,0.773788 -1.072085,1.335989 l -0.0073,0.02139 -0.0067,0.02216 c -0.129333,0.517425 -0.178709,1.127573 -0.178709,1.864657 0,0.712793 0.05036,1.309134 0.178709,1.822717 v 0.008 0.0081 c 0.150514,0.564421 0.524631,1.065871 1.02165,1.37175 0.581394,0.357786 1.25948,0.428883 2.129572,0.428883 h 2.243098 v 2.750833 c -0.913451,0.308827 -1.875534,0.543347 -3.014664,0.543347 -1.74423,0 -3.261988,-0.657358 -4.686861,-2.079063 l -0.0073,-0.0081 c -1.409457,-1.437238 -2.086288,-3.089749 -2.086288,-5.116894 0,-2.061594 0.65686,-3.595126 2.01503,-4.815142 h 0.0073 c 1.394455,-1.276319 2.910706,-1.879409 4.679607,-1.879409 1.36608,0 2.474898,0.315969 3.415127,0.942795 l 0.0072,0.0081 h 0.0067 c 1.130982,0.727051 1.925371,1.17828 2.801193,1.17828 1.275123,0 2.338193,-0.932516 3.407785,-2.386061 v -0.0081 c 0.649889,-0.90415 1.043756,-1.764124 1.043756,-2.64356 0,-0.938126 -0.544543,-1.7807 -1.371768,-2.393397 -2.827284,-2.100216 -5.892398,-3.179637 -9.117369,-3.179637 z m 16.670532,0.859227 c 0.727206,0 1.283092,0.08601 1.644075,0.214401 0.360969,0.128094 0.505555,0.264025 0.585425,0.407872 0.166424,0.314628 0.23713,0.564186 0.250235,0.721055 l 0.0073,0.02818 v 0.03584 c 0.03755,0.226614 0.07144,0.652398 0.07144,1.222456 v 17.926895 c 0,0.974406 -0.03366,1.572576 0.342699,2.200006 l 0.01448,0.0141 0.0067,0.0141 c 0.386299,0.57954 1.047831,0.71473 1.686095,0.71473 0.516048,0 0.882553,0.0504 0.857749,0.0433 l 0.05671,0.0141 0.05049,0.008 c -0.02775,-0.005 0.107185,0.0312 0.306922,0.17131 l 0.01358,0.008 0.01448,0.008 c 0.02606,0.0162 0.137795,0.13133 0.235487,0.47823 0.09772,0.34682 0.164976,0.89179 0.164976,1.59357 0,0.76999 -0.06308,1.36509 -0.164976,1.75745 -0.100329,0.38626 -0.23025,0.53074 -0.256487,0.55076 0,5.5e-4 -0.0064,-5.6e-4 -0.0073,0 -0.107185,0.0726 -0.5485,0.22874 -1.271737,0.26383 -0.727176,0.0354 -1.722914,-0.02 -2.958977,-0.17123 v 0.008 c -1.856917,-0.2418 -2.846881,-0.82742 -3.264762,-1.5724 -0.596172,-1.04326 -0.978618,-2.94641 -0.978618,-5.637216 V 68.904669 c 0,-0.561942 0.01583,-0.962866 0.03583,-1.200367 0.03544,-0.20322 0.118856,-0.476771 0.263907,-0.793576 l 0.0067,-0.0081 c 0.0651,-0.122038 0.189244,-0.252078 0.557078,-0.379451 0.373328,-0.12916 0.960364,-0.214399 1.729125,-0.214399 z M 24.54311,67.075005 v 8.46e-4 c 2.866406,0 5.552178,0.931801 8.14514,2.858035 0.566603,0.419678 0.722071,0.733478 0.722071,1.085757 0,0.359619 -0.205709,0.945759 -0.743072,1.693427 -0.938885,1.271409 -1.711123,1.71436 -2.08654,1.71436 -0.104198,0 -0.882243,-0.251645 -1.907758,-0.907111 l -0.01448,-0.0081 c -1.225254,-0.812805 -2.6851,-1.214039 -4.307325,-1.214039 -2.15114,0 -4.124228,0.793054 -5.773932,2.299871 -1.687391,1.51582 -2.551094,3.594481 -2.551094,6.023928 0,2.408959 0.875839,4.555025 2.558513,6.265749 1.670093,1.670121 3.668524,2.564781 5.844202,2.564781 1.508325,0 2.891646,-0.24729 4.137274,-0.75682 l 0.507586,-0.20714 v -5.580357 h -3.87344 c -0.730132,0 -1.188507,-0.138286 -1.278212,-0.193392 C 23.7535,82.611035 23.68393,82.519076 23.628854,82.322682 v -0.008 c -0.07744,-0.312579 -0.128198,-0.795996 -0.128198,-1.422182 0,-0.647189 0.05283,-1.133642 0.128198,-1.443191 0.07653,-0.22606 0.14205,-0.29966 0.228067,-0.342687 0.302893,-0.151489 0.808031,-0.264835 1.500967,-0.264835 h 6.780909 c 0.63283,0.02305 1.108295,0.118961 1.400082,0.242746 0.291847,0.123871 0.390581,0.243719 0.449809,0.372113 l 0.0073,0.01413 0.0073,0.02216 c 0.156737,0.297771 0.293324,0.904103 0.293324,1.785803 v 8.51727 c 0,0.58862 -0.231621,1.15964 -0.85042,1.80055 -1.979895,2.05058 -4.978394,3.11554 -9.174147,3.11554 -3.641972,0 -6.734893,-1.32805 -9.445382,-4.08784 -2.706161,-2.77997 -4.030062,-6.043089 -4.030062,-9.959376 0,-3.912874 1.343513,-7.07816 4.086839,-9.674462 2.757806,-2.63475 5.927341,-3.915394 9.659555,-3.915445 z m 57.054232,0.268698 c -0.87824,9.4e-5 -1.60923,0.08512 -2.23537,0.285842 -0.62649,0.200789 -1.18279,0.54731 -1.49255,1.100504 v 0.0082 l -0.008,0.0081 c -0.21079,0.391419 -0.35751,0.771897 -0.42887,1.164687 l -0.008,0.03677 v 0.03584 c -0.0307,0.335251 -0.0422,0.788451 -0.0422,1.393762 v 3.044094 l -2.35879,-0.02818 h -0.007 c -0.82906,0 -1.72679,0.02048 -2.6298,0.03582 v -2.858114 c 0,-0.942095 -0.0488,-1.641489 -0.2281,-2.215684 l -0.008,-0.01413 -0.008,-0.01408 c -0.24126,-0.686802 -0.785,-1.232778 -1.4642,-1.543056 -0.67921,-0.310231 -1.48516,-0.436217 -2.43648,-0.436217 -0.87898,0 -1.6141,0.0836 -2.23686,0.285922 -0.61753,0.200574 -1.15487,0.558475 -1.4505,1.115253 -0.2312,0.383311 -0.41257,0.762689 -0.48565,1.164609 v 0.03592 l -0.008,0.03584 c -0.0307,0.335286 -0.0434,0.787441 -0.0434,1.392755 v 3.06603 c -2.34049,-0.09173 -3.02581,1.100587 -3.33311,2.110723 -0.17046,0.617305 -0.22074,1.406015 -0.22074,2.494266 0,1.150824 0.16296,2.070507 0.72841,2.757093 l 0.008,0.01422 0.007,0.0081 c 0.51184,0.58 1.24716,0.935534 2.00871,0.935534 0.28012,0 0.53682,-0.03891 0.80733,-0.05684 V 87.5656 c 0,2.781599 0.78936,5.036309 2.42915,6.558999 1.62226,1.50648 3.87257,2.22936 6.59468,2.22936 0.58,0 1.01731,-0.0119 1.35067,-0.0433 h 0.0282 l 0.0281,-0.008 c 0.40735,-0.0679 0.82154,-0.21077 1.25716,-0.41412 l 0.0144,-0.008 h 0.007 c 0.57962,-0.28978 0.98567,-0.8334 1.21505,-1.46419 0.22943,-0.63084 0.32167,-1.3709 0.32167,-2.24419 0,-0.75466 -0.0792,-1.39792 -0.27124,-1.95718 -0.19199,-0.5593 -0.52945,-1.05683 -1.03633,-1.34333 -0.42951,-0.24458 -0.88066,-0.40029 -1.34332,-0.44255 -0.39194,-0.0628 -0.86343,-0.0935 -1.49364,-0.0935 -0.43549,0 -0.53394,-0.0828 -0.57083,-0.12814 -0.0527,-0.0889 -0.16497,-0.42947 -0.16497,-1.029056 v -4.494639 l 2.694,0.11454 h 0.0138 c 0.62111,0 1.4622,-0.05981 2.28726,-0.11454 v 4.880405 c 0,2.78151 0.78935,5.03632 2.42917,6.55892 1.62232,1.50648 3.86522,2.22944 6.58736,2.22944 0.58,0 1.01727,-0.0119 1.35073,-0.0432 h 0.0358 l 0.0281,-0.008 c 0.40729,-0.068 0.82141,-0.21087 1.25705,-0.41413 l 0.008,-0.008 h 0.008 c 0.57967,-0.28983 0.98466,-0.83341 1.21404,-1.4642 0.22936,-0.6308 0.3216,-1.36977 0.3216,-2.2431 0,-0.75714 -0.0767,-1.41 -0.2785,-1.97302 -0.20058,-0.55968 -0.55888,-1.04758 -1.07115,-1.32857 -0.40529,-0.24352 -0.84777,-0.40086 -1.30124,-0.44248 -0.39092,-0.0623 -0.86534,-0.0936 -1.49263,-0.0936 -0.4405,0 -0.53622,-0.0842 -0.57177,-0.12937 -0.0527,-0.0889 -0.16396,-0.42943 -0.16396,-1.029063 v -4.479871 l 1.6786,0.09986 h 0.0281 c 0.60524,0 1.05079,-0.0059 1.38642,-0.03583 l 0.0281,-0.0081 h 0.0359 c 0.40737,-0.06786 0.81516,-0.210863 1.2508,-0.41413 l 0.0136,-0.008 0.0221,-0.0081 c 0.5698,-0.295464 0.9509,-0.845141 1.17094,-1.472694 0.22005,-0.627637 0.30793,-1.364489 0.30793,-2.235689 0,-0.883146 -0.0872,-1.620752 -0.30793,-2.250439 -0.21846,-0.62294 -0.60496,-1.16693 -1.17837,-1.450527 -0.42233,-0.236735 -0.85315,-0.397623 -1.30022,-0.436294 h -0.008 c -0.36937,-0.06062 -0.8022,-0.0862 -1.3864,-0.0862 -0.40916,0 -1.10578,0.0608 -1.74271,0.107203 v -2.92948 c 0,-0.9377 -0.0559,-1.637457 -0.27233,-2.228426 0,-0.0052 -0.005,-0.0053 -0.007,-0.0082 -0.2263,-0.687435 -0.75705,-1.239431 -1.42952,-1.550387 -0.67527,-0.312334 -1.48429,-0.43609 -2.43497,-0.43622 z m -7e-5,1.635193 h 7e-5 c 0.80384,0 1.39336,0.120826 1.75012,0.285844 0.35682,0.164976 0.4939,0.32257 0.57918,0.585508 v 0.01405 l 0.007,0.02007 c 0.0865,0.230372 0.18605,0.82916 0.18605,1.686013 v 4.688017 l 0.88611,-0.08627 c 1.12345,-0.102101 1.96104,-0.150297 2.47958,-0.150297 0.56988,0 0.98558,0.03034 1.17203,0.06411 l 0.0358,0.0081 0.0421,0.0081 c 0.15758,0.01196 0.38491,0.07867 0.6718,0.242747 l 0.0221,0.01422 0.0281,0.01396 c 0.1133,0.05456 0.23716,0.164772 0.36481,0.528746 0.12752,0.36397 0.22064,0.945602 0.22064,1.714356 0,0.754921 -0.0923,1.327288 -0.22064,1.69335 -0.12656,0.360775 -0.25404,0.491324 -0.37955,0.558173 0,0 -0.005,0.0061 -0.007,0.0082 -0.31683,0.144999 -0.59047,0.229575 -0.79358,0.264836 -0.22731,0.01834 -0.61585,0.03463 -1.14259,0.03592 l -3.38045,-0.207063 v 6.208905 c 0,0.777298 0.0807,1.413158 0.44363,1.957258 l 0.0136,0.0222 0.0144,0.014 c 0.43189,0.57591 1.15057,0.79366 1.88575,0.79366 0.59666,0 1.04189,0.0264 1.26547,0.064 l 0.0281,0.008 h 0.0358 c 0.19141,0.0141 0.39814,0.0846 0.64328,0.23548 l 0.0215,0.008 0.0221,0.0141 c 0.10226,0.0556 0.2062,0.15561 0.31434,0.45723 0.10796,0.30169 0.18499,0.78558 0.18499,1.42218 0,0.75279 -0.0888,1.32307 -0.22084,1.68593 -0.13203,0.36296 -0.27202,0.49301 -0.41513,0.56451 -0.32118,0.1479 -0.59455,0.22918 -0.79991,0.26491 -0.23883,0.0201 -0.62465,0.0358 -1.15726,0.0358 -2.44008,0 -4.21949,-0.61533 -5.48793,-1.79322 -1.25101,-1.16166 -1.90775,-2.88219 -1.90775,-5.365975 v -6.616775 l -0.87885,0.07137 c -1.20961,0.100868 -2.20558,0.156439 -2.9935,0.157633 l -4.37267,-0.193624 v 6.195385 c 0,0.777256 0.087,1.413076 0.44989,1.957186 l 0.008,0.0222 0.0145,0.014 c 0.43195,0.5759 1.1579,0.79358 1.89307,0.79358 0.59669,0 1.0335,0.0269 1.25714,0.0641 l 0.0358,0.008 h 0.0358 c 0.19299,0.0141 0.42776,0.0906 0.70739,0.25024 0.0869,0.0489 0.19582,0.15194 0.30066,0.45723 0.10477,0.30532 0.17865,0.78931 0.17865,1.42844 0,0.75278 -0.0897,1.32415 -0.22173,1.68702 -0.13203,0.3629 -0.27108,0.493 -0.41413,0.56449 -0.31868,0.14667 -0.58893,0.22764 -0.79366,0.26384 -0.23773,0.0205 -0.6255,0.0367 -1.16461,0.0367 -2.44005,0 -4.21845,-0.6154 -5.48684,-1.79321 -1.25106,-1.16161 -1.90785,-2.88214 -1.90785,-5.365885 v -6.67362 l -0.93652,0.135624 c -0.47292,0.07098 -0.96908,0.107203 -1.49995,0.107203 -0.31655,0 -0.51599,-0.08658 -0.77151,-0.371032 -0.15657,-0.195455 -0.35744,-0.757388 -0.35744,-1.715366 0,-1.025119 0.0776,-1.753373 0.16397,-2.064461 l 0.008,-0.0081 v -0.0081 c 0.10338,-0.392312 0.23385,-0.579966 0.28591,-0.629609 0.25334,-0.200362 0.54924,-0.312897 1.0069,-0.314264 l 2.10123,0.264837 v -4.908715 c 0,-0.555202 0.0161,-0.947758 0.0357,-1.186622 0.029,-0.151359 0.10635,-0.36705 0.27123,-0.634936 l 0.0144,-0.02216 0.0138,-0.02818 c 0.0418,-0.08012 0.15045,-0.208567 0.52132,-0.328938 0.37094,-0.120455 0.96347,-0.199802 1.73645,-0.199802 l -0.004,-0.0032 c 0.80375,0 1.39866,0.118596 1.76479,0.285919 0.36176,0.165152 0.49854,0.330124 0.59287,0.592847 0.0782,0.2556 0.15769,0.856821 0.15769,1.71436 v 4.50961 l 0.82826,-0.01413 c 1.20528,-0.02603 2.3468,-0.04333 3.42246,-0.04333 l 3.99424,0.05051 v -4.69435 c 0,-0.555242 0.0163,-0.947835 0.0358,-1.186694 0.0329,-0.171509 0.10642,-0.395335 0.25015,-0.664288 l 0.008,-0.0081 c 0.0533,-0.09199 0.18266,-0.222666 0.55708,-0.342609 0.38015,-0.121862 0.97077,-0.199797 1.74371,-0.199801 z m 22.617448,5.151727 c -0.79413,0 -1.61242,0.277207 -2.48693,0.756813 -0.65997,0.361926 -1.03894,0.64282 -1.40742,0.943876 -0.0464,-0.08093 -0.0329,-0.179771 -0.0863,-0.257499 -0.660738,-0.998866 -1.925998,-1.250801 -3.571758,-1.250801 -0.88314,0 -1.62454,0.08133 -2.25785,0.300593 -0.63331,0.219229 -1.18894,0.604982 -1.48622,1.178279 v 0.0082 0.0081 c -0.20838,0.416773 -0.3604,0.825154 -0.42888,1.236124 v 0.02818 l -0.008,0.02812 c -0.0307,0.335335 -0.0434,0.788484 -0.0434,1.393839 v 13.588902 1.15101 l 0.008,0.0282 c 0.0612,0.8881 0.36145,1.68841 0.97129,2.22201 l 0.0142,0.008 0.008,0.0141 c 0.7776,0.6296 1.85098,0.83676 3.18589,0.83676 0.86903,0 1.6014,-0.084 2.22942,-0.29326 0.628,-0.20933 1.176988,-0.57249 1.493708,-1.12159 l 0.008,-0.0141 0.008,-0.008 c 0.23613,-0.44269 0.39325,-0.86096 0.43619,-1.30023 0.061,-0.38587 0.0862,-0.84356 0.0862,-1.44319 v -8.130482 c 0,-0.4601 0.15058,-0.779423 0.58551,-1.143521 0.50058,-0.394582 0.96143,-0.564503 1.46528,-0.564503 0.61654,0 1.05108,0.103559 1.30023,0.228071 h 0.008 l 0.014,0.0081 c 0.53893,0.253635 1.11568,0.385705 1.70077,0.385705 1.21549,0 2.27562,-0.756768 2.85796,-1.921423 0.5312,-1.06251 0.822,-2.085442 0.822,-3.072361 0,-0.922288 -0.18776,-1.715355 -0.71474,-2.300949 -0.40555,-0.496553 -0.93891,-0.87679 -1.55772,-1.072161 -0.51089,-0.161307 -0.99145,-0.267236 -1.4506,-0.327933 -0.48543,-0.09096 -1.04732,-0.129366 -1.70071,-0.129366 z m -45.097212,0.567434 c -0.41118,0.0051 -0.78916,0.403472 -0.83713,0.820612 -0.0261,0.552513 -0.0729,1.134301 -0.40153,1.603915 -0.71556,1.061184 -1.84828,1.724766 -2.90623,2.396026 -1.104384,-0.707881 -2.321892,-1.400136 -3.00364,-2.565556 -0.279279,-0.457195 -0.253886,-1.002311 -0.320274,-1.511156 -0.09754,-0.401535 -0.448139,-0.790444 -0.893674,-0.737813 -0.621024,0.09084 -0.857067,0.817838 -0.769555,1.365571 0.08101,1.648649 1.067616,3.126808 2.359166,4.100959 0.226065,0.183204 0.465093,0.349843 0.697204,0.525192 -1.156895,0.776772 -2.274596,1.751634 -2.764584,3.096072 -0.613609,1.555257 -0.255704,3.398004 0.810559,4.66932 0.530375,0.66845 1.239824,1.19669 1.954025,1.69614 -0.970649,0.68628 -1.908058,1.48736 -2.45565,2.5345 -0.433281,0.82877 -0.702083,1.79341 -0.565653,2.72944 0.0987,0.51811 0.719842,0.9523 1.204681,0.6127 0.441897,-0.27681 0.474573,-0.83044 0.484796,-1.29784 0.115197,-1.07245 0.997303,-1.83064 1.805182,-2.43997 0.467275,-0.34809 0.965187,-0.65076 1.457417,-0.96164 1.10598,0.70678 2.32249,1.40124 3.00517,2.56648 0.27849,0.45759 0.25345,1.0022 0.31957,1.51108 0.0931,0.52161 0.7161,0.96122 1.20384,0.62444 0.574964,-0.38284 0.497284,-1.15586 0.403344,-1.74935 -0.171844,-1.08043 -0.713284,-2.06734 -1.452154,-2.83656 -0.46467,-0.48921 -1.00396,-0.89768 -1.54807,-1.29328 0.6578,-0.45984 1.31993,-0.95327 1.81228,-1.52699 1.112114,-1.225396 1.563664,-3.040391 1.0276,-4.622369 -0.43775,-1.410988 -1.56734,-2.457667 -2.76165,-3.256256 -0.14885,-0.145299 0.34025,-0.296097 0.44455,-0.4434 1.2609,-0.922077 2.29543,-2.272781 2.494254,-3.857364 0.0903,-0.572228 0.11535,-1.321194 -0.457134,-1.656359 -0.11383,-0.06848 -0.23157,-0.09795 -0.34671,-0.09654 z m 45.097202,1.054477 c 0.5856,0 1.05958,0.04335 1.40009,0.107199 h 0.0213 l 0.0221,0.0081 c 0.35296,0.0443 0.76251,0.135671 1.2151,0.27858 0.35166,0.111066 0.59528,0.277389 0.80726,0.542335 l 0.0215,0.02216 0.0221,0.02147 c 0.12532,0.134836 0.28591,0.513007 0.28591,1.228789 0,0.664858 -0.20114,1.444702 -0.6507,2.343814 -0.39841,0.796967 -0.75714,1.021802 -1.40003,1.021802 -0.33889,0 -0.66011,-0.06734 -0.99337,-0.221813 -0.5767,-0.288336 -1.25238,-0.393121 -2.02962,-0.393121 -0.88781,0 -1.74274,0.325666 -2.47868,0.90827 l -0.008,0.0079 -0.008,0.0081 c -0.739488,0.610862 -1.185608,1.480268 -1.185608,2.408153 v 8.131407 c 0,0.56993 -0.0265,0.99432 -0.0641,1.22153 l -0.008,0.0285 v 0.0282 c -0.0101,0.11777 -0.0844,0.36545 -0.24281,0.67163 h -0.008 c -0.0712,0.12122 -0.21735,0.26792 -0.59284,0.39311 -0.37867,0.1261 -0.95838,0.20715 -1.71545,0.20715 -1.13565,0 -1.83366,-0.23211 -2.14323,-0.47831 -0.21,-0.19021 -0.37295,-0.48947 -0.41413,-1.08676 v -1.06379 -13.589915 c 0,-0.561902 0.0161,-0.962829 0.0358,-1.200367 0.0358,-0.204716 0.11614,-0.453735 0.26376,-0.75048 0.0641,-0.123526 0.19131,-0.256533 0.5645,-0.385785 0.37333,-0.129121 0.96035,-0.221893 1.72912,-0.221893 1.44466,0 2.10601,0.343573 2.22202,0.521484 l 0.008,0.0081 0.008,0.01396 c 0.2077,0.302123 0.17561,0.57221 0.27859,0.814662 v 2.536284 l 1.478958,-2.065467 c 0.096,-0.134414 0.25506,-0.330522 0.45723,-0.557008 l 0.008,-0.0081 c 0.12671,-0.126732 0.62382,-0.478091 1.39274,-0.899773 0.72571,-0.397995 1.30752,-0.557087 1.7007,-0.557087 z m -52.001976,0.01892 c 0.03881,0.37744 0.07002,0.680497 0.196562,0.896761 h 5.131482 c 0.12016,-0.245277 0.17251,-0.55164 0.19996,-0.896761 z m 0.765834,1.635348 c 0.318811,0.326789 0.695353,0.618373 1.099588,0.896762 h 1.790741 c 0.40263,-0.278008 0.77996,-0.569111 1.10111,-0.896762 z m 1.994039,4.481183 c 0.0397,0.02477 0.079,0.04943 0.118471,0.07415 1.066689,0.67433 2.24598,1.32262 2.918739,2.433017 0.455831,0.836065 0.27833,1.945717 -0.399209,2.612667 -0.73631,0.82497 -1.71117,1.37674 -2.638001,1.95734 -1.093372,-0.69512 -2.309231,-1.34444 -3.017599,-2.472643 -0.478886,-0.83952 -0.306897,-1.972481 0.381074,-2.648351 0.736695,-0.82373 1.710195,-1.375875 2.636525,-1.95618 z m -0.955242,1.230258 c -0.410136,0.276353 -0.792953,0.56661 -1.121583,0.896762 h 4.150865 c -0.32274,-0.328544 -0.70778,-0.618795 -1.12161,-0.896763 z m -1.740466,1.859714 c -0.07729,0.294299 -0.08287,0.608748 -0.0084,0.896763 h 5.402259 c 0.0775,-0.294423 0.0825,-0.608787 0.007,-0.896763 z m 0.62345,1.859635 c 0.323928,0.328835 0.709255,0.618852 1.122894,0.896687 h 1.907455 c 0.41023,-0.276286 0.79308,-0.566435 1.12135,-0.896687 z m 1.014681,5.815247 c -0.029,0.0209 -0.0581,0.0418 -0.08656,0.063 -0.346505,0.26145 -0.680444,0.53726 -0.953383,0.83374 h 4.19156 c -0.30065,-0.32833 -0.6604,-0.62017 -1.04997,-0.89676 z m -1.590313,1.75012 c -0.04558,0.12508 -0.07847,0.2534 -0.093,0.38601 -0.0033,0.15369 -0.0093,0.3264 -0.03602,0.51075 h 5.562381 c -0.04,-0.35793 -0.0594,-0.65994 -0.12889,-0.89676 z" />
    <path
       d="m 115.50861,67.343698 -0.44662,2.778709 c 0.2141,0.140065 0.35584,0.381652 0.35584,0.656662 v 0 c 0,0.01506 -10e-4,0.02979 -0.002,0.0446 v 0 l 2.40373,1.348384 c 0.13357,-0.10522 0.30163,-0.168461 0.48478,-0.168461 v 0 c 0.43336,0 0.78465,0.351295 0.78465,0.784594 v 0 c 0,0.433299 -0.35129,0.784625 -0.78465,0.784625 v 0 c -0.43333,0 -0.78459,-0.351326 -0.78459,-0.784625 v 0 c 0,-0.01737 0.001,-0.0344 0.002,-0.05149 v 0 l -2.39852,-1.345636 c -0.13438,0.107811 -0.30463,0.172599 -0.49034,0.172599 v 0 c -0.21297,0 -0.40578,-0.0851 -0.5472,-0.222857 v 0 l -2.10269,0.839021 v 1.538705 c 0,0.926173 0.75777,1.683948 1.68395,1.683948 v 0 h 4.69088 c 0.9262,0 1.68395,-0.757775 1.68395,-1.683948 v 0 -4.690947 c 0,-0.926143 -0.75775,-1.683886 -1.68395,-1.683886 v 0 z"
       style="fill:url(#radialGradient1969);stroke:none;stroke-width:0.0315884"
       id="path9491" />
    <path
       d="m 113.66726,67.343698 c -0.92617,0 -1.68394,0.757775 -1.68394,1.683918 v 0 2.465288 l 1.86687,-0.74495 c 0.0138,-0.349716 0.25587,-0.63995 0.5817,-0.726376 v 0 l 0.43043,-2.67788 z"
       style="fill:url(#radialGradient9497);stroke:none;stroke-width:0.0315884"
       id="path9489" />
    <path
       style="font-variation-settings:'wdth' 75, 'wght' 400;fill:#ffffff;stroke-width:1.172;stroke-linejoin:bevel"
       d="m 114.86263,67.344236 -0.43084,2.677661 c -0.32583,0.08643 -0.5679,0.376328 -0.58164,0.726036 l -1.86663,0.745251 h -0.001 v 0.687027 h 5.8e-4 l 2.103,-0.838989 c 0.14142,0.13776 0.33373,0.222994 0.54671,0.222994 0.18571,0 0.35644,-0.06511 0.49082,-0.172922 l 2.3982,1.345526 c -10e-4,0.01709 -0.002,0.03444 -0.002,0.05182 0,0.433299 0.35151,0.78426 0.78485,0.78426 0.43335,0 0.78484,-0.350961 0.78484,-0.78426 0,-0.433292 -0.35149,-0.784841 -0.78484,-0.784841 -0.18316,0 -0.35143,0.06304 -0.485,0.168263 l -2.40343,-1.347855 c 10e-4,-0.01482 0.002,-0.02977 0.002,-0.04483 0,-0.27501 -0.14165,-0.51669 -0.35575,-0.656753 l 0.44657,-2.778386 z"
       id="path3331" />
  </g>
</svg>
